%TF.GenerationSoftware,KiCad,Pcbnew,9.0.0*%
%TF.CreationDate,2025-03-17T16:01:18+01:00*%
%TF.ProjectId,Flatbox-rev8,466c6174-626f-4782-9d72-6576382e6b69,rev?*%
%TF.SameCoordinates,Original*%
%TF.FileFunction,Drillmap*%
%TF.FilePolarity,Positive*%
%FSLAX45Y45*%
G04 Gerber Fmt 4.5, Leading zero omitted, Abs format (unit mm)*
G04 Created by KiCad (PCBNEW 9.0.0) date 2025-03-17 16:01:18*
%MOMM*%
%LPD*%
G01*
G04 APERTURE LIST*
%ADD10C,0.050000*%
%ADD11C,0.200000*%
%ADD12C,0.100000*%
%ADD13C,0.170180*%
%ADD14C,0.220000*%
%ADD15C,0.300000*%
%ADD16C,0.342900*%
%ADD17C,0.640000*%
G04 APERTURE END LIST*
D10*
X4500000Y-2640000D02*
X18330000Y-2640000D01*
X25000000Y-3140000D02*
X25000000Y-14500000D01*
X24500000Y-15000000D02*
X4500000Y-15000000D01*
X4000000Y-14500000D02*
X4000000Y-3140000D01*
X19670000Y-2640000D02*
X19670000Y-3567100D01*
X19670000Y-2640000D02*
X24500000Y-2640000D01*
X4000000Y-3140000D02*
G75*
G02*
X4500000Y-2640000I500000J0D01*
G01*
X19670000Y-3567100D02*
X18330000Y-3567100D01*
X4500000Y-15000000D02*
G75*
G02*
X4000000Y-14500000I0J500000D01*
G01*
X25000000Y-14500000D02*
G75*
G02*
X24500000Y-15000000I-500000J0D01*
G01*
X18330000Y-3567100D02*
X18330000Y-2640000D01*
X24500000Y-2640000D02*
G75*
G02*
X25000000Y-3140000I0J-500000D01*
G01*
D11*
D12*
X14178500Y-3107500D02*
X14243500Y-3172500D01*
X14243500Y-3107500D02*
X14178500Y-3172500D01*
X14756500Y-3107500D02*
X14821500Y-3172500D01*
X14821500Y-3107500D02*
X14756500Y-3172500D01*
D13*
X5357590Y-6505000D02*
G75*
G02*
X5187410Y-6505000I-85090J0D01*
G01*
X5187410Y-6505000D02*
G75*
G02*
X5357590Y-6505000I85090J0D01*
G01*
X6457590Y-6505000D02*
G75*
G02*
X6287410Y-6505000I-85090J0D01*
G01*
X6287410Y-6505000D02*
G75*
G02*
X6457590Y-6505000I85090J0D01*
G01*
X8267090Y-6517000D02*
G75*
G02*
X8096910Y-6517000I-85090J0D01*
G01*
X8096910Y-6517000D02*
G75*
G02*
X8267090Y-6517000I85090J0D01*
G01*
X9367090Y-6517000D02*
G75*
G02*
X9196910Y-6517000I-85090J0D01*
G01*
X9196910Y-6517000D02*
G75*
G02*
X9367090Y-6517000I85090J0D01*
G01*
X10927090Y-7652000D02*
G75*
G02*
X10756910Y-7652000I-85090J0D01*
G01*
X10756910Y-7652000D02*
G75*
G02*
X10927090Y-7652000I85090J0D01*
G01*
X12027090Y-7652000D02*
G75*
G02*
X11856910Y-7652000I-85090J0D01*
G01*
X11856910Y-7652000D02*
G75*
G02*
X12027090Y-7652000I85090J0D01*
G01*
X12677090Y-12962000D02*
G75*
G02*
X12506910Y-12962000I-85090J0D01*
G01*
X12506910Y-12962000D02*
G75*
G02*
X12677090Y-12962000I85090J0D01*
G01*
X13777090Y-12962000D02*
G75*
G02*
X13606910Y-12962000I-85090J0D01*
G01*
X13606910Y-12962000D02*
G75*
G02*
X13777090Y-12962000I85090J0D01*
G01*
X13860090Y-9615000D02*
G75*
G02*
X13689910Y-9615000I-85090J0D01*
G01*
X13689910Y-9615000D02*
G75*
G02*
X13860090Y-9615000I85090J0D01*
G01*
X14421090Y-6511000D02*
G75*
G02*
X14250910Y-6511000I-85090J0D01*
G01*
X14250910Y-6511000D02*
G75*
G02*
X14421090Y-6511000I85090J0D01*
G01*
X14960090Y-9615000D02*
G75*
G02*
X14789910Y-9615000I-85090J0D01*
G01*
X14789910Y-9615000D02*
G75*
G02*
X14960090Y-9615000I85090J0D01*
G01*
X15521090Y-6511000D02*
G75*
G02*
X15350910Y-6511000I-85090J0D01*
G01*
X15350910Y-6511000D02*
G75*
G02*
X15521090Y-6511000I85090J0D01*
G01*
X16521090Y-8504000D02*
G75*
G02*
X16350910Y-8504000I-85090J0D01*
G01*
X16350910Y-8504000D02*
G75*
G02*
X16521090Y-8504000I85090J0D01*
G01*
X17077090Y-5358000D02*
G75*
G02*
X16906910Y-5358000I-85090J0D01*
G01*
X16906910Y-5358000D02*
G75*
G02*
X17077090Y-5358000I85090J0D01*
G01*
X17621090Y-8504000D02*
G75*
G02*
X17450910Y-8504000I-85090J0D01*
G01*
X17450910Y-8504000D02*
G75*
G02*
X17621090Y-8504000I85090J0D01*
G01*
X18177090Y-5358000D02*
G75*
G02*
X18006910Y-5358000I-85090J0D01*
G01*
X18006910Y-5358000D02*
G75*
G02*
X18177090Y-5358000I85090J0D01*
G01*
X19406090Y-8504000D02*
G75*
G02*
X19235910Y-8504000I-85090J0D01*
G01*
X19235910Y-8504000D02*
G75*
G02*
X19406090Y-8504000I85090J0D01*
G01*
X19974090Y-5346000D02*
G75*
G02*
X19803910Y-5346000I-85090J0D01*
G01*
X19803910Y-5346000D02*
G75*
G02*
X19974090Y-5346000I85090J0D01*
G01*
X20506090Y-8504000D02*
G75*
G02*
X20335910Y-8504000I-85090J0D01*
G01*
X20335910Y-8504000D02*
G75*
G02*
X20506090Y-8504000I85090J0D01*
G01*
X21074090Y-5346000D02*
G75*
G02*
X20903910Y-5346000I-85090J0D01*
G01*
X20903910Y-5346000D02*
G75*
G02*
X21074090Y-5346000I85090J0D01*
G01*
X22327090Y-8504000D02*
G75*
G02*
X22156910Y-8504000I-85090J0D01*
G01*
X22156910Y-8504000D02*
G75*
G02*
X22327090Y-8504000I85090J0D01*
G01*
X22871090Y-5370000D02*
G75*
G02*
X22700910Y-5370000I-85090J0D01*
G01*
X22700910Y-5370000D02*
G75*
G02*
X22871090Y-5370000I85090J0D01*
G01*
X23427090Y-8504000D02*
G75*
G02*
X23256910Y-8504000I-85090J0D01*
G01*
X23256910Y-8504000D02*
G75*
G02*
X23427090Y-8504000I85090J0D01*
G01*
X23971090Y-5370000D02*
G75*
G02*
X23800910Y-5370000I-85090J0D01*
G01*
X23800910Y-5370000D02*
G75*
G02*
X23971090Y-5370000I85090J0D01*
G01*
D14*
X4700000Y-4530000D02*
X4700000Y-4750000D01*
X4590000Y-4640000D02*
X4810000Y-4640000D01*
X6000000Y-14190000D02*
X6000000Y-14410000D01*
X5890000Y-14300000D02*
X6110000Y-14300000D01*
X13350000Y-3230000D02*
X13350000Y-3450000D01*
X13240000Y-3340000D02*
X13460000Y-3340000D01*
X23000000Y-3230000D02*
X23000000Y-3450000D01*
X22890000Y-3340000D02*
X23110000Y-3340000D01*
X23000000Y-14190000D02*
X23000000Y-14410000D01*
X22890000Y-14300000D02*
X23110000Y-14300000D01*
D15*
X5928567Y-6016067D02*
X5928567Y-5803933D01*
X5716433Y-5803933D01*
X5716433Y-6016067D01*
X5928567Y-6016067D01*
X6428567Y-6236067D02*
X6428567Y-6023933D01*
X6216433Y-6023933D01*
X6216433Y-6236067D01*
X6428567Y-6236067D01*
X8838067Y-6028067D02*
X8838067Y-5815933D01*
X8625933Y-5815933D01*
X8625933Y-6028067D01*
X8838067Y-6028067D01*
X9338067Y-6248067D02*
X9338067Y-6035933D01*
X9125933Y-6035933D01*
X9125933Y-6248067D01*
X9338067Y-6248067D01*
X11498067Y-7163067D02*
X11498067Y-6950933D01*
X11285933Y-6950933D01*
X11285933Y-7163067D01*
X11498067Y-7163067D01*
X11998067Y-7383067D02*
X11998067Y-7170933D01*
X11785933Y-7170933D01*
X11785933Y-7383067D01*
X11998067Y-7383067D01*
X13248067Y-12473067D02*
X13248067Y-12260933D01*
X13035933Y-12260933D01*
X13035933Y-12473067D01*
X13248067Y-12473067D01*
X13748067Y-12693067D02*
X13748067Y-12480933D01*
X13535933Y-12480933D01*
X13535933Y-12693067D01*
X13748067Y-12693067D01*
X14431067Y-9126067D02*
X14431067Y-8913933D01*
X14218933Y-8913933D01*
X14218933Y-9126067D01*
X14431067Y-9126067D01*
X14931067Y-9346067D02*
X14931067Y-9133933D01*
X14718933Y-9133933D01*
X14718933Y-9346067D01*
X14931067Y-9346067D01*
X14992067Y-6022067D02*
X14992067Y-5809933D01*
X14779933Y-5809933D01*
X14779933Y-6022067D01*
X14992067Y-6022067D01*
X15492067Y-6242067D02*
X15492067Y-6029933D01*
X15279933Y-6029933D01*
X15279933Y-6242067D01*
X15492067Y-6242067D01*
X17092067Y-8015067D02*
X17092067Y-7802933D01*
X16879933Y-7802933D01*
X16879933Y-8015067D01*
X17092067Y-8015067D01*
X17592067Y-8235067D02*
X17592067Y-8022933D01*
X17379933Y-8022933D01*
X17379933Y-8235067D01*
X17592067Y-8235067D01*
X17648067Y-4869067D02*
X17648067Y-4656933D01*
X17435933Y-4656933D01*
X17435933Y-4869067D01*
X17648067Y-4869067D01*
X18148067Y-5089067D02*
X18148067Y-4876933D01*
X17935933Y-4876933D01*
X17935933Y-5089067D01*
X18148067Y-5089067D01*
X19977067Y-8015067D02*
X19977067Y-7802933D01*
X19764933Y-7802933D01*
X19764933Y-8015067D01*
X19977067Y-8015067D01*
X20477067Y-8235067D02*
X20477067Y-8022933D01*
X20264933Y-8022933D01*
X20264933Y-8235067D01*
X20477067Y-8235067D01*
X20545067Y-4857067D02*
X20545067Y-4644933D01*
X20332933Y-4644933D01*
X20332933Y-4857067D01*
X20545067Y-4857067D01*
X21045067Y-5077067D02*
X21045067Y-4864933D01*
X20832933Y-4864933D01*
X20832933Y-5077067D01*
X21045067Y-5077067D01*
X22898067Y-8015067D02*
X22898067Y-7802933D01*
X22685933Y-7802933D01*
X22685933Y-8015067D01*
X22898067Y-8015067D01*
X23398067Y-8235067D02*
X23398067Y-8022933D01*
X23185933Y-8022933D01*
X23185933Y-8235067D01*
X23398067Y-8235067D01*
X23442067Y-4881067D02*
X23442067Y-4668933D01*
X23229933Y-4668933D01*
X23229933Y-4881067D01*
X23442067Y-4881067D01*
X23942067Y-5101067D02*
X23942067Y-4888933D01*
X23729933Y-4888933D01*
X23729933Y-5101067D01*
X23942067Y-5101067D01*
D16*
X5822500Y-6676450D02*
X5993950Y-6505000D01*
X5822500Y-6333550D01*
X5651050Y-6505000D01*
X5822500Y-6676450D01*
X8732000Y-6688450D02*
X8903450Y-6517000D01*
X8732000Y-6345550D01*
X8560550Y-6517000D01*
X8732000Y-6688450D01*
X11392000Y-7823450D02*
X11563450Y-7652000D01*
X11392000Y-7480550D01*
X11220550Y-7652000D01*
X11392000Y-7823450D01*
X13142000Y-13133450D02*
X13313450Y-12962000D01*
X13142000Y-12790550D01*
X12970550Y-12962000D01*
X13142000Y-13133450D01*
X14325000Y-9786450D02*
X14496450Y-9615000D01*
X14325000Y-9443550D01*
X14153550Y-9615000D01*
X14325000Y-9786450D01*
X14886000Y-6682450D02*
X15057450Y-6511000D01*
X14886000Y-6339550D01*
X14714550Y-6511000D01*
X14886000Y-6682450D01*
X16986000Y-8675450D02*
X17157450Y-8504000D01*
X16986000Y-8332550D01*
X16814550Y-8504000D01*
X16986000Y-8675450D01*
X17542000Y-5529450D02*
X17713450Y-5358000D01*
X17542000Y-5186550D01*
X17370550Y-5358000D01*
X17542000Y-5529450D01*
X19871000Y-8675450D02*
X20042450Y-8504000D01*
X19871000Y-8332550D01*
X19699550Y-8504000D01*
X19871000Y-8675450D01*
X20439000Y-5517450D02*
X20610450Y-5346000D01*
X20439000Y-5174550D01*
X20267550Y-5346000D01*
X20439000Y-5517450D01*
X22792000Y-8675450D02*
X22963450Y-8504000D01*
X22792000Y-8332550D01*
X22620550Y-8504000D01*
X22792000Y-8675450D01*
X23336000Y-5541450D02*
X23507450Y-5370000D01*
X23336000Y-5198550D01*
X23164550Y-5370000D01*
X23336000Y-5541450D01*
D17*
X4380000Y-3020000D02*
X5020000Y-3660000D01*
X5020000Y-3020000D02*
X4380000Y-3660000D01*
X5020000Y-3340000D02*
G75*
G02*
X4380000Y-3340000I-320000J0D01*
G01*
X4380000Y-3340000D02*
G75*
G02*
X5020000Y-3340000I320000J0D01*
G01*
X4380000Y-13980000D02*
X5020000Y-14620000D01*
X5020000Y-13980000D02*
X4380000Y-14620000D01*
X5020000Y-14300000D02*
G75*
G02*
X4380000Y-14300000I-320000J0D01*
G01*
X4380000Y-14300000D02*
G75*
G02*
X5020000Y-14300000I320000J0D01*
G01*
X13030000Y-7480000D02*
X13670000Y-8120000D01*
X13670000Y-7480000D02*
X13030000Y-8120000D01*
X13670000Y-7800000D02*
G75*
G02*
X13030000Y-7800000I-320000J0D01*
G01*
X13030000Y-7800000D02*
G75*
G02*
X13670000Y-7800000I320000J0D01*
G01*
X14680000Y-13980000D02*
X15320000Y-14620000D01*
X15320000Y-13980000D02*
X14680000Y-14620000D01*
X15320000Y-14300000D02*
G75*
G02*
X14680000Y-14300000I-320000J0D01*
G01*
X14680000Y-14300000D02*
G75*
G02*
X15320000Y-14300000I320000J0D01*
G01*
X15640000Y-3020000D02*
X16280000Y-3660000D01*
X16280000Y-3020000D02*
X15640000Y-3660000D01*
X16280000Y-3340000D02*
G75*
G02*
X15640000Y-3340000I-320000J0D01*
G01*
X15640000Y-3340000D02*
G75*
G02*
X16280000Y-3340000I320000J0D01*
G01*
X23980000Y-3020000D02*
X24620000Y-3660000D01*
X24620000Y-3020000D02*
X23980000Y-3660000D01*
X24620000Y-3340000D02*
G75*
G02*
X23980000Y-3340000I-320000J0D01*
G01*
X23980000Y-3340000D02*
G75*
G02*
X24620000Y-3340000I320000J0D01*
G01*
X23980000Y-13980000D02*
X24620000Y-14620000D01*
X24620000Y-13980000D02*
X23980000Y-14620000D01*
X24620000Y-14300000D02*
G75*
G02*
X23980000Y-14300000I-320000J0D01*
G01*
X23980000Y-14300000D02*
G75*
G02*
X24620000Y-14300000I320000J0D01*
G01*
D11*
X4258277Y-15313984D02*
X4258277Y-15113984D01*
X4258277Y-15113984D02*
X4305896Y-15113984D01*
X4305896Y-15113984D02*
X4334467Y-15123508D01*
X4334467Y-15123508D02*
X4353515Y-15142555D01*
X4353515Y-15142555D02*
X4363039Y-15161603D01*
X4363039Y-15161603D02*
X4372563Y-15199698D01*
X4372563Y-15199698D02*
X4372563Y-15228269D01*
X4372563Y-15228269D02*
X4363039Y-15266365D01*
X4363039Y-15266365D02*
X4353515Y-15285412D01*
X4353515Y-15285412D02*
X4334467Y-15304460D01*
X4334467Y-15304460D02*
X4305896Y-15313984D01*
X4305896Y-15313984D02*
X4258277Y-15313984D01*
X4458277Y-15313984D02*
X4458277Y-15180650D01*
X4458277Y-15218746D02*
X4467801Y-15199698D01*
X4467801Y-15199698D02*
X4477324Y-15190174D01*
X4477324Y-15190174D02*
X4496372Y-15180650D01*
X4496372Y-15180650D02*
X4515420Y-15180650D01*
X4582086Y-15313984D02*
X4582086Y-15180650D01*
X4582086Y-15113984D02*
X4572563Y-15123508D01*
X4572563Y-15123508D02*
X4582086Y-15133031D01*
X4582086Y-15133031D02*
X4591610Y-15123508D01*
X4591610Y-15123508D02*
X4582086Y-15113984D01*
X4582086Y-15113984D02*
X4582086Y-15133031D01*
X4705896Y-15313984D02*
X4686848Y-15304460D01*
X4686848Y-15304460D02*
X4677324Y-15285412D01*
X4677324Y-15285412D02*
X4677324Y-15113984D01*
X4810658Y-15313984D02*
X4791610Y-15304460D01*
X4791610Y-15304460D02*
X4782086Y-15285412D01*
X4782086Y-15285412D02*
X4782086Y-15113984D01*
X5039229Y-15313984D02*
X5039229Y-15113984D01*
X5039229Y-15113984D02*
X5105896Y-15256841D01*
X5105896Y-15256841D02*
X5172563Y-15113984D01*
X5172563Y-15113984D02*
X5172563Y-15313984D01*
X5353515Y-15313984D02*
X5353515Y-15209222D01*
X5353515Y-15209222D02*
X5343991Y-15190174D01*
X5343991Y-15190174D02*
X5324944Y-15180650D01*
X5324944Y-15180650D02*
X5286848Y-15180650D01*
X5286848Y-15180650D02*
X5267801Y-15190174D01*
X5353515Y-15304460D02*
X5334467Y-15313984D01*
X5334467Y-15313984D02*
X5286848Y-15313984D01*
X5286848Y-15313984D02*
X5267801Y-15304460D01*
X5267801Y-15304460D02*
X5258277Y-15285412D01*
X5258277Y-15285412D02*
X5258277Y-15266365D01*
X5258277Y-15266365D02*
X5267801Y-15247317D01*
X5267801Y-15247317D02*
X5286848Y-15237793D01*
X5286848Y-15237793D02*
X5334467Y-15237793D01*
X5334467Y-15237793D02*
X5353515Y-15228269D01*
X5448753Y-15180650D02*
X5448753Y-15380650D01*
X5448753Y-15190174D02*
X5467801Y-15180650D01*
X5467801Y-15180650D02*
X5505896Y-15180650D01*
X5505896Y-15180650D02*
X5524944Y-15190174D01*
X5524944Y-15190174D02*
X5534467Y-15199698D01*
X5534467Y-15199698D02*
X5543991Y-15218746D01*
X5543991Y-15218746D02*
X5543991Y-15275888D01*
X5543991Y-15275888D02*
X5534467Y-15294936D01*
X5534467Y-15294936D02*
X5524944Y-15304460D01*
X5524944Y-15304460D02*
X5505896Y-15313984D01*
X5505896Y-15313984D02*
X5467801Y-15313984D01*
X5467801Y-15313984D02*
X5448753Y-15304460D01*
X5629705Y-15294936D02*
X5639229Y-15304460D01*
X5639229Y-15304460D02*
X5629705Y-15313984D01*
X5629705Y-15313984D02*
X5620182Y-15304460D01*
X5620182Y-15304460D02*
X5629705Y-15294936D01*
X5629705Y-15294936D02*
X5629705Y-15313984D01*
X5629705Y-15190174D02*
X5639229Y-15199698D01*
X5639229Y-15199698D02*
X5629705Y-15209222D01*
X5629705Y-15209222D02*
X5620182Y-15199698D01*
X5620182Y-15199698D02*
X5629705Y-15190174D01*
X5629705Y-15190174D02*
X5629705Y-15209222D01*
D12*
X3932500Y-15610000D02*
X3997500Y-15675000D01*
X3997500Y-15610000D02*
X3932500Y-15675000D01*
D11*
X4296372Y-15533984D02*
X4315420Y-15533984D01*
X4315420Y-15533984D02*
X4334467Y-15543508D01*
X4334467Y-15543508D02*
X4343991Y-15553031D01*
X4343991Y-15553031D02*
X4353515Y-15572079D01*
X4353515Y-15572079D02*
X4363039Y-15610174D01*
X4363039Y-15610174D02*
X4363039Y-15657793D01*
X4363039Y-15657793D02*
X4353515Y-15695888D01*
X4353515Y-15695888D02*
X4343991Y-15714936D01*
X4343991Y-15714936D02*
X4334467Y-15724460D01*
X4334467Y-15724460D02*
X4315420Y-15733984D01*
X4315420Y-15733984D02*
X4296372Y-15733984D01*
X4296372Y-15733984D02*
X4277324Y-15724460D01*
X4277324Y-15724460D02*
X4267801Y-15714936D01*
X4267801Y-15714936D02*
X4258277Y-15695888D01*
X4258277Y-15695888D02*
X4248753Y-15657793D01*
X4248753Y-15657793D02*
X4248753Y-15610174D01*
X4248753Y-15610174D02*
X4258277Y-15572079D01*
X4258277Y-15572079D02*
X4267801Y-15553031D01*
X4267801Y-15553031D02*
X4277324Y-15543508D01*
X4277324Y-15543508D02*
X4296372Y-15533984D01*
X4448753Y-15714936D02*
X4458277Y-15724460D01*
X4458277Y-15724460D02*
X4448753Y-15733984D01*
X4448753Y-15733984D02*
X4439229Y-15724460D01*
X4439229Y-15724460D02*
X4448753Y-15714936D01*
X4448753Y-15714936D02*
X4448753Y-15733984D01*
X4629705Y-15533984D02*
X4591610Y-15533984D01*
X4591610Y-15533984D02*
X4572563Y-15543508D01*
X4572563Y-15543508D02*
X4563039Y-15553031D01*
X4563039Y-15553031D02*
X4543991Y-15581603D01*
X4543991Y-15581603D02*
X4534467Y-15619698D01*
X4534467Y-15619698D02*
X4534467Y-15695888D01*
X4534467Y-15695888D02*
X4543991Y-15714936D01*
X4543991Y-15714936D02*
X4553515Y-15724460D01*
X4553515Y-15724460D02*
X4572563Y-15733984D01*
X4572563Y-15733984D02*
X4610658Y-15733984D01*
X4610658Y-15733984D02*
X4629705Y-15724460D01*
X4629705Y-15724460D02*
X4639229Y-15714936D01*
X4639229Y-15714936D02*
X4648753Y-15695888D01*
X4648753Y-15695888D02*
X4648753Y-15648269D01*
X4648753Y-15648269D02*
X4639229Y-15629222D01*
X4639229Y-15629222D02*
X4629705Y-15619698D01*
X4629705Y-15619698D02*
X4610658Y-15610174D01*
X4610658Y-15610174D02*
X4572563Y-15610174D01*
X4572563Y-15610174D02*
X4553515Y-15619698D01*
X4553515Y-15619698D02*
X4543991Y-15629222D01*
X4543991Y-15629222D02*
X4534467Y-15648269D01*
X4829705Y-15533984D02*
X4734467Y-15533984D01*
X4734467Y-15533984D02*
X4724944Y-15629222D01*
X4724944Y-15629222D02*
X4734467Y-15619698D01*
X4734467Y-15619698D02*
X4753515Y-15610174D01*
X4753515Y-15610174D02*
X4801134Y-15610174D01*
X4801134Y-15610174D02*
X4820182Y-15619698D01*
X4820182Y-15619698D02*
X4829705Y-15629222D01*
X4829705Y-15629222D02*
X4839229Y-15648269D01*
X4839229Y-15648269D02*
X4839229Y-15695888D01*
X4839229Y-15695888D02*
X4829705Y-15714936D01*
X4829705Y-15714936D02*
X4820182Y-15724460D01*
X4820182Y-15724460D02*
X4801134Y-15733984D01*
X4801134Y-15733984D02*
X4753515Y-15733984D01*
X4753515Y-15733984D02*
X4734467Y-15724460D01*
X4734467Y-15724460D02*
X4724944Y-15714936D01*
X4963039Y-15533984D02*
X4982086Y-15533984D01*
X4982086Y-15533984D02*
X5001134Y-15543508D01*
X5001134Y-15543508D02*
X5010658Y-15553031D01*
X5010658Y-15553031D02*
X5020182Y-15572079D01*
X5020182Y-15572079D02*
X5029705Y-15610174D01*
X5029705Y-15610174D02*
X5029705Y-15657793D01*
X5029705Y-15657793D02*
X5020182Y-15695888D01*
X5020182Y-15695888D02*
X5010658Y-15714936D01*
X5010658Y-15714936D02*
X5001134Y-15724460D01*
X5001134Y-15724460D02*
X4982086Y-15733984D01*
X4982086Y-15733984D02*
X4963039Y-15733984D01*
X4963039Y-15733984D02*
X4943991Y-15724460D01*
X4943991Y-15724460D02*
X4934467Y-15714936D01*
X4934467Y-15714936D02*
X4924944Y-15695888D01*
X4924944Y-15695888D02*
X4915420Y-15657793D01*
X4915420Y-15657793D02*
X4915420Y-15610174D01*
X4915420Y-15610174D02*
X4924944Y-15572079D01*
X4924944Y-15572079D02*
X4934467Y-15553031D01*
X4934467Y-15553031D02*
X4943991Y-15543508D01*
X4943991Y-15543508D02*
X4963039Y-15533984D01*
X5115420Y-15733984D02*
X5115420Y-15600650D01*
X5115420Y-15619698D02*
X5124944Y-15610174D01*
X5124944Y-15610174D02*
X5143991Y-15600650D01*
X5143991Y-15600650D02*
X5172563Y-15600650D01*
X5172563Y-15600650D02*
X5191610Y-15610174D01*
X5191610Y-15610174D02*
X5201134Y-15629222D01*
X5201134Y-15629222D02*
X5201134Y-15733984D01*
X5201134Y-15629222D02*
X5210658Y-15610174D01*
X5210658Y-15610174D02*
X5229705Y-15600650D01*
X5229705Y-15600650D02*
X5258277Y-15600650D01*
X5258277Y-15600650D02*
X5277325Y-15610174D01*
X5277325Y-15610174D02*
X5286848Y-15629222D01*
X5286848Y-15629222D02*
X5286848Y-15733984D01*
X5382086Y-15733984D02*
X5382086Y-15600650D01*
X5382086Y-15619698D02*
X5391610Y-15610174D01*
X5391610Y-15610174D02*
X5410658Y-15600650D01*
X5410658Y-15600650D02*
X5439229Y-15600650D01*
X5439229Y-15600650D02*
X5458277Y-15610174D01*
X5458277Y-15610174D02*
X5467801Y-15629222D01*
X5467801Y-15629222D02*
X5467801Y-15733984D01*
X5467801Y-15629222D02*
X5477325Y-15610174D01*
X5477325Y-15610174D02*
X5496372Y-15600650D01*
X5496372Y-15600650D02*
X5524944Y-15600650D01*
X5524944Y-15600650D02*
X5543991Y-15610174D01*
X5543991Y-15610174D02*
X5553515Y-15629222D01*
X5553515Y-15629222D02*
X5553515Y-15733984D01*
X5943991Y-15524460D02*
X5772563Y-15781603D01*
X6201134Y-15533984D02*
X6220182Y-15533984D01*
X6220182Y-15533984D02*
X6239229Y-15543508D01*
X6239229Y-15543508D02*
X6248753Y-15553031D01*
X6248753Y-15553031D02*
X6258277Y-15572079D01*
X6258277Y-15572079D02*
X6267801Y-15610174D01*
X6267801Y-15610174D02*
X6267801Y-15657793D01*
X6267801Y-15657793D02*
X6258277Y-15695888D01*
X6258277Y-15695888D02*
X6248753Y-15714936D01*
X6248753Y-15714936D02*
X6239229Y-15724460D01*
X6239229Y-15724460D02*
X6220182Y-15733984D01*
X6220182Y-15733984D02*
X6201134Y-15733984D01*
X6201134Y-15733984D02*
X6182086Y-15724460D01*
X6182086Y-15724460D02*
X6172563Y-15714936D01*
X6172563Y-15714936D02*
X6163039Y-15695888D01*
X6163039Y-15695888D02*
X6153515Y-15657793D01*
X6153515Y-15657793D02*
X6153515Y-15610174D01*
X6153515Y-15610174D02*
X6163039Y-15572079D01*
X6163039Y-15572079D02*
X6172563Y-15553031D01*
X6172563Y-15553031D02*
X6182086Y-15543508D01*
X6182086Y-15543508D02*
X6201134Y-15533984D01*
X6353515Y-15714936D02*
X6363039Y-15724460D01*
X6363039Y-15724460D02*
X6353515Y-15733984D01*
X6353515Y-15733984D02*
X6343991Y-15724460D01*
X6343991Y-15724460D02*
X6353515Y-15714936D01*
X6353515Y-15714936D02*
X6353515Y-15733984D01*
X6486848Y-15533984D02*
X6505896Y-15533984D01*
X6505896Y-15533984D02*
X6524944Y-15543508D01*
X6524944Y-15543508D02*
X6534467Y-15553031D01*
X6534467Y-15553031D02*
X6543991Y-15572079D01*
X6543991Y-15572079D02*
X6553515Y-15610174D01*
X6553515Y-15610174D02*
X6553515Y-15657793D01*
X6553515Y-15657793D02*
X6543991Y-15695888D01*
X6543991Y-15695888D02*
X6534467Y-15714936D01*
X6534467Y-15714936D02*
X6524944Y-15724460D01*
X6524944Y-15724460D02*
X6505896Y-15733984D01*
X6505896Y-15733984D02*
X6486848Y-15733984D01*
X6486848Y-15733984D02*
X6467801Y-15724460D01*
X6467801Y-15724460D02*
X6458277Y-15714936D01*
X6458277Y-15714936D02*
X6448753Y-15695888D01*
X6448753Y-15695888D02*
X6439229Y-15657793D01*
X6439229Y-15657793D02*
X6439229Y-15610174D01*
X6439229Y-15610174D02*
X6448753Y-15572079D01*
X6448753Y-15572079D02*
X6458277Y-15553031D01*
X6458277Y-15553031D02*
X6467801Y-15543508D01*
X6467801Y-15543508D02*
X6486848Y-15533984D01*
X6629706Y-15553031D02*
X6639229Y-15543508D01*
X6639229Y-15543508D02*
X6658277Y-15533984D01*
X6658277Y-15533984D02*
X6705896Y-15533984D01*
X6705896Y-15533984D02*
X6724944Y-15543508D01*
X6724944Y-15543508D02*
X6734467Y-15553031D01*
X6734467Y-15553031D02*
X6743991Y-15572079D01*
X6743991Y-15572079D02*
X6743991Y-15591127D01*
X6743991Y-15591127D02*
X6734467Y-15619698D01*
X6734467Y-15619698D02*
X6620182Y-15733984D01*
X6620182Y-15733984D02*
X6743991Y-15733984D01*
X6924944Y-15533984D02*
X6829706Y-15533984D01*
X6829706Y-15533984D02*
X6820182Y-15629222D01*
X6820182Y-15629222D02*
X6829706Y-15619698D01*
X6829706Y-15619698D02*
X6848753Y-15610174D01*
X6848753Y-15610174D02*
X6896372Y-15610174D01*
X6896372Y-15610174D02*
X6915420Y-15619698D01*
X6915420Y-15619698D02*
X6924944Y-15629222D01*
X6924944Y-15629222D02*
X6934467Y-15648269D01*
X6934467Y-15648269D02*
X6934467Y-15695888D01*
X6934467Y-15695888D02*
X6924944Y-15714936D01*
X6924944Y-15714936D02*
X6915420Y-15724460D01*
X6915420Y-15724460D02*
X6896372Y-15733984D01*
X6896372Y-15733984D02*
X6848753Y-15733984D01*
X6848753Y-15733984D02*
X6829706Y-15724460D01*
X6829706Y-15724460D02*
X6820182Y-15714936D01*
X7105896Y-15533984D02*
X7067801Y-15533984D01*
X7067801Y-15533984D02*
X7048753Y-15543508D01*
X7048753Y-15543508D02*
X7039229Y-15553031D01*
X7039229Y-15553031D02*
X7020182Y-15581603D01*
X7020182Y-15581603D02*
X7010658Y-15619698D01*
X7010658Y-15619698D02*
X7010658Y-15695888D01*
X7010658Y-15695888D02*
X7020182Y-15714936D01*
X7020182Y-15714936D02*
X7029706Y-15724460D01*
X7029706Y-15724460D02*
X7048753Y-15733984D01*
X7048753Y-15733984D02*
X7086848Y-15733984D01*
X7086848Y-15733984D02*
X7105896Y-15724460D01*
X7105896Y-15724460D02*
X7115420Y-15714936D01*
X7115420Y-15714936D02*
X7124944Y-15695888D01*
X7124944Y-15695888D02*
X7124944Y-15648269D01*
X7124944Y-15648269D02*
X7115420Y-15629222D01*
X7115420Y-15629222D02*
X7105896Y-15619698D01*
X7105896Y-15619698D02*
X7086848Y-15610174D01*
X7086848Y-15610174D02*
X7048753Y-15610174D01*
X7048753Y-15610174D02*
X7029706Y-15619698D01*
X7029706Y-15619698D02*
X7020182Y-15629222D01*
X7020182Y-15629222D02*
X7010658Y-15648269D01*
X7201134Y-15533984D02*
X7201134Y-15572079D01*
X7277325Y-15533984D02*
X7277325Y-15572079D01*
X7572563Y-15810174D02*
X7563039Y-15800650D01*
X7563039Y-15800650D02*
X7543991Y-15772079D01*
X7543991Y-15772079D02*
X7534468Y-15753031D01*
X7534468Y-15753031D02*
X7524944Y-15724460D01*
X7524944Y-15724460D02*
X7515420Y-15676841D01*
X7515420Y-15676841D02*
X7515420Y-15638746D01*
X7515420Y-15638746D02*
X7524944Y-15591127D01*
X7524944Y-15591127D02*
X7534468Y-15562555D01*
X7534468Y-15562555D02*
X7543991Y-15543508D01*
X7543991Y-15543508D02*
X7563039Y-15514936D01*
X7563039Y-15514936D02*
X7572563Y-15505412D01*
X7639229Y-15553031D02*
X7648753Y-15543508D01*
X7648753Y-15543508D02*
X7667801Y-15533984D01*
X7667801Y-15533984D02*
X7715420Y-15533984D01*
X7715420Y-15533984D02*
X7734468Y-15543508D01*
X7734468Y-15543508D02*
X7743991Y-15553031D01*
X7743991Y-15553031D02*
X7753515Y-15572079D01*
X7753515Y-15572079D02*
X7753515Y-15591127D01*
X7753515Y-15591127D02*
X7743991Y-15619698D01*
X7743991Y-15619698D02*
X7629706Y-15733984D01*
X7629706Y-15733984D02*
X7753515Y-15733984D01*
X7991610Y-15733984D02*
X7991610Y-15533984D01*
X8077325Y-15733984D02*
X8077325Y-15629222D01*
X8077325Y-15629222D02*
X8067801Y-15610174D01*
X8067801Y-15610174D02*
X8048753Y-15600650D01*
X8048753Y-15600650D02*
X8020182Y-15600650D01*
X8020182Y-15600650D02*
X8001134Y-15610174D01*
X8001134Y-15610174D02*
X7991610Y-15619698D01*
X8201134Y-15733984D02*
X8182087Y-15724460D01*
X8182087Y-15724460D02*
X8172563Y-15714936D01*
X8172563Y-15714936D02*
X8163039Y-15695888D01*
X8163039Y-15695888D02*
X8163039Y-15638746D01*
X8163039Y-15638746D02*
X8172563Y-15619698D01*
X8172563Y-15619698D02*
X8182087Y-15610174D01*
X8182087Y-15610174D02*
X8201134Y-15600650D01*
X8201134Y-15600650D02*
X8229706Y-15600650D01*
X8229706Y-15600650D02*
X8248753Y-15610174D01*
X8248753Y-15610174D02*
X8258277Y-15619698D01*
X8258277Y-15619698D02*
X8267801Y-15638746D01*
X8267801Y-15638746D02*
X8267801Y-15695888D01*
X8267801Y-15695888D02*
X8258277Y-15714936D01*
X8258277Y-15714936D02*
X8248753Y-15724460D01*
X8248753Y-15724460D02*
X8229706Y-15733984D01*
X8229706Y-15733984D02*
X8201134Y-15733984D01*
X8382087Y-15733984D02*
X8363039Y-15724460D01*
X8363039Y-15724460D02*
X8353515Y-15705412D01*
X8353515Y-15705412D02*
X8353515Y-15533984D01*
X8534468Y-15724460D02*
X8515420Y-15733984D01*
X8515420Y-15733984D02*
X8477325Y-15733984D01*
X8477325Y-15733984D02*
X8458277Y-15724460D01*
X8458277Y-15724460D02*
X8448753Y-15705412D01*
X8448753Y-15705412D02*
X8448753Y-15629222D01*
X8448753Y-15629222D02*
X8458277Y-15610174D01*
X8458277Y-15610174D02*
X8477325Y-15600650D01*
X8477325Y-15600650D02*
X8515420Y-15600650D01*
X8515420Y-15600650D02*
X8534468Y-15610174D01*
X8534468Y-15610174D02*
X8543992Y-15629222D01*
X8543992Y-15629222D02*
X8543992Y-15648269D01*
X8543992Y-15648269D02*
X8448753Y-15667317D01*
X8620182Y-15724460D02*
X8639230Y-15733984D01*
X8639230Y-15733984D02*
X8677325Y-15733984D01*
X8677325Y-15733984D02*
X8696373Y-15724460D01*
X8696373Y-15724460D02*
X8705896Y-15705412D01*
X8705896Y-15705412D02*
X8705896Y-15695888D01*
X8705896Y-15695888D02*
X8696373Y-15676841D01*
X8696373Y-15676841D02*
X8677325Y-15667317D01*
X8677325Y-15667317D02*
X8648753Y-15667317D01*
X8648753Y-15667317D02*
X8629706Y-15657793D01*
X8629706Y-15657793D02*
X8620182Y-15638746D01*
X8620182Y-15638746D02*
X8620182Y-15629222D01*
X8620182Y-15629222D02*
X8629706Y-15610174D01*
X8629706Y-15610174D02*
X8648753Y-15600650D01*
X8648753Y-15600650D02*
X8677325Y-15600650D01*
X8677325Y-15600650D02*
X8696373Y-15610174D01*
X8772563Y-15810174D02*
X8782087Y-15800650D01*
X8782087Y-15800650D02*
X8801134Y-15772079D01*
X8801134Y-15772079D02*
X8810658Y-15753031D01*
X8810658Y-15753031D02*
X8820182Y-15724460D01*
X8820182Y-15724460D02*
X8829706Y-15676841D01*
X8829706Y-15676841D02*
X8829706Y-15638746D01*
X8829706Y-15638746D02*
X8820182Y-15591127D01*
X8820182Y-15591127D02*
X8810658Y-15562555D01*
X8810658Y-15562555D02*
X8801134Y-15543508D01*
X8801134Y-15543508D02*
X8782087Y-15514936D01*
X8782087Y-15514936D02*
X8772563Y-15505412D01*
X9134468Y-15810174D02*
X9124944Y-15800650D01*
X9124944Y-15800650D02*
X9105896Y-15772079D01*
X9105896Y-15772079D02*
X9096373Y-15753031D01*
X9096373Y-15753031D02*
X9086849Y-15724460D01*
X9086849Y-15724460D02*
X9077325Y-15676841D01*
X9077325Y-15676841D02*
X9077325Y-15638746D01*
X9077325Y-15638746D02*
X9086849Y-15591127D01*
X9086849Y-15591127D02*
X9096373Y-15562555D01*
X9096373Y-15562555D02*
X9105896Y-15543508D01*
X9105896Y-15543508D02*
X9124944Y-15514936D01*
X9124944Y-15514936D02*
X9134468Y-15505412D01*
X9210658Y-15600650D02*
X9210658Y-15733984D01*
X9210658Y-15619698D02*
X9220182Y-15610174D01*
X9220182Y-15610174D02*
X9239230Y-15600650D01*
X9239230Y-15600650D02*
X9267801Y-15600650D01*
X9267801Y-15600650D02*
X9286849Y-15610174D01*
X9286849Y-15610174D02*
X9296373Y-15629222D01*
X9296373Y-15629222D02*
X9296373Y-15733984D01*
X9420182Y-15733984D02*
X9401134Y-15724460D01*
X9401134Y-15724460D02*
X9391611Y-15714936D01*
X9391611Y-15714936D02*
X9382087Y-15695888D01*
X9382087Y-15695888D02*
X9382087Y-15638746D01*
X9382087Y-15638746D02*
X9391611Y-15619698D01*
X9391611Y-15619698D02*
X9401134Y-15610174D01*
X9401134Y-15610174D02*
X9420182Y-15600650D01*
X9420182Y-15600650D02*
X9448754Y-15600650D01*
X9448754Y-15600650D02*
X9467801Y-15610174D01*
X9467801Y-15610174D02*
X9477325Y-15619698D01*
X9477325Y-15619698D02*
X9486849Y-15638746D01*
X9486849Y-15638746D02*
X9486849Y-15695888D01*
X9486849Y-15695888D02*
X9477325Y-15714936D01*
X9477325Y-15714936D02*
X9467801Y-15724460D01*
X9467801Y-15724460D02*
X9448754Y-15733984D01*
X9448754Y-15733984D02*
X9420182Y-15733984D01*
X9543992Y-15600650D02*
X9620182Y-15600650D01*
X9572563Y-15533984D02*
X9572563Y-15705412D01*
X9572563Y-15705412D02*
X9582087Y-15724460D01*
X9582087Y-15724460D02*
X9601134Y-15733984D01*
X9601134Y-15733984D02*
X9620182Y-15733984D01*
X9839230Y-15600650D02*
X9839230Y-15800650D01*
X9839230Y-15610174D02*
X9858277Y-15600650D01*
X9858277Y-15600650D02*
X9896373Y-15600650D01*
X9896373Y-15600650D02*
X9915420Y-15610174D01*
X9915420Y-15610174D02*
X9924944Y-15619698D01*
X9924944Y-15619698D02*
X9934468Y-15638746D01*
X9934468Y-15638746D02*
X9934468Y-15695888D01*
X9934468Y-15695888D02*
X9924944Y-15714936D01*
X9924944Y-15714936D02*
X9915420Y-15724460D01*
X9915420Y-15724460D02*
X9896373Y-15733984D01*
X9896373Y-15733984D02*
X9858277Y-15733984D01*
X9858277Y-15733984D02*
X9839230Y-15724460D01*
X10048754Y-15733984D02*
X10029706Y-15724460D01*
X10029706Y-15724460D02*
X10020182Y-15705412D01*
X10020182Y-15705412D02*
X10020182Y-15533984D01*
X10210658Y-15733984D02*
X10210658Y-15629222D01*
X10210658Y-15629222D02*
X10201135Y-15610174D01*
X10201135Y-15610174D02*
X10182087Y-15600650D01*
X10182087Y-15600650D02*
X10143992Y-15600650D01*
X10143992Y-15600650D02*
X10124944Y-15610174D01*
X10210658Y-15724460D02*
X10191611Y-15733984D01*
X10191611Y-15733984D02*
X10143992Y-15733984D01*
X10143992Y-15733984D02*
X10124944Y-15724460D01*
X10124944Y-15724460D02*
X10115420Y-15705412D01*
X10115420Y-15705412D02*
X10115420Y-15686365D01*
X10115420Y-15686365D02*
X10124944Y-15667317D01*
X10124944Y-15667317D02*
X10143992Y-15657793D01*
X10143992Y-15657793D02*
X10191611Y-15657793D01*
X10191611Y-15657793D02*
X10210658Y-15648269D01*
X10277325Y-15600650D02*
X10353515Y-15600650D01*
X10305896Y-15533984D02*
X10305896Y-15705412D01*
X10305896Y-15705412D02*
X10315420Y-15724460D01*
X10315420Y-15724460D02*
X10334468Y-15733984D01*
X10334468Y-15733984D02*
X10353515Y-15733984D01*
X10496373Y-15724460D02*
X10477325Y-15733984D01*
X10477325Y-15733984D02*
X10439230Y-15733984D01*
X10439230Y-15733984D02*
X10420182Y-15724460D01*
X10420182Y-15724460D02*
X10410658Y-15705412D01*
X10410658Y-15705412D02*
X10410658Y-15629222D01*
X10410658Y-15629222D02*
X10420182Y-15610174D01*
X10420182Y-15610174D02*
X10439230Y-15600650D01*
X10439230Y-15600650D02*
X10477325Y-15600650D01*
X10477325Y-15600650D02*
X10496373Y-15610174D01*
X10496373Y-15610174D02*
X10505896Y-15629222D01*
X10505896Y-15629222D02*
X10505896Y-15648269D01*
X10505896Y-15648269D02*
X10410658Y-15667317D01*
X10677325Y-15733984D02*
X10677325Y-15533984D01*
X10677325Y-15724460D02*
X10658277Y-15733984D01*
X10658277Y-15733984D02*
X10620182Y-15733984D01*
X10620182Y-15733984D02*
X10601135Y-15724460D01*
X10601135Y-15724460D02*
X10591611Y-15714936D01*
X10591611Y-15714936D02*
X10582087Y-15695888D01*
X10582087Y-15695888D02*
X10582087Y-15638746D01*
X10582087Y-15638746D02*
X10591611Y-15619698D01*
X10591611Y-15619698D02*
X10601135Y-15610174D01*
X10601135Y-15610174D02*
X10620182Y-15600650D01*
X10620182Y-15600650D02*
X10658277Y-15600650D01*
X10658277Y-15600650D02*
X10677325Y-15610174D01*
X10753516Y-15810174D02*
X10763039Y-15800650D01*
X10763039Y-15800650D02*
X10782087Y-15772079D01*
X10782087Y-15772079D02*
X10791611Y-15753031D01*
X10791611Y-15753031D02*
X10801135Y-15724460D01*
X10801135Y-15724460D02*
X10810658Y-15676841D01*
X10810658Y-15676841D02*
X10810658Y-15638746D01*
X10810658Y-15638746D02*
X10801135Y-15591127D01*
X10801135Y-15591127D02*
X10791611Y-15562555D01*
X10791611Y-15562555D02*
X10782087Y-15543508D01*
X10782087Y-15543508D02*
X10763039Y-15514936D01*
X10763039Y-15514936D02*
X10753516Y-15505412D01*
D13*
X3997500Y-15906500D02*
G75*
G02*
X3827320Y-15906500I-85090J0D01*
G01*
X3827320Y-15906500D02*
G75*
G02*
X3997500Y-15906500I85090J0D01*
G01*
D11*
X4363039Y-15997984D02*
X4248753Y-15997984D01*
X4305896Y-15997984D02*
X4305896Y-15797984D01*
X4305896Y-15797984D02*
X4286848Y-15826555D01*
X4286848Y-15826555D02*
X4267801Y-15845603D01*
X4267801Y-15845603D02*
X4248753Y-15855127D01*
X4448753Y-15978936D02*
X4458277Y-15988460D01*
X4458277Y-15988460D02*
X4448753Y-15997984D01*
X4448753Y-15997984D02*
X4439229Y-15988460D01*
X4439229Y-15988460D02*
X4448753Y-15978936D01*
X4448753Y-15978936D02*
X4448753Y-15997984D01*
X4524944Y-15797984D02*
X4658277Y-15797984D01*
X4658277Y-15797984D02*
X4572563Y-15997984D01*
X4772563Y-15797984D02*
X4791610Y-15797984D01*
X4791610Y-15797984D02*
X4810658Y-15807508D01*
X4810658Y-15807508D02*
X4820182Y-15817031D01*
X4820182Y-15817031D02*
X4829705Y-15836079D01*
X4829705Y-15836079D02*
X4839229Y-15874174D01*
X4839229Y-15874174D02*
X4839229Y-15921793D01*
X4839229Y-15921793D02*
X4829705Y-15959888D01*
X4829705Y-15959888D02*
X4820182Y-15978936D01*
X4820182Y-15978936D02*
X4810658Y-15988460D01*
X4810658Y-15988460D02*
X4791610Y-15997984D01*
X4791610Y-15997984D02*
X4772563Y-15997984D01*
X4772563Y-15997984D02*
X4753515Y-15988460D01*
X4753515Y-15988460D02*
X4743991Y-15978936D01*
X4743991Y-15978936D02*
X4734467Y-15959888D01*
X4734467Y-15959888D02*
X4724944Y-15921793D01*
X4724944Y-15921793D02*
X4724944Y-15874174D01*
X4724944Y-15874174D02*
X4734467Y-15836079D01*
X4734467Y-15836079D02*
X4743991Y-15817031D01*
X4743991Y-15817031D02*
X4753515Y-15807508D01*
X4753515Y-15807508D02*
X4772563Y-15797984D01*
X4915420Y-15817031D02*
X4924944Y-15807508D01*
X4924944Y-15807508D02*
X4943991Y-15797984D01*
X4943991Y-15797984D02*
X4991610Y-15797984D01*
X4991610Y-15797984D02*
X5010658Y-15807508D01*
X5010658Y-15807508D02*
X5020182Y-15817031D01*
X5020182Y-15817031D02*
X5029705Y-15836079D01*
X5029705Y-15836079D02*
X5029705Y-15855127D01*
X5029705Y-15855127D02*
X5020182Y-15883698D01*
X5020182Y-15883698D02*
X4905896Y-15997984D01*
X4905896Y-15997984D02*
X5029705Y-15997984D01*
X5115420Y-15997984D02*
X5115420Y-15864650D01*
X5115420Y-15883698D02*
X5124944Y-15874174D01*
X5124944Y-15874174D02*
X5143991Y-15864650D01*
X5143991Y-15864650D02*
X5172563Y-15864650D01*
X5172563Y-15864650D02*
X5191610Y-15874174D01*
X5191610Y-15874174D02*
X5201134Y-15893222D01*
X5201134Y-15893222D02*
X5201134Y-15997984D01*
X5201134Y-15893222D02*
X5210658Y-15874174D01*
X5210658Y-15874174D02*
X5229705Y-15864650D01*
X5229705Y-15864650D02*
X5258277Y-15864650D01*
X5258277Y-15864650D02*
X5277325Y-15874174D01*
X5277325Y-15874174D02*
X5286848Y-15893222D01*
X5286848Y-15893222D02*
X5286848Y-15997984D01*
X5382086Y-15997984D02*
X5382086Y-15864650D01*
X5382086Y-15883698D02*
X5391610Y-15874174D01*
X5391610Y-15874174D02*
X5410658Y-15864650D01*
X5410658Y-15864650D02*
X5439229Y-15864650D01*
X5439229Y-15864650D02*
X5458277Y-15874174D01*
X5458277Y-15874174D02*
X5467801Y-15893222D01*
X5467801Y-15893222D02*
X5467801Y-15997984D01*
X5467801Y-15893222D02*
X5477325Y-15874174D01*
X5477325Y-15874174D02*
X5496372Y-15864650D01*
X5496372Y-15864650D02*
X5524944Y-15864650D01*
X5524944Y-15864650D02*
X5543991Y-15874174D01*
X5543991Y-15874174D02*
X5553515Y-15893222D01*
X5553515Y-15893222D02*
X5553515Y-15997984D01*
X5943991Y-15788460D02*
X5772563Y-16045603D01*
X6201134Y-15797984D02*
X6220182Y-15797984D01*
X6220182Y-15797984D02*
X6239229Y-15807508D01*
X6239229Y-15807508D02*
X6248753Y-15817031D01*
X6248753Y-15817031D02*
X6258277Y-15836079D01*
X6258277Y-15836079D02*
X6267801Y-15874174D01*
X6267801Y-15874174D02*
X6267801Y-15921793D01*
X6267801Y-15921793D02*
X6258277Y-15959888D01*
X6258277Y-15959888D02*
X6248753Y-15978936D01*
X6248753Y-15978936D02*
X6239229Y-15988460D01*
X6239229Y-15988460D02*
X6220182Y-15997984D01*
X6220182Y-15997984D02*
X6201134Y-15997984D01*
X6201134Y-15997984D02*
X6182086Y-15988460D01*
X6182086Y-15988460D02*
X6172563Y-15978936D01*
X6172563Y-15978936D02*
X6163039Y-15959888D01*
X6163039Y-15959888D02*
X6153515Y-15921793D01*
X6153515Y-15921793D02*
X6153515Y-15874174D01*
X6153515Y-15874174D02*
X6163039Y-15836079D01*
X6163039Y-15836079D02*
X6172563Y-15817031D01*
X6172563Y-15817031D02*
X6182086Y-15807508D01*
X6182086Y-15807508D02*
X6201134Y-15797984D01*
X6353515Y-15978936D02*
X6363039Y-15988460D01*
X6363039Y-15988460D02*
X6353515Y-15997984D01*
X6353515Y-15997984D02*
X6343991Y-15988460D01*
X6343991Y-15988460D02*
X6353515Y-15978936D01*
X6353515Y-15978936D02*
X6353515Y-15997984D01*
X6486848Y-15797984D02*
X6505896Y-15797984D01*
X6505896Y-15797984D02*
X6524944Y-15807508D01*
X6524944Y-15807508D02*
X6534467Y-15817031D01*
X6534467Y-15817031D02*
X6543991Y-15836079D01*
X6543991Y-15836079D02*
X6553515Y-15874174D01*
X6553515Y-15874174D02*
X6553515Y-15921793D01*
X6553515Y-15921793D02*
X6543991Y-15959888D01*
X6543991Y-15959888D02*
X6534467Y-15978936D01*
X6534467Y-15978936D02*
X6524944Y-15988460D01*
X6524944Y-15988460D02*
X6505896Y-15997984D01*
X6505896Y-15997984D02*
X6486848Y-15997984D01*
X6486848Y-15997984D02*
X6467801Y-15988460D01*
X6467801Y-15988460D02*
X6458277Y-15978936D01*
X6458277Y-15978936D02*
X6448753Y-15959888D01*
X6448753Y-15959888D02*
X6439229Y-15921793D01*
X6439229Y-15921793D02*
X6439229Y-15874174D01*
X6439229Y-15874174D02*
X6448753Y-15836079D01*
X6448753Y-15836079D02*
X6458277Y-15817031D01*
X6458277Y-15817031D02*
X6467801Y-15807508D01*
X6467801Y-15807508D02*
X6486848Y-15797984D01*
X6724944Y-15797984D02*
X6686848Y-15797984D01*
X6686848Y-15797984D02*
X6667801Y-15807508D01*
X6667801Y-15807508D02*
X6658277Y-15817031D01*
X6658277Y-15817031D02*
X6639229Y-15845603D01*
X6639229Y-15845603D02*
X6629706Y-15883698D01*
X6629706Y-15883698D02*
X6629706Y-15959888D01*
X6629706Y-15959888D02*
X6639229Y-15978936D01*
X6639229Y-15978936D02*
X6648753Y-15988460D01*
X6648753Y-15988460D02*
X6667801Y-15997984D01*
X6667801Y-15997984D02*
X6705896Y-15997984D01*
X6705896Y-15997984D02*
X6724944Y-15988460D01*
X6724944Y-15988460D02*
X6734467Y-15978936D01*
X6734467Y-15978936D02*
X6743991Y-15959888D01*
X6743991Y-15959888D02*
X6743991Y-15912269D01*
X6743991Y-15912269D02*
X6734467Y-15893222D01*
X6734467Y-15893222D02*
X6724944Y-15883698D01*
X6724944Y-15883698D02*
X6705896Y-15874174D01*
X6705896Y-15874174D02*
X6667801Y-15874174D01*
X6667801Y-15874174D02*
X6648753Y-15883698D01*
X6648753Y-15883698D02*
X6639229Y-15893222D01*
X6639229Y-15893222D02*
X6629706Y-15912269D01*
X6810658Y-15797984D02*
X6943991Y-15797984D01*
X6943991Y-15797984D02*
X6858277Y-15997984D01*
X7058277Y-15797984D02*
X7077325Y-15797984D01*
X7077325Y-15797984D02*
X7096372Y-15807508D01*
X7096372Y-15807508D02*
X7105896Y-15817031D01*
X7105896Y-15817031D02*
X7115420Y-15836079D01*
X7115420Y-15836079D02*
X7124944Y-15874174D01*
X7124944Y-15874174D02*
X7124944Y-15921793D01*
X7124944Y-15921793D02*
X7115420Y-15959888D01*
X7115420Y-15959888D02*
X7105896Y-15978936D01*
X7105896Y-15978936D02*
X7096372Y-15988460D01*
X7096372Y-15988460D02*
X7077325Y-15997984D01*
X7077325Y-15997984D02*
X7058277Y-15997984D01*
X7058277Y-15997984D02*
X7039229Y-15988460D01*
X7039229Y-15988460D02*
X7029706Y-15978936D01*
X7029706Y-15978936D02*
X7020182Y-15959888D01*
X7020182Y-15959888D02*
X7010658Y-15921793D01*
X7010658Y-15921793D02*
X7010658Y-15874174D01*
X7010658Y-15874174D02*
X7020182Y-15836079D01*
X7020182Y-15836079D02*
X7029706Y-15817031D01*
X7029706Y-15817031D02*
X7039229Y-15807508D01*
X7039229Y-15807508D02*
X7058277Y-15797984D01*
X7201134Y-15797984D02*
X7201134Y-15836079D01*
X7277325Y-15797984D02*
X7277325Y-15836079D01*
X7572563Y-16074174D02*
X7563039Y-16064650D01*
X7563039Y-16064650D02*
X7543991Y-16036079D01*
X7543991Y-16036079D02*
X7534468Y-16017031D01*
X7534468Y-16017031D02*
X7524944Y-15988460D01*
X7524944Y-15988460D02*
X7515420Y-15940841D01*
X7515420Y-15940841D02*
X7515420Y-15902746D01*
X7515420Y-15902746D02*
X7524944Y-15855127D01*
X7524944Y-15855127D02*
X7534468Y-15826555D01*
X7534468Y-15826555D02*
X7543991Y-15807508D01*
X7543991Y-15807508D02*
X7563039Y-15778936D01*
X7563039Y-15778936D02*
X7572563Y-15769412D01*
X7639229Y-15817031D02*
X7648753Y-15807508D01*
X7648753Y-15807508D02*
X7667801Y-15797984D01*
X7667801Y-15797984D02*
X7715420Y-15797984D01*
X7715420Y-15797984D02*
X7734468Y-15807508D01*
X7734468Y-15807508D02*
X7743991Y-15817031D01*
X7743991Y-15817031D02*
X7753515Y-15836079D01*
X7753515Y-15836079D02*
X7753515Y-15855127D01*
X7753515Y-15855127D02*
X7743991Y-15883698D01*
X7743991Y-15883698D02*
X7629706Y-15997984D01*
X7629706Y-15997984D02*
X7753515Y-15997984D01*
X7924944Y-15864650D02*
X7924944Y-15997984D01*
X7877325Y-15788460D02*
X7829706Y-15931317D01*
X7829706Y-15931317D02*
X7953515Y-15931317D01*
X8182087Y-15997984D02*
X8182087Y-15797984D01*
X8267801Y-15997984D02*
X8267801Y-15893222D01*
X8267801Y-15893222D02*
X8258277Y-15874174D01*
X8258277Y-15874174D02*
X8239230Y-15864650D01*
X8239230Y-15864650D02*
X8210658Y-15864650D01*
X8210658Y-15864650D02*
X8191610Y-15874174D01*
X8191610Y-15874174D02*
X8182087Y-15883698D01*
X8391611Y-15997984D02*
X8372563Y-15988460D01*
X8372563Y-15988460D02*
X8363039Y-15978936D01*
X8363039Y-15978936D02*
X8353515Y-15959888D01*
X8353515Y-15959888D02*
X8353515Y-15902746D01*
X8353515Y-15902746D02*
X8363039Y-15883698D01*
X8363039Y-15883698D02*
X8372563Y-15874174D01*
X8372563Y-15874174D02*
X8391611Y-15864650D01*
X8391611Y-15864650D02*
X8420182Y-15864650D01*
X8420182Y-15864650D02*
X8439230Y-15874174D01*
X8439230Y-15874174D02*
X8448753Y-15883698D01*
X8448753Y-15883698D02*
X8458277Y-15902746D01*
X8458277Y-15902746D02*
X8458277Y-15959888D01*
X8458277Y-15959888D02*
X8448753Y-15978936D01*
X8448753Y-15978936D02*
X8439230Y-15988460D01*
X8439230Y-15988460D02*
X8420182Y-15997984D01*
X8420182Y-15997984D02*
X8391611Y-15997984D01*
X8572563Y-15997984D02*
X8553515Y-15988460D01*
X8553515Y-15988460D02*
X8543992Y-15969412D01*
X8543992Y-15969412D02*
X8543992Y-15797984D01*
X8724944Y-15988460D02*
X8705896Y-15997984D01*
X8705896Y-15997984D02*
X8667801Y-15997984D01*
X8667801Y-15997984D02*
X8648753Y-15988460D01*
X8648753Y-15988460D02*
X8639230Y-15969412D01*
X8639230Y-15969412D02*
X8639230Y-15893222D01*
X8639230Y-15893222D02*
X8648753Y-15874174D01*
X8648753Y-15874174D02*
X8667801Y-15864650D01*
X8667801Y-15864650D02*
X8705896Y-15864650D01*
X8705896Y-15864650D02*
X8724944Y-15874174D01*
X8724944Y-15874174D02*
X8734468Y-15893222D01*
X8734468Y-15893222D02*
X8734468Y-15912269D01*
X8734468Y-15912269D02*
X8639230Y-15931317D01*
X8810658Y-15988460D02*
X8829706Y-15997984D01*
X8829706Y-15997984D02*
X8867801Y-15997984D01*
X8867801Y-15997984D02*
X8886849Y-15988460D01*
X8886849Y-15988460D02*
X8896373Y-15969412D01*
X8896373Y-15969412D02*
X8896373Y-15959888D01*
X8896373Y-15959888D02*
X8886849Y-15940841D01*
X8886849Y-15940841D02*
X8867801Y-15931317D01*
X8867801Y-15931317D02*
X8839230Y-15931317D01*
X8839230Y-15931317D02*
X8820182Y-15921793D01*
X8820182Y-15921793D02*
X8810658Y-15902746D01*
X8810658Y-15902746D02*
X8810658Y-15893222D01*
X8810658Y-15893222D02*
X8820182Y-15874174D01*
X8820182Y-15874174D02*
X8839230Y-15864650D01*
X8839230Y-15864650D02*
X8867801Y-15864650D01*
X8867801Y-15864650D02*
X8886849Y-15874174D01*
X8963039Y-16074174D02*
X8972563Y-16064650D01*
X8972563Y-16064650D02*
X8991611Y-16036079D01*
X8991611Y-16036079D02*
X9001134Y-16017031D01*
X9001134Y-16017031D02*
X9010658Y-15988460D01*
X9010658Y-15988460D02*
X9020182Y-15940841D01*
X9020182Y-15940841D02*
X9020182Y-15902746D01*
X9020182Y-15902746D02*
X9010658Y-15855127D01*
X9010658Y-15855127D02*
X9001134Y-15826555D01*
X9001134Y-15826555D02*
X8991611Y-15807508D01*
X8991611Y-15807508D02*
X8972563Y-15778936D01*
X8972563Y-15778936D02*
X8963039Y-15769412D01*
X9324944Y-16074174D02*
X9315420Y-16064650D01*
X9315420Y-16064650D02*
X9296373Y-16036079D01*
X9296373Y-16036079D02*
X9286849Y-16017031D01*
X9286849Y-16017031D02*
X9277325Y-15988460D01*
X9277325Y-15988460D02*
X9267801Y-15940841D01*
X9267801Y-15940841D02*
X9267801Y-15902746D01*
X9267801Y-15902746D02*
X9277325Y-15855127D01*
X9277325Y-15855127D02*
X9286849Y-15826555D01*
X9286849Y-15826555D02*
X9296373Y-15807508D01*
X9296373Y-15807508D02*
X9315420Y-15778936D01*
X9315420Y-15778936D02*
X9324944Y-15769412D01*
X9401134Y-15864650D02*
X9401134Y-15997984D01*
X9401134Y-15883698D02*
X9410658Y-15874174D01*
X9410658Y-15874174D02*
X9429706Y-15864650D01*
X9429706Y-15864650D02*
X9458277Y-15864650D01*
X9458277Y-15864650D02*
X9477325Y-15874174D01*
X9477325Y-15874174D02*
X9486849Y-15893222D01*
X9486849Y-15893222D02*
X9486849Y-15997984D01*
X9610658Y-15997984D02*
X9591611Y-15988460D01*
X9591611Y-15988460D02*
X9582087Y-15978936D01*
X9582087Y-15978936D02*
X9572563Y-15959888D01*
X9572563Y-15959888D02*
X9572563Y-15902746D01*
X9572563Y-15902746D02*
X9582087Y-15883698D01*
X9582087Y-15883698D02*
X9591611Y-15874174D01*
X9591611Y-15874174D02*
X9610658Y-15864650D01*
X9610658Y-15864650D02*
X9639230Y-15864650D01*
X9639230Y-15864650D02*
X9658277Y-15874174D01*
X9658277Y-15874174D02*
X9667801Y-15883698D01*
X9667801Y-15883698D02*
X9677325Y-15902746D01*
X9677325Y-15902746D02*
X9677325Y-15959888D01*
X9677325Y-15959888D02*
X9667801Y-15978936D01*
X9667801Y-15978936D02*
X9658277Y-15988460D01*
X9658277Y-15988460D02*
X9639230Y-15997984D01*
X9639230Y-15997984D02*
X9610658Y-15997984D01*
X9734468Y-15864650D02*
X9810658Y-15864650D01*
X9763039Y-15797984D02*
X9763039Y-15969412D01*
X9763039Y-15969412D02*
X9772563Y-15988460D01*
X9772563Y-15988460D02*
X9791611Y-15997984D01*
X9791611Y-15997984D02*
X9810658Y-15997984D01*
X10029706Y-15864650D02*
X10029706Y-16064650D01*
X10029706Y-15874174D02*
X10048754Y-15864650D01*
X10048754Y-15864650D02*
X10086849Y-15864650D01*
X10086849Y-15864650D02*
X10105896Y-15874174D01*
X10105896Y-15874174D02*
X10115420Y-15883698D01*
X10115420Y-15883698D02*
X10124944Y-15902746D01*
X10124944Y-15902746D02*
X10124944Y-15959888D01*
X10124944Y-15959888D02*
X10115420Y-15978936D01*
X10115420Y-15978936D02*
X10105896Y-15988460D01*
X10105896Y-15988460D02*
X10086849Y-15997984D01*
X10086849Y-15997984D02*
X10048754Y-15997984D01*
X10048754Y-15997984D02*
X10029706Y-15988460D01*
X10239230Y-15997984D02*
X10220182Y-15988460D01*
X10220182Y-15988460D02*
X10210658Y-15969412D01*
X10210658Y-15969412D02*
X10210658Y-15797984D01*
X10401135Y-15997984D02*
X10401135Y-15893222D01*
X10401135Y-15893222D02*
X10391611Y-15874174D01*
X10391611Y-15874174D02*
X10372563Y-15864650D01*
X10372563Y-15864650D02*
X10334468Y-15864650D01*
X10334468Y-15864650D02*
X10315420Y-15874174D01*
X10401135Y-15988460D02*
X10382087Y-15997984D01*
X10382087Y-15997984D02*
X10334468Y-15997984D01*
X10334468Y-15997984D02*
X10315420Y-15988460D01*
X10315420Y-15988460D02*
X10305896Y-15969412D01*
X10305896Y-15969412D02*
X10305896Y-15950365D01*
X10305896Y-15950365D02*
X10315420Y-15931317D01*
X10315420Y-15931317D02*
X10334468Y-15921793D01*
X10334468Y-15921793D02*
X10382087Y-15921793D01*
X10382087Y-15921793D02*
X10401135Y-15912269D01*
X10467801Y-15864650D02*
X10543992Y-15864650D01*
X10496373Y-15797984D02*
X10496373Y-15969412D01*
X10496373Y-15969412D02*
X10505896Y-15988460D01*
X10505896Y-15988460D02*
X10524944Y-15997984D01*
X10524944Y-15997984D02*
X10543992Y-15997984D01*
X10686849Y-15988460D02*
X10667801Y-15997984D01*
X10667801Y-15997984D02*
X10629706Y-15997984D01*
X10629706Y-15997984D02*
X10610658Y-15988460D01*
X10610658Y-15988460D02*
X10601135Y-15969412D01*
X10601135Y-15969412D02*
X10601135Y-15893222D01*
X10601135Y-15893222D02*
X10610658Y-15874174D01*
X10610658Y-15874174D02*
X10629706Y-15864650D01*
X10629706Y-15864650D02*
X10667801Y-15864650D01*
X10667801Y-15864650D02*
X10686849Y-15874174D01*
X10686849Y-15874174D02*
X10696373Y-15893222D01*
X10696373Y-15893222D02*
X10696373Y-15912269D01*
X10696373Y-15912269D02*
X10601135Y-15931317D01*
X10867801Y-15997984D02*
X10867801Y-15797984D01*
X10867801Y-15988460D02*
X10848754Y-15997984D01*
X10848754Y-15997984D02*
X10810658Y-15997984D01*
X10810658Y-15997984D02*
X10791611Y-15988460D01*
X10791611Y-15988460D02*
X10782087Y-15978936D01*
X10782087Y-15978936D02*
X10772563Y-15959888D01*
X10772563Y-15959888D02*
X10772563Y-15902746D01*
X10772563Y-15902746D02*
X10782087Y-15883698D01*
X10782087Y-15883698D02*
X10791611Y-15874174D01*
X10791611Y-15874174D02*
X10810658Y-15864650D01*
X10810658Y-15864650D02*
X10848754Y-15864650D01*
X10848754Y-15864650D02*
X10867801Y-15874174D01*
X10943992Y-16074174D02*
X10953516Y-16064650D01*
X10953516Y-16064650D02*
X10972563Y-16036079D01*
X10972563Y-16036079D02*
X10982087Y-16017031D01*
X10982087Y-16017031D02*
X10991611Y-15988460D01*
X10991611Y-15988460D02*
X11001135Y-15940841D01*
X11001135Y-15940841D02*
X11001135Y-15902746D01*
X11001135Y-15902746D02*
X10991611Y-15855127D01*
X10991611Y-15855127D02*
X10982087Y-15826555D01*
X10982087Y-15826555D02*
X10972563Y-15807508D01*
X10972563Y-15807508D02*
X10953516Y-15778936D01*
X10953516Y-15778936D02*
X10943992Y-15769412D01*
X3897500Y-16096680D02*
X3897500Y-16296680D01*
X3797500Y-16196680D02*
X3997500Y-16196680D01*
X4248753Y-16107211D02*
X4258277Y-16097688D01*
X4258277Y-16097688D02*
X4277324Y-16088164D01*
X4277324Y-16088164D02*
X4324944Y-16088164D01*
X4324944Y-16088164D02*
X4343991Y-16097688D01*
X4343991Y-16097688D02*
X4353515Y-16107211D01*
X4353515Y-16107211D02*
X4363039Y-16126259D01*
X4363039Y-16126259D02*
X4363039Y-16145307D01*
X4363039Y-16145307D02*
X4353515Y-16173878D01*
X4353515Y-16173878D02*
X4239229Y-16288164D01*
X4239229Y-16288164D02*
X4363039Y-16288164D01*
X4448753Y-16269116D02*
X4458277Y-16278640D01*
X4458277Y-16278640D02*
X4448753Y-16288164D01*
X4448753Y-16288164D02*
X4439229Y-16278640D01*
X4439229Y-16278640D02*
X4448753Y-16269116D01*
X4448753Y-16269116D02*
X4448753Y-16288164D01*
X4534467Y-16107211D02*
X4543991Y-16097688D01*
X4543991Y-16097688D02*
X4563039Y-16088164D01*
X4563039Y-16088164D02*
X4610658Y-16088164D01*
X4610658Y-16088164D02*
X4629705Y-16097688D01*
X4629705Y-16097688D02*
X4639229Y-16107211D01*
X4639229Y-16107211D02*
X4648753Y-16126259D01*
X4648753Y-16126259D02*
X4648753Y-16145307D01*
X4648753Y-16145307D02*
X4639229Y-16173878D01*
X4639229Y-16173878D02*
X4524944Y-16288164D01*
X4524944Y-16288164D02*
X4648753Y-16288164D01*
X4772563Y-16088164D02*
X4791610Y-16088164D01*
X4791610Y-16088164D02*
X4810658Y-16097688D01*
X4810658Y-16097688D02*
X4820182Y-16107211D01*
X4820182Y-16107211D02*
X4829705Y-16126259D01*
X4829705Y-16126259D02*
X4839229Y-16164354D01*
X4839229Y-16164354D02*
X4839229Y-16211973D01*
X4839229Y-16211973D02*
X4829705Y-16250068D01*
X4829705Y-16250068D02*
X4820182Y-16269116D01*
X4820182Y-16269116D02*
X4810658Y-16278640D01*
X4810658Y-16278640D02*
X4791610Y-16288164D01*
X4791610Y-16288164D02*
X4772563Y-16288164D01*
X4772563Y-16288164D02*
X4753515Y-16278640D01*
X4753515Y-16278640D02*
X4743991Y-16269116D01*
X4743991Y-16269116D02*
X4734467Y-16250068D01*
X4734467Y-16250068D02*
X4724944Y-16211973D01*
X4724944Y-16211973D02*
X4724944Y-16164354D01*
X4724944Y-16164354D02*
X4734467Y-16126259D01*
X4734467Y-16126259D02*
X4743991Y-16107211D01*
X4743991Y-16107211D02*
X4753515Y-16097688D01*
X4753515Y-16097688D02*
X4772563Y-16088164D01*
X4963039Y-16088164D02*
X4982086Y-16088164D01*
X4982086Y-16088164D02*
X5001134Y-16097688D01*
X5001134Y-16097688D02*
X5010658Y-16107211D01*
X5010658Y-16107211D02*
X5020182Y-16126259D01*
X5020182Y-16126259D02*
X5029705Y-16164354D01*
X5029705Y-16164354D02*
X5029705Y-16211973D01*
X5029705Y-16211973D02*
X5020182Y-16250068D01*
X5020182Y-16250068D02*
X5010658Y-16269116D01*
X5010658Y-16269116D02*
X5001134Y-16278640D01*
X5001134Y-16278640D02*
X4982086Y-16288164D01*
X4982086Y-16288164D02*
X4963039Y-16288164D01*
X4963039Y-16288164D02*
X4943991Y-16278640D01*
X4943991Y-16278640D02*
X4934467Y-16269116D01*
X4934467Y-16269116D02*
X4924944Y-16250068D01*
X4924944Y-16250068D02*
X4915420Y-16211973D01*
X4915420Y-16211973D02*
X4915420Y-16164354D01*
X4915420Y-16164354D02*
X4924944Y-16126259D01*
X4924944Y-16126259D02*
X4934467Y-16107211D01*
X4934467Y-16107211D02*
X4943991Y-16097688D01*
X4943991Y-16097688D02*
X4963039Y-16088164D01*
X5115420Y-16288164D02*
X5115420Y-16154830D01*
X5115420Y-16173878D02*
X5124944Y-16164354D01*
X5124944Y-16164354D02*
X5143991Y-16154830D01*
X5143991Y-16154830D02*
X5172563Y-16154830D01*
X5172563Y-16154830D02*
X5191610Y-16164354D01*
X5191610Y-16164354D02*
X5201134Y-16183402D01*
X5201134Y-16183402D02*
X5201134Y-16288164D01*
X5201134Y-16183402D02*
X5210658Y-16164354D01*
X5210658Y-16164354D02*
X5229705Y-16154830D01*
X5229705Y-16154830D02*
X5258277Y-16154830D01*
X5258277Y-16154830D02*
X5277325Y-16164354D01*
X5277325Y-16164354D02*
X5286848Y-16183402D01*
X5286848Y-16183402D02*
X5286848Y-16288164D01*
X5382086Y-16288164D02*
X5382086Y-16154830D01*
X5382086Y-16173878D02*
X5391610Y-16164354D01*
X5391610Y-16164354D02*
X5410658Y-16154830D01*
X5410658Y-16154830D02*
X5439229Y-16154830D01*
X5439229Y-16154830D02*
X5458277Y-16164354D01*
X5458277Y-16164354D02*
X5467801Y-16183402D01*
X5467801Y-16183402D02*
X5467801Y-16288164D01*
X5467801Y-16183402D02*
X5477325Y-16164354D01*
X5477325Y-16164354D02*
X5496372Y-16154830D01*
X5496372Y-16154830D02*
X5524944Y-16154830D01*
X5524944Y-16154830D02*
X5543991Y-16164354D01*
X5543991Y-16164354D02*
X5553515Y-16183402D01*
X5553515Y-16183402D02*
X5553515Y-16288164D01*
X5943991Y-16078640D02*
X5772563Y-16335783D01*
X6201134Y-16088164D02*
X6220182Y-16088164D01*
X6220182Y-16088164D02*
X6239229Y-16097688D01*
X6239229Y-16097688D02*
X6248753Y-16107211D01*
X6248753Y-16107211D02*
X6258277Y-16126259D01*
X6258277Y-16126259D02*
X6267801Y-16164354D01*
X6267801Y-16164354D02*
X6267801Y-16211973D01*
X6267801Y-16211973D02*
X6258277Y-16250068D01*
X6258277Y-16250068D02*
X6248753Y-16269116D01*
X6248753Y-16269116D02*
X6239229Y-16278640D01*
X6239229Y-16278640D02*
X6220182Y-16288164D01*
X6220182Y-16288164D02*
X6201134Y-16288164D01*
X6201134Y-16288164D02*
X6182086Y-16278640D01*
X6182086Y-16278640D02*
X6172563Y-16269116D01*
X6172563Y-16269116D02*
X6163039Y-16250068D01*
X6163039Y-16250068D02*
X6153515Y-16211973D01*
X6153515Y-16211973D02*
X6153515Y-16164354D01*
X6153515Y-16164354D02*
X6163039Y-16126259D01*
X6163039Y-16126259D02*
X6172563Y-16107211D01*
X6172563Y-16107211D02*
X6182086Y-16097688D01*
X6182086Y-16097688D02*
X6201134Y-16088164D01*
X6353515Y-16269116D02*
X6363039Y-16278640D01*
X6363039Y-16278640D02*
X6353515Y-16288164D01*
X6353515Y-16288164D02*
X6343991Y-16278640D01*
X6343991Y-16278640D02*
X6353515Y-16269116D01*
X6353515Y-16269116D02*
X6353515Y-16288164D01*
X6486848Y-16088164D02*
X6505896Y-16088164D01*
X6505896Y-16088164D02*
X6524944Y-16097688D01*
X6524944Y-16097688D02*
X6534467Y-16107211D01*
X6534467Y-16107211D02*
X6543991Y-16126259D01*
X6543991Y-16126259D02*
X6553515Y-16164354D01*
X6553515Y-16164354D02*
X6553515Y-16211973D01*
X6553515Y-16211973D02*
X6543991Y-16250068D01*
X6543991Y-16250068D02*
X6534467Y-16269116D01*
X6534467Y-16269116D02*
X6524944Y-16278640D01*
X6524944Y-16278640D02*
X6505896Y-16288164D01*
X6505896Y-16288164D02*
X6486848Y-16288164D01*
X6486848Y-16288164D02*
X6467801Y-16278640D01*
X6467801Y-16278640D02*
X6458277Y-16269116D01*
X6458277Y-16269116D02*
X6448753Y-16250068D01*
X6448753Y-16250068D02*
X6439229Y-16211973D01*
X6439229Y-16211973D02*
X6439229Y-16164354D01*
X6439229Y-16164354D02*
X6448753Y-16126259D01*
X6448753Y-16126259D02*
X6458277Y-16107211D01*
X6458277Y-16107211D02*
X6467801Y-16097688D01*
X6467801Y-16097688D02*
X6486848Y-16088164D01*
X6667801Y-16173878D02*
X6648753Y-16164354D01*
X6648753Y-16164354D02*
X6639229Y-16154830D01*
X6639229Y-16154830D02*
X6629706Y-16135783D01*
X6629706Y-16135783D02*
X6629706Y-16126259D01*
X6629706Y-16126259D02*
X6639229Y-16107211D01*
X6639229Y-16107211D02*
X6648753Y-16097688D01*
X6648753Y-16097688D02*
X6667801Y-16088164D01*
X6667801Y-16088164D02*
X6705896Y-16088164D01*
X6705896Y-16088164D02*
X6724944Y-16097688D01*
X6724944Y-16097688D02*
X6734467Y-16107211D01*
X6734467Y-16107211D02*
X6743991Y-16126259D01*
X6743991Y-16126259D02*
X6743991Y-16135783D01*
X6743991Y-16135783D02*
X6734467Y-16154830D01*
X6734467Y-16154830D02*
X6724944Y-16164354D01*
X6724944Y-16164354D02*
X6705896Y-16173878D01*
X6705896Y-16173878D02*
X6667801Y-16173878D01*
X6667801Y-16173878D02*
X6648753Y-16183402D01*
X6648753Y-16183402D02*
X6639229Y-16192926D01*
X6639229Y-16192926D02*
X6629706Y-16211973D01*
X6629706Y-16211973D02*
X6629706Y-16250068D01*
X6629706Y-16250068D02*
X6639229Y-16269116D01*
X6639229Y-16269116D02*
X6648753Y-16278640D01*
X6648753Y-16278640D02*
X6667801Y-16288164D01*
X6667801Y-16288164D02*
X6705896Y-16288164D01*
X6705896Y-16288164D02*
X6724944Y-16278640D01*
X6724944Y-16278640D02*
X6734467Y-16269116D01*
X6734467Y-16269116D02*
X6743991Y-16250068D01*
X6743991Y-16250068D02*
X6743991Y-16211973D01*
X6743991Y-16211973D02*
X6734467Y-16192926D01*
X6734467Y-16192926D02*
X6724944Y-16183402D01*
X6724944Y-16183402D02*
X6705896Y-16173878D01*
X6915420Y-16088164D02*
X6877325Y-16088164D01*
X6877325Y-16088164D02*
X6858277Y-16097688D01*
X6858277Y-16097688D02*
X6848753Y-16107211D01*
X6848753Y-16107211D02*
X6829706Y-16135783D01*
X6829706Y-16135783D02*
X6820182Y-16173878D01*
X6820182Y-16173878D02*
X6820182Y-16250068D01*
X6820182Y-16250068D02*
X6829706Y-16269116D01*
X6829706Y-16269116D02*
X6839229Y-16278640D01*
X6839229Y-16278640D02*
X6858277Y-16288164D01*
X6858277Y-16288164D02*
X6896372Y-16288164D01*
X6896372Y-16288164D02*
X6915420Y-16278640D01*
X6915420Y-16278640D02*
X6924944Y-16269116D01*
X6924944Y-16269116D02*
X6934467Y-16250068D01*
X6934467Y-16250068D02*
X6934467Y-16202449D01*
X6934467Y-16202449D02*
X6924944Y-16183402D01*
X6924944Y-16183402D02*
X6915420Y-16173878D01*
X6915420Y-16173878D02*
X6896372Y-16164354D01*
X6896372Y-16164354D02*
X6858277Y-16164354D01*
X6858277Y-16164354D02*
X6839229Y-16173878D01*
X6839229Y-16173878D02*
X6829706Y-16183402D01*
X6829706Y-16183402D02*
X6820182Y-16202449D01*
X7105896Y-16088164D02*
X7067801Y-16088164D01*
X7067801Y-16088164D02*
X7048753Y-16097688D01*
X7048753Y-16097688D02*
X7039229Y-16107211D01*
X7039229Y-16107211D02*
X7020182Y-16135783D01*
X7020182Y-16135783D02*
X7010658Y-16173878D01*
X7010658Y-16173878D02*
X7010658Y-16250068D01*
X7010658Y-16250068D02*
X7020182Y-16269116D01*
X7020182Y-16269116D02*
X7029706Y-16278640D01*
X7029706Y-16278640D02*
X7048753Y-16288164D01*
X7048753Y-16288164D02*
X7086848Y-16288164D01*
X7086848Y-16288164D02*
X7105896Y-16278640D01*
X7105896Y-16278640D02*
X7115420Y-16269116D01*
X7115420Y-16269116D02*
X7124944Y-16250068D01*
X7124944Y-16250068D02*
X7124944Y-16202449D01*
X7124944Y-16202449D02*
X7115420Y-16183402D01*
X7115420Y-16183402D02*
X7105896Y-16173878D01*
X7105896Y-16173878D02*
X7086848Y-16164354D01*
X7086848Y-16164354D02*
X7048753Y-16164354D01*
X7048753Y-16164354D02*
X7029706Y-16173878D01*
X7029706Y-16173878D02*
X7020182Y-16183402D01*
X7020182Y-16183402D02*
X7010658Y-16202449D01*
X7201134Y-16088164D02*
X7201134Y-16126259D01*
X7277325Y-16088164D02*
X7277325Y-16126259D01*
X7572563Y-16364354D02*
X7563039Y-16354830D01*
X7563039Y-16354830D02*
X7543991Y-16326259D01*
X7543991Y-16326259D02*
X7534468Y-16307211D01*
X7534468Y-16307211D02*
X7524944Y-16278640D01*
X7524944Y-16278640D02*
X7515420Y-16231021D01*
X7515420Y-16231021D02*
X7515420Y-16192926D01*
X7515420Y-16192926D02*
X7524944Y-16145307D01*
X7524944Y-16145307D02*
X7534468Y-16116735D01*
X7534468Y-16116735D02*
X7543991Y-16097688D01*
X7543991Y-16097688D02*
X7563039Y-16069116D01*
X7563039Y-16069116D02*
X7572563Y-16059592D01*
X7743991Y-16088164D02*
X7648753Y-16088164D01*
X7648753Y-16088164D02*
X7639229Y-16183402D01*
X7639229Y-16183402D02*
X7648753Y-16173878D01*
X7648753Y-16173878D02*
X7667801Y-16164354D01*
X7667801Y-16164354D02*
X7715420Y-16164354D01*
X7715420Y-16164354D02*
X7734468Y-16173878D01*
X7734468Y-16173878D02*
X7743991Y-16183402D01*
X7743991Y-16183402D02*
X7753515Y-16202449D01*
X7753515Y-16202449D02*
X7753515Y-16250068D01*
X7753515Y-16250068D02*
X7743991Y-16269116D01*
X7743991Y-16269116D02*
X7734468Y-16278640D01*
X7734468Y-16278640D02*
X7715420Y-16288164D01*
X7715420Y-16288164D02*
X7667801Y-16288164D01*
X7667801Y-16288164D02*
X7648753Y-16278640D01*
X7648753Y-16278640D02*
X7639229Y-16269116D01*
X7991610Y-16288164D02*
X7991610Y-16088164D01*
X8077325Y-16288164D02*
X8077325Y-16183402D01*
X8077325Y-16183402D02*
X8067801Y-16164354D01*
X8067801Y-16164354D02*
X8048753Y-16154830D01*
X8048753Y-16154830D02*
X8020182Y-16154830D01*
X8020182Y-16154830D02*
X8001134Y-16164354D01*
X8001134Y-16164354D02*
X7991610Y-16173878D01*
X8201134Y-16288164D02*
X8182087Y-16278640D01*
X8182087Y-16278640D02*
X8172563Y-16269116D01*
X8172563Y-16269116D02*
X8163039Y-16250068D01*
X8163039Y-16250068D02*
X8163039Y-16192926D01*
X8163039Y-16192926D02*
X8172563Y-16173878D01*
X8172563Y-16173878D02*
X8182087Y-16164354D01*
X8182087Y-16164354D02*
X8201134Y-16154830D01*
X8201134Y-16154830D02*
X8229706Y-16154830D01*
X8229706Y-16154830D02*
X8248753Y-16164354D01*
X8248753Y-16164354D02*
X8258277Y-16173878D01*
X8258277Y-16173878D02*
X8267801Y-16192926D01*
X8267801Y-16192926D02*
X8267801Y-16250068D01*
X8267801Y-16250068D02*
X8258277Y-16269116D01*
X8258277Y-16269116D02*
X8248753Y-16278640D01*
X8248753Y-16278640D02*
X8229706Y-16288164D01*
X8229706Y-16288164D02*
X8201134Y-16288164D01*
X8382087Y-16288164D02*
X8363039Y-16278640D01*
X8363039Y-16278640D02*
X8353515Y-16259592D01*
X8353515Y-16259592D02*
X8353515Y-16088164D01*
X8534468Y-16278640D02*
X8515420Y-16288164D01*
X8515420Y-16288164D02*
X8477325Y-16288164D01*
X8477325Y-16288164D02*
X8458277Y-16278640D01*
X8458277Y-16278640D02*
X8448753Y-16259592D01*
X8448753Y-16259592D02*
X8448753Y-16183402D01*
X8448753Y-16183402D02*
X8458277Y-16164354D01*
X8458277Y-16164354D02*
X8477325Y-16154830D01*
X8477325Y-16154830D02*
X8515420Y-16154830D01*
X8515420Y-16154830D02*
X8534468Y-16164354D01*
X8534468Y-16164354D02*
X8543992Y-16183402D01*
X8543992Y-16183402D02*
X8543992Y-16202449D01*
X8543992Y-16202449D02*
X8448753Y-16221497D01*
X8620182Y-16278640D02*
X8639230Y-16288164D01*
X8639230Y-16288164D02*
X8677325Y-16288164D01*
X8677325Y-16288164D02*
X8696373Y-16278640D01*
X8696373Y-16278640D02*
X8705896Y-16259592D01*
X8705896Y-16259592D02*
X8705896Y-16250068D01*
X8705896Y-16250068D02*
X8696373Y-16231021D01*
X8696373Y-16231021D02*
X8677325Y-16221497D01*
X8677325Y-16221497D02*
X8648753Y-16221497D01*
X8648753Y-16221497D02*
X8629706Y-16211973D01*
X8629706Y-16211973D02*
X8620182Y-16192926D01*
X8620182Y-16192926D02*
X8620182Y-16183402D01*
X8620182Y-16183402D02*
X8629706Y-16164354D01*
X8629706Y-16164354D02*
X8648753Y-16154830D01*
X8648753Y-16154830D02*
X8677325Y-16154830D01*
X8677325Y-16154830D02*
X8696373Y-16164354D01*
X8772563Y-16364354D02*
X8782087Y-16354830D01*
X8782087Y-16354830D02*
X8801134Y-16326259D01*
X8801134Y-16326259D02*
X8810658Y-16307211D01*
X8810658Y-16307211D02*
X8820182Y-16278640D01*
X8820182Y-16278640D02*
X8829706Y-16231021D01*
X8829706Y-16231021D02*
X8829706Y-16192926D01*
X8829706Y-16192926D02*
X8820182Y-16145307D01*
X8820182Y-16145307D02*
X8810658Y-16116735D01*
X8810658Y-16116735D02*
X8801134Y-16097688D01*
X8801134Y-16097688D02*
X8782087Y-16069116D01*
X8782087Y-16069116D02*
X8772563Y-16059592D01*
X9134468Y-16364354D02*
X9124944Y-16354830D01*
X9124944Y-16354830D02*
X9105896Y-16326259D01*
X9105896Y-16326259D02*
X9096373Y-16307211D01*
X9096373Y-16307211D02*
X9086849Y-16278640D01*
X9086849Y-16278640D02*
X9077325Y-16231021D01*
X9077325Y-16231021D02*
X9077325Y-16192926D01*
X9077325Y-16192926D02*
X9086849Y-16145307D01*
X9086849Y-16145307D02*
X9096373Y-16116735D01*
X9096373Y-16116735D02*
X9105896Y-16097688D01*
X9105896Y-16097688D02*
X9124944Y-16069116D01*
X9124944Y-16069116D02*
X9134468Y-16059592D01*
X9210658Y-16154830D02*
X9210658Y-16288164D01*
X9210658Y-16173878D02*
X9220182Y-16164354D01*
X9220182Y-16164354D02*
X9239230Y-16154830D01*
X9239230Y-16154830D02*
X9267801Y-16154830D01*
X9267801Y-16154830D02*
X9286849Y-16164354D01*
X9286849Y-16164354D02*
X9296373Y-16183402D01*
X9296373Y-16183402D02*
X9296373Y-16288164D01*
X9420182Y-16288164D02*
X9401134Y-16278640D01*
X9401134Y-16278640D02*
X9391611Y-16269116D01*
X9391611Y-16269116D02*
X9382087Y-16250068D01*
X9382087Y-16250068D02*
X9382087Y-16192926D01*
X9382087Y-16192926D02*
X9391611Y-16173878D01*
X9391611Y-16173878D02*
X9401134Y-16164354D01*
X9401134Y-16164354D02*
X9420182Y-16154830D01*
X9420182Y-16154830D02*
X9448754Y-16154830D01*
X9448754Y-16154830D02*
X9467801Y-16164354D01*
X9467801Y-16164354D02*
X9477325Y-16173878D01*
X9477325Y-16173878D02*
X9486849Y-16192926D01*
X9486849Y-16192926D02*
X9486849Y-16250068D01*
X9486849Y-16250068D02*
X9477325Y-16269116D01*
X9477325Y-16269116D02*
X9467801Y-16278640D01*
X9467801Y-16278640D02*
X9448754Y-16288164D01*
X9448754Y-16288164D02*
X9420182Y-16288164D01*
X9543992Y-16154830D02*
X9620182Y-16154830D01*
X9572563Y-16088164D02*
X9572563Y-16259592D01*
X9572563Y-16259592D02*
X9582087Y-16278640D01*
X9582087Y-16278640D02*
X9601134Y-16288164D01*
X9601134Y-16288164D02*
X9620182Y-16288164D01*
X9839230Y-16154830D02*
X9839230Y-16354830D01*
X9839230Y-16164354D02*
X9858277Y-16154830D01*
X9858277Y-16154830D02*
X9896373Y-16154830D01*
X9896373Y-16154830D02*
X9915420Y-16164354D01*
X9915420Y-16164354D02*
X9924944Y-16173878D01*
X9924944Y-16173878D02*
X9934468Y-16192926D01*
X9934468Y-16192926D02*
X9934468Y-16250068D01*
X9934468Y-16250068D02*
X9924944Y-16269116D01*
X9924944Y-16269116D02*
X9915420Y-16278640D01*
X9915420Y-16278640D02*
X9896373Y-16288164D01*
X9896373Y-16288164D02*
X9858277Y-16288164D01*
X9858277Y-16288164D02*
X9839230Y-16278640D01*
X10048754Y-16288164D02*
X10029706Y-16278640D01*
X10029706Y-16278640D02*
X10020182Y-16259592D01*
X10020182Y-16259592D02*
X10020182Y-16088164D01*
X10210658Y-16288164D02*
X10210658Y-16183402D01*
X10210658Y-16183402D02*
X10201135Y-16164354D01*
X10201135Y-16164354D02*
X10182087Y-16154830D01*
X10182087Y-16154830D02*
X10143992Y-16154830D01*
X10143992Y-16154830D02*
X10124944Y-16164354D01*
X10210658Y-16278640D02*
X10191611Y-16288164D01*
X10191611Y-16288164D02*
X10143992Y-16288164D01*
X10143992Y-16288164D02*
X10124944Y-16278640D01*
X10124944Y-16278640D02*
X10115420Y-16259592D01*
X10115420Y-16259592D02*
X10115420Y-16240545D01*
X10115420Y-16240545D02*
X10124944Y-16221497D01*
X10124944Y-16221497D02*
X10143992Y-16211973D01*
X10143992Y-16211973D02*
X10191611Y-16211973D01*
X10191611Y-16211973D02*
X10210658Y-16202449D01*
X10277325Y-16154830D02*
X10353515Y-16154830D01*
X10305896Y-16088164D02*
X10305896Y-16259592D01*
X10305896Y-16259592D02*
X10315420Y-16278640D01*
X10315420Y-16278640D02*
X10334468Y-16288164D01*
X10334468Y-16288164D02*
X10353515Y-16288164D01*
X10496373Y-16278640D02*
X10477325Y-16288164D01*
X10477325Y-16288164D02*
X10439230Y-16288164D01*
X10439230Y-16288164D02*
X10420182Y-16278640D01*
X10420182Y-16278640D02*
X10410658Y-16259592D01*
X10410658Y-16259592D02*
X10410658Y-16183402D01*
X10410658Y-16183402D02*
X10420182Y-16164354D01*
X10420182Y-16164354D02*
X10439230Y-16154830D01*
X10439230Y-16154830D02*
X10477325Y-16154830D01*
X10477325Y-16154830D02*
X10496373Y-16164354D01*
X10496373Y-16164354D02*
X10505896Y-16183402D01*
X10505896Y-16183402D02*
X10505896Y-16202449D01*
X10505896Y-16202449D02*
X10410658Y-16221497D01*
X10677325Y-16288164D02*
X10677325Y-16088164D01*
X10677325Y-16278640D02*
X10658277Y-16288164D01*
X10658277Y-16288164D02*
X10620182Y-16288164D01*
X10620182Y-16288164D02*
X10601135Y-16278640D01*
X10601135Y-16278640D02*
X10591611Y-16269116D01*
X10591611Y-16269116D02*
X10582087Y-16250068D01*
X10582087Y-16250068D02*
X10582087Y-16192926D01*
X10582087Y-16192926D02*
X10591611Y-16173878D01*
X10591611Y-16173878D02*
X10601135Y-16164354D01*
X10601135Y-16164354D02*
X10620182Y-16154830D01*
X10620182Y-16154830D02*
X10658277Y-16154830D01*
X10658277Y-16154830D02*
X10677325Y-16164354D01*
X10753516Y-16364354D02*
X10763039Y-16354830D01*
X10763039Y-16354830D02*
X10782087Y-16326259D01*
X10782087Y-16326259D02*
X10791611Y-16307211D01*
X10791611Y-16307211D02*
X10801135Y-16278640D01*
X10801135Y-16278640D02*
X10810658Y-16231021D01*
X10810658Y-16231021D02*
X10810658Y-16192926D01*
X10810658Y-16192926D02*
X10801135Y-16145307D01*
X10801135Y-16145307D02*
X10791611Y-16116735D01*
X10791611Y-16116735D02*
X10782087Y-16097688D01*
X10782087Y-16097688D02*
X10763039Y-16069116D01*
X10763039Y-16069116D02*
X10753516Y-16059592D01*
X3968211Y-16587391D02*
X3968211Y-16445969D01*
X3826789Y-16445969D01*
X3826789Y-16587391D01*
X3968211Y-16587391D01*
X4239229Y-16408164D02*
X4363039Y-16408164D01*
X4363039Y-16408164D02*
X4296372Y-16484354D01*
X4296372Y-16484354D02*
X4324944Y-16484354D01*
X4324944Y-16484354D02*
X4343991Y-16493878D01*
X4343991Y-16493878D02*
X4353515Y-16503402D01*
X4353515Y-16503402D02*
X4363039Y-16522449D01*
X4363039Y-16522449D02*
X4363039Y-16570068D01*
X4363039Y-16570068D02*
X4353515Y-16589116D01*
X4353515Y-16589116D02*
X4343991Y-16598640D01*
X4343991Y-16598640D02*
X4324944Y-16608164D01*
X4324944Y-16608164D02*
X4267801Y-16608164D01*
X4267801Y-16608164D02*
X4248753Y-16598640D01*
X4248753Y-16598640D02*
X4239229Y-16589116D01*
X4448753Y-16589116D02*
X4458277Y-16598640D01*
X4458277Y-16598640D02*
X4448753Y-16608164D01*
X4448753Y-16608164D02*
X4439229Y-16598640D01*
X4439229Y-16598640D02*
X4448753Y-16589116D01*
X4448753Y-16589116D02*
X4448753Y-16608164D01*
X4582086Y-16408164D02*
X4601134Y-16408164D01*
X4601134Y-16408164D02*
X4620182Y-16417688D01*
X4620182Y-16417688D02*
X4629705Y-16427211D01*
X4629705Y-16427211D02*
X4639229Y-16446259D01*
X4639229Y-16446259D02*
X4648753Y-16484354D01*
X4648753Y-16484354D02*
X4648753Y-16531973D01*
X4648753Y-16531973D02*
X4639229Y-16570068D01*
X4639229Y-16570068D02*
X4629705Y-16589116D01*
X4629705Y-16589116D02*
X4620182Y-16598640D01*
X4620182Y-16598640D02*
X4601134Y-16608164D01*
X4601134Y-16608164D02*
X4582086Y-16608164D01*
X4582086Y-16608164D02*
X4563039Y-16598640D01*
X4563039Y-16598640D02*
X4553515Y-16589116D01*
X4553515Y-16589116D02*
X4543991Y-16570068D01*
X4543991Y-16570068D02*
X4534467Y-16531973D01*
X4534467Y-16531973D02*
X4534467Y-16484354D01*
X4534467Y-16484354D02*
X4543991Y-16446259D01*
X4543991Y-16446259D02*
X4553515Y-16427211D01*
X4553515Y-16427211D02*
X4563039Y-16417688D01*
X4563039Y-16417688D02*
X4582086Y-16408164D01*
X4772563Y-16408164D02*
X4791610Y-16408164D01*
X4791610Y-16408164D02*
X4810658Y-16417688D01*
X4810658Y-16417688D02*
X4820182Y-16427211D01*
X4820182Y-16427211D02*
X4829705Y-16446259D01*
X4829705Y-16446259D02*
X4839229Y-16484354D01*
X4839229Y-16484354D02*
X4839229Y-16531973D01*
X4839229Y-16531973D02*
X4829705Y-16570068D01*
X4829705Y-16570068D02*
X4820182Y-16589116D01*
X4820182Y-16589116D02*
X4810658Y-16598640D01*
X4810658Y-16598640D02*
X4791610Y-16608164D01*
X4791610Y-16608164D02*
X4772563Y-16608164D01*
X4772563Y-16608164D02*
X4753515Y-16598640D01*
X4753515Y-16598640D02*
X4743991Y-16589116D01*
X4743991Y-16589116D02*
X4734467Y-16570068D01*
X4734467Y-16570068D02*
X4724944Y-16531973D01*
X4724944Y-16531973D02*
X4724944Y-16484354D01*
X4724944Y-16484354D02*
X4734467Y-16446259D01*
X4734467Y-16446259D02*
X4743991Y-16427211D01*
X4743991Y-16427211D02*
X4753515Y-16417688D01*
X4753515Y-16417688D02*
X4772563Y-16408164D01*
X4963039Y-16408164D02*
X4982086Y-16408164D01*
X4982086Y-16408164D02*
X5001134Y-16417688D01*
X5001134Y-16417688D02*
X5010658Y-16427211D01*
X5010658Y-16427211D02*
X5020182Y-16446259D01*
X5020182Y-16446259D02*
X5029705Y-16484354D01*
X5029705Y-16484354D02*
X5029705Y-16531973D01*
X5029705Y-16531973D02*
X5020182Y-16570068D01*
X5020182Y-16570068D02*
X5010658Y-16589116D01*
X5010658Y-16589116D02*
X5001134Y-16598640D01*
X5001134Y-16598640D02*
X4982086Y-16608164D01*
X4982086Y-16608164D02*
X4963039Y-16608164D01*
X4963039Y-16608164D02*
X4943991Y-16598640D01*
X4943991Y-16598640D02*
X4934467Y-16589116D01*
X4934467Y-16589116D02*
X4924944Y-16570068D01*
X4924944Y-16570068D02*
X4915420Y-16531973D01*
X4915420Y-16531973D02*
X4915420Y-16484354D01*
X4915420Y-16484354D02*
X4924944Y-16446259D01*
X4924944Y-16446259D02*
X4934467Y-16427211D01*
X4934467Y-16427211D02*
X4943991Y-16417688D01*
X4943991Y-16417688D02*
X4963039Y-16408164D01*
X5115420Y-16608164D02*
X5115420Y-16474830D01*
X5115420Y-16493878D02*
X5124944Y-16484354D01*
X5124944Y-16484354D02*
X5143991Y-16474830D01*
X5143991Y-16474830D02*
X5172563Y-16474830D01*
X5172563Y-16474830D02*
X5191610Y-16484354D01*
X5191610Y-16484354D02*
X5201134Y-16503402D01*
X5201134Y-16503402D02*
X5201134Y-16608164D01*
X5201134Y-16503402D02*
X5210658Y-16484354D01*
X5210658Y-16484354D02*
X5229705Y-16474830D01*
X5229705Y-16474830D02*
X5258277Y-16474830D01*
X5258277Y-16474830D02*
X5277325Y-16484354D01*
X5277325Y-16484354D02*
X5286848Y-16503402D01*
X5286848Y-16503402D02*
X5286848Y-16608164D01*
X5382086Y-16608164D02*
X5382086Y-16474830D01*
X5382086Y-16493878D02*
X5391610Y-16484354D01*
X5391610Y-16484354D02*
X5410658Y-16474830D01*
X5410658Y-16474830D02*
X5439229Y-16474830D01*
X5439229Y-16474830D02*
X5458277Y-16484354D01*
X5458277Y-16484354D02*
X5467801Y-16503402D01*
X5467801Y-16503402D02*
X5467801Y-16608164D01*
X5467801Y-16503402D02*
X5477325Y-16484354D01*
X5477325Y-16484354D02*
X5496372Y-16474830D01*
X5496372Y-16474830D02*
X5524944Y-16474830D01*
X5524944Y-16474830D02*
X5543991Y-16484354D01*
X5543991Y-16484354D02*
X5553515Y-16503402D01*
X5553515Y-16503402D02*
X5553515Y-16608164D01*
X5943991Y-16398640D02*
X5772563Y-16655783D01*
X6201134Y-16408164D02*
X6220182Y-16408164D01*
X6220182Y-16408164D02*
X6239229Y-16417688D01*
X6239229Y-16417688D02*
X6248753Y-16427211D01*
X6248753Y-16427211D02*
X6258277Y-16446259D01*
X6258277Y-16446259D02*
X6267801Y-16484354D01*
X6267801Y-16484354D02*
X6267801Y-16531973D01*
X6267801Y-16531973D02*
X6258277Y-16570068D01*
X6258277Y-16570068D02*
X6248753Y-16589116D01*
X6248753Y-16589116D02*
X6239229Y-16598640D01*
X6239229Y-16598640D02*
X6220182Y-16608164D01*
X6220182Y-16608164D02*
X6201134Y-16608164D01*
X6201134Y-16608164D02*
X6182086Y-16598640D01*
X6182086Y-16598640D02*
X6172563Y-16589116D01*
X6172563Y-16589116D02*
X6163039Y-16570068D01*
X6163039Y-16570068D02*
X6153515Y-16531973D01*
X6153515Y-16531973D02*
X6153515Y-16484354D01*
X6153515Y-16484354D02*
X6163039Y-16446259D01*
X6163039Y-16446259D02*
X6172563Y-16427211D01*
X6172563Y-16427211D02*
X6182086Y-16417688D01*
X6182086Y-16417688D02*
X6201134Y-16408164D01*
X6353515Y-16589116D02*
X6363039Y-16598640D01*
X6363039Y-16598640D02*
X6353515Y-16608164D01*
X6353515Y-16608164D02*
X6343991Y-16598640D01*
X6343991Y-16598640D02*
X6353515Y-16589116D01*
X6353515Y-16589116D02*
X6353515Y-16608164D01*
X6553515Y-16608164D02*
X6439229Y-16608164D01*
X6496372Y-16608164D02*
X6496372Y-16408164D01*
X6496372Y-16408164D02*
X6477325Y-16436735D01*
X6477325Y-16436735D02*
X6458277Y-16455783D01*
X6458277Y-16455783D02*
X6439229Y-16465307D01*
X6743991Y-16608164D02*
X6629706Y-16608164D01*
X6686848Y-16608164D02*
X6686848Y-16408164D01*
X6686848Y-16408164D02*
X6667801Y-16436735D01*
X6667801Y-16436735D02*
X6648753Y-16455783D01*
X6648753Y-16455783D02*
X6629706Y-16465307D01*
X6858277Y-16493878D02*
X6839229Y-16484354D01*
X6839229Y-16484354D02*
X6829706Y-16474830D01*
X6829706Y-16474830D02*
X6820182Y-16455783D01*
X6820182Y-16455783D02*
X6820182Y-16446259D01*
X6820182Y-16446259D02*
X6829706Y-16427211D01*
X6829706Y-16427211D02*
X6839229Y-16417688D01*
X6839229Y-16417688D02*
X6858277Y-16408164D01*
X6858277Y-16408164D02*
X6896372Y-16408164D01*
X6896372Y-16408164D02*
X6915420Y-16417688D01*
X6915420Y-16417688D02*
X6924944Y-16427211D01*
X6924944Y-16427211D02*
X6934467Y-16446259D01*
X6934467Y-16446259D02*
X6934467Y-16455783D01*
X6934467Y-16455783D02*
X6924944Y-16474830D01*
X6924944Y-16474830D02*
X6915420Y-16484354D01*
X6915420Y-16484354D02*
X6896372Y-16493878D01*
X6896372Y-16493878D02*
X6858277Y-16493878D01*
X6858277Y-16493878D02*
X6839229Y-16503402D01*
X6839229Y-16503402D02*
X6829706Y-16512926D01*
X6829706Y-16512926D02*
X6820182Y-16531973D01*
X6820182Y-16531973D02*
X6820182Y-16570068D01*
X6820182Y-16570068D02*
X6829706Y-16589116D01*
X6829706Y-16589116D02*
X6839229Y-16598640D01*
X6839229Y-16598640D02*
X6858277Y-16608164D01*
X6858277Y-16608164D02*
X6896372Y-16608164D01*
X6896372Y-16608164D02*
X6915420Y-16598640D01*
X6915420Y-16598640D02*
X6924944Y-16589116D01*
X6924944Y-16589116D02*
X6934467Y-16570068D01*
X6934467Y-16570068D02*
X6934467Y-16531973D01*
X6934467Y-16531973D02*
X6924944Y-16512926D01*
X6924944Y-16512926D02*
X6915420Y-16503402D01*
X6915420Y-16503402D02*
X6896372Y-16493878D01*
X7124944Y-16608164D02*
X7010658Y-16608164D01*
X7067801Y-16608164D02*
X7067801Y-16408164D01*
X7067801Y-16408164D02*
X7048753Y-16436735D01*
X7048753Y-16436735D02*
X7029706Y-16455783D01*
X7029706Y-16455783D02*
X7010658Y-16465307D01*
X7201134Y-16408164D02*
X7201134Y-16446259D01*
X7277325Y-16408164D02*
X7277325Y-16446259D01*
X7572563Y-16684354D02*
X7563039Y-16674830D01*
X7563039Y-16674830D02*
X7543991Y-16646259D01*
X7543991Y-16646259D02*
X7534468Y-16627211D01*
X7534468Y-16627211D02*
X7524944Y-16598640D01*
X7524944Y-16598640D02*
X7515420Y-16551021D01*
X7515420Y-16551021D02*
X7515420Y-16512926D01*
X7515420Y-16512926D02*
X7524944Y-16465307D01*
X7524944Y-16465307D02*
X7534468Y-16436735D01*
X7534468Y-16436735D02*
X7543991Y-16417688D01*
X7543991Y-16417688D02*
X7563039Y-16389116D01*
X7563039Y-16389116D02*
X7572563Y-16379592D01*
X7639229Y-16427211D02*
X7648753Y-16417688D01*
X7648753Y-16417688D02*
X7667801Y-16408164D01*
X7667801Y-16408164D02*
X7715420Y-16408164D01*
X7715420Y-16408164D02*
X7734468Y-16417688D01*
X7734468Y-16417688D02*
X7743991Y-16427211D01*
X7743991Y-16427211D02*
X7753515Y-16446259D01*
X7753515Y-16446259D02*
X7753515Y-16465307D01*
X7753515Y-16465307D02*
X7743991Y-16493878D01*
X7743991Y-16493878D02*
X7629706Y-16608164D01*
X7629706Y-16608164D02*
X7753515Y-16608164D01*
X7924944Y-16474830D02*
X7924944Y-16608164D01*
X7877325Y-16398640D02*
X7829706Y-16541497D01*
X7829706Y-16541497D02*
X7953515Y-16541497D01*
X8182087Y-16608164D02*
X8182087Y-16408164D01*
X8267801Y-16608164D02*
X8267801Y-16503402D01*
X8267801Y-16503402D02*
X8258277Y-16484354D01*
X8258277Y-16484354D02*
X8239230Y-16474830D01*
X8239230Y-16474830D02*
X8210658Y-16474830D01*
X8210658Y-16474830D02*
X8191610Y-16484354D01*
X8191610Y-16484354D02*
X8182087Y-16493878D01*
X8391611Y-16608164D02*
X8372563Y-16598640D01*
X8372563Y-16598640D02*
X8363039Y-16589116D01*
X8363039Y-16589116D02*
X8353515Y-16570068D01*
X8353515Y-16570068D02*
X8353515Y-16512926D01*
X8353515Y-16512926D02*
X8363039Y-16493878D01*
X8363039Y-16493878D02*
X8372563Y-16484354D01*
X8372563Y-16484354D02*
X8391611Y-16474830D01*
X8391611Y-16474830D02*
X8420182Y-16474830D01*
X8420182Y-16474830D02*
X8439230Y-16484354D01*
X8439230Y-16484354D02*
X8448753Y-16493878D01*
X8448753Y-16493878D02*
X8458277Y-16512926D01*
X8458277Y-16512926D02*
X8458277Y-16570068D01*
X8458277Y-16570068D02*
X8448753Y-16589116D01*
X8448753Y-16589116D02*
X8439230Y-16598640D01*
X8439230Y-16598640D02*
X8420182Y-16608164D01*
X8420182Y-16608164D02*
X8391611Y-16608164D01*
X8572563Y-16608164D02*
X8553515Y-16598640D01*
X8553515Y-16598640D02*
X8543992Y-16579592D01*
X8543992Y-16579592D02*
X8543992Y-16408164D01*
X8724944Y-16598640D02*
X8705896Y-16608164D01*
X8705896Y-16608164D02*
X8667801Y-16608164D01*
X8667801Y-16608164D02*
X8648753Y-16598640D01*
X8648753Y-16598640D02*
X8639230Y-16579592D01*
X8639230Y-16579592D02*
X8639230Y-16503402D01*
X8639230Y-16503402D02*
X8648753Y-16484354D01*
X8648753Y-16484354D02*
X8667801Y-16474830D01*
X8667801Y-16474830D02*
X8705896Y-16474830D01*
X8705896Y-16474830D02*
X8724944Y-16484354D01*
X8724944Y-16484354D02*
X8734468Y-16503402D01*
X8734468Y-16503402D02*
X8734468Y-16522449D01*
X8734468Y-16522449D02*
X8639230Y-16541497D01*
X8810658Y-16598640D02*
X8829706Y-16608164D01*
X8829706Y-16608164D02*
X8867801Y-16608164D01*
X8867801Y-16608164D02*
X8886849Y-16598640D01*
X8886849Y-16598640D02*
X8896373Y-16579592D01*
X8896373Y-16579592D02*
X8896373Y-16570068D01*
X8896373Y-16570068D02*
X8886849Y-16551021D01*
X8886849Y-16551021D02*
X8867801Y-16541497D01*
X8867801Y-16541497D02*
X8839230Y-16541497D01*
X8839230Y-16541497D02*
X8820182Y-16531973D01*
X8820182Y-16531973D02*
X8810658Y-16512926D01*
X8810658Y-16512926D02*
X8810658Y-16503402D01*
X8810658Y-16503402D02*
X8820182Y-16484354D01*
X8820182Y-16484354D02*
X8839230Y-16474830D01*
X8839230Y-16474830D02*
X8867801Y-16474830D01*
X8867801Y-16474830D02*
X8886849Y-16484354D01*
X8963039Y-16684354D02*
X8972563Y-16674830D01*
X8972563Y-16674830D02*
X8991611Y-16646259D01*
X8991611Y-16646259D02*
X9001134Y-16627211D01*
X9001134Y-16627211D02*
X9010658Y-16598640D01*
X9010658Y-16598640D02*
X9020182Y-16551021D01*
X9020182Y-16551021D02*
X9020182Y-16512926D01*
X9020182Y-16512926D02*
X9010658Y-16465307D01*
X9010658Y-16465307D02*
X9001134Y-16436735D01*
X9001134Y-16436735D02*
X8991611Y-16417688D01*
X8991611Y-16417688D02*
X8972563Y-16389116D01*
X8972563Y-16389116D02*
X8963039Y-16379592D01*
X9324944Y-16684354D02*
X9315420Y-16674830D01*
X9315420Y-16674830D02*
X9296373Y-16646259D01*
X9296373Y-16646259D02*
X9286849Y-16627211D01*
X9286849Y-16627211D02*
X9277325Y-16598640D01*
X9277325Y-16598640D02*
X9267801Y-16551021D01*
X9267801Y-16551021D02*
X9267801Y-16512926D01*
X9267801Y-16512926D02*
X9277325Y-16465307D01*
X9277325Y-16465307D02*
X9286849Y-16436735D01*
X9286849Y-16436735D02*
X9296373Y-16417688D01*
X9296373Y-16417688D02*
X9315420Y-16389116D01*
X9315420Y-16389116D02*
X9324944Y-16379592D01*
X9401134Y-16474830D02*
X9401134Y-16608164D01*
X9401134Y-16493878D02*
X9410658Y-16484354D01*
X9410658Y-16484354D02*
X9429706Y-16474830D01*
X9429706Y-16474830D02*
X9458277Y-16474830D01*
X9458277Y-16474830D02*
X9477325Y-16484354D01*
X9477325Y-16484354D02*
X9486849Y-16503402D01*
X9486849Y-16503402D02*
X9486849Y-16608164D01*
X9610658Y-16608164D02*
X9591611Y-16598640D01*
X9591611Y-16598640D02*
X9582087Y-16589116D01*
X9582087Y-16589116D02*
X9572563Y-16570068D01*
X9572563Y-16570068D02*
X9572563Y-16512926D01*
X9572563Y-16512926D02*
X9582087Y-16493878D01*
X9582087Y-16493878D02*
X9591611Y-16484354D01*
X9591611Y-16484354D02*
X9610658Y-16474830D01*
X9610658Y-16474830D02*
X9639230Y-16474830D01*
X9639230Y-16474830D02*
X9658277Y-16484354D01*
X9658277Y-16484354D02*
X9667801Y-16493878D01*
X9667801Y-16493878D02*
X9677325Y-16512926D01*
X9677325Y-16512926D02*
X9677325Y-16570068D01*
X9677325Y-16570068D02*
X9667801Y-16589116D01*
X9667801Y-16589116D02*
X9658277Y-16598640D01*
X9658277Y-16598640D02*
X9639230Y-16608164D01*
X9639230Y-16608164D02*
X9610658Y-16608164D01*
X9734468Y-16474830D02*
X9810658Y-16474830D01*
X9763039Y-16408164D02*
X9763039Y-16579592D01*
X9763039Y-16579592D02*
X9772563Y-16598640D01*
X9772563Y-16598640D02*
X9791611Y-16608164D01*
X9791611Y-16608164D02*
X9810658Y-16608164D01*
X10029706Y-16474830D02*
X10029706Y-16674830D01*
X10029706Y-16484354D02*
X10048754Y-16474830D01*
X10048754Y-16474830D02*
X10086849Y-16474830D01*
X10086849Y-16474830D02*
X10105896Y-16484354D01*
X10105896Y-16484354D02*
X10115420Y-16493878D01*
X10115420Y-16493878D02*
X10124944Y-16512926D01*
X10124944Y-16512926D02*
X10124944Y-16570068D01*
X10124944Y-16570068D02*
X10115420Y-16589116D01*
X10115420Y-16589116D02*
X10105896Y-16598640D01*
X10105896Y-16598640D02*
X10086849Y-16608164D01*
X10086849Y-16608164D02*
X10048754Y-16608164D01*
X10048754Y-16608164D02*
X10029706Y-16598640D01*
X10239230Y-16608164D02*
X10220182Y-16598640D01*
X10220182Y-16598640D02*
X10210658Y-16579592D01*
X10210658Y-16579592D02*
X10210658Y-16408164D01*
X10401135Y-16608164D02*
X10401135Y-16503402D01*
X10401135Y-16503402D02*
X10391611Y-16484354D01*
X10391611Y-16484354D02*
X10372563Y-16474830D01*
X10372563Y-16474830D02*
X10334468Y-16474830D01*
X10334468Y-16474830D02*
X10315420Y-16484354D01*
X10401135Y-16598640D02*
X10382087Y-16608164D01*
X10382087Y-16608164D02*
X10334468Y-16608164D01*
X10334468Y-16608164D02*
X10315420Y-16598640D01*
X10315420Y-16598640D02*
X10305896Y-16579592D01*
X10305896Y-16579592D02*
X10305896Y-16560545D01*
X10305896Y-16560545D02*
X10315420Y-16541497D01*
X10315420Y-16541497D02*
X10334468Y-16531973D01*
X10334468Y-16531973D02*
X10382087Y-16531973D01*
X10382087Y-16531973D02*
X10401135Y-16522449D01*
X10467801Y-16474830D02*
X10543992Y-16474830D01*
X10496373Y-16408164D02*
X10496373Y-16579592D01*
X10496373Y-16579592D02*
X10505896Y-16598640D01*
X10505896Y-16598640D02*
X10524944Y-16608164D01*
X10524944Y-16608164D02*
X10543992Y-16608164D01*
X10686849Y-16598640D02*
X10667801Y-16608164D01*
X10667801Y-16608164D02*
X10629706Y-16608164D01*
X10629706Y-16608164D02*
X10610658Y-16598640D01*
X10610658Y-16598640D02*
X10601135Y-16579592D01*
X10601135Y-16579592D02*
X10601135Y-16503402D01*
X10601135Y-16503402D02*
X10610658Y-16484354D01*
X10610658Y-16484354D02*
X10629706Y-16474830D01*
X10629706Y-16474830D02*
X10667801Y-16474830D01*
X10667801Y-16474830D02*
X10686849Y-16484354D01*
X10686849Y-16484354D02*
X10696373Y-16503402D01*
X10696373Y-16503402D02*
X10696373Y-16522449D01*
X10696373Y-16522449D02*
X10601135Y-16541497D01*
X10867801Y-16608164D02*
X10867801Y-16408164D01*
X10867801Y-16598640D02*
X10848754Y-16608164D01*
X10848754Y-16608164D02*
X10810658Y-16608164D01*
X10810658Y-16608164D02*
X10791611Y-16598640D01*
X10791611Y-16598640D02*
X10782087Y-16589116D01*
X10782087Y-16589116D02*
X10772563Y-16570068D01*
X10772563Y-16570068D02*
X10772563Y-16512926D01*
X10772563Y-16512926D02*
X10782087Y-16493878D01*
X10782087Y-16493878D02*
X10791611Y-16484354D01*
X10791611Y-16484354D02*
X10810658Y-16474830D01*
X10810658Y-16474830D02*
X10848754Y-16474830D01*
X10848754Y-16474830D02*
X10867801Y-16484354D01*
X10943992Y-16684354D02*
X10953516Y-16674830D01*
X10953516Y-16674830D02*
X10972563Y-16646259D01*
X10972563Y-16646259D02*
X10982087Y-16627211D01*
X10982087Y-16627211D02*
X10991611Y-16598640D01*
X10991611Y-16598640D02*
X11001135Y-16551021D01*
X11001135Y-16551021D02*
X11001135Y-16512926D01*
X11001135Y-16512926D02*
X10991611Y-16465307D01*
X10991611Y-16465307D02*
X10982087Y-16436735D01*
X10982087Y-16436735D02*
X10972563Y-16417688D01*
X10972563Y-16417688D02*
X10953516Y-16389116D01*
X10953516Y-16389116D02*
X10943992Y-16379592D01*
X3897500Y-16936680D02*
X3997500Y-16836680D01*
X3897500Y-16736680D01*
X3797500Y-16836680D01*
X3897500Y-16936680D01*
X4239229Y-16728164D02*
X4363039Y-16728164D01*
X4363039Y-16728164D02*
X4296372Y-16804354D01*
X4296372Y-16804354D02*
X4324944Y-16804354D01*
X4324944Y-16804354D02*
X4343991Y-16813878D01*
X4343991Y-16813878D02*
X4353515Y-16823402D01*
X4353515Y-16823402D02*
X4363039Y-16842450D01*
X4363039Y-16842450D02*
X4363039Y-16890069D01*
X4363039Y-16890069D02*
X4353515Y-16909116D01*
X4353515Y-16909116D02*
X4343991Y-16918640D01*
X4343991Y-16918640D02*
X4324944Y-16928164D01*
X4324944Y-16928164D02*
X4267801Y-16928164D01*
X4267801Y-16928164D02*
X4248753Y-16918640D01*
X4248753Y-16918640D02*
X4239229Y-16909116D01*
X4448753Y-16909116D02*
X4458277Y-16918640D01*
X4458277Y-16918640D02*
X4448753Y-16928164D01*
X4448753Y-16928164D02*
X4439229Y-16918640D01*
X4439229Y-16918640D02*
X4448753Y-16909116D01*
X4448753Y-16909116D02*
X4448753Y-16928164D01*
X4629705Y-16794830D02*
X4629705Y-16928164D01*
X4582086Y-16718640D02*
X4534467Y-16861497D01*
X4534467Y-16861497D02*
X4658277Y-16861497D01*
X4724944Y-16747211D02*
X4734467Y-16737688D01*
X4734467Y-16737688D02*
X4753515Y-16728164D01*
X4753515Y-16728164D02*
X4801134Y-16728164D01*
X4801134Y-16728164D02*
X4820182Y-16737688D01*
X4820182Y-16737688D02*
X4829705Y-16747211D01*
X4829705Y-16747211D02*
X4839229Y-16766259D01*
X4839229Y-16766259D02*
X4839229Y-16785307D01*
X4839229Y-16785307D02*
X4829705Y-16813878D01*
X4829705Y-16813878D02*
X4715420Y-16928164D01*
X4715420Y-16928164D02*
X4839229Y-16928164D01*
X4934467Y-16928164D02*
X4972563Y-16928164D01*
X4972563Y-16928164D02*
X4991610Y-16918640D01*
X4991610Y-16918640D02*
X5001134Y-16909116D01*
X5001134Y-16909116D02*
X5020182Y-16880545D01*
X5020182Y-16880545D02*
X5029705Y-16842450D01*
X5029705Y-16842450D02*
X5029705Y-16766259D01*
X5029705Y-16766259D02*
X5020182Y-16747211D01*
X5020182Y-16747211D02*
X5010658Y-16737688D01*
X5010658Y-16737688D02*
X4991610Y-16728164D01*
X4991610Y-16728164D02*
X4953515Y-16728164D01*
X4953515Y-16728164D02*
X4934467Y-16737688D01*
X4934467Y-16737688D02*
X4924944Y-16747211D01*
X4924944Y-16747211D02*
X4915420Y-16766259D01*
X4915420Y-16766259D02*
X4915420Y-16813878D01*
X4915420Y-16813878D02*
X4924944Y-16832926D01*
X4924944Y-16832926D02*
X4934467Y-16842450D01*
X4934467Y-16842450D02*
X4953515Y-16851973D01*
X4953515Y-16851973D02*
X4991610Y-16851973D01*
X4991610Y-16851973D02*
X5010658Y-16842450D01*
X5010658Y-16842450D02*
X5020182Y-16832926D01*
X5020182Y-16832926D02*
X5029705Y-16813878D01*
X5115420Y-16928164D02*
X5115420Y-16794830D01*
X5115420Y-16813878D02*
X5124944Y-16804354D01*
X5124944Y-16804354D02*
X5143991Y-16794830D01*
X5143991Y-16794830D02*
X5172563Y-16794830D01*
X5172563Y-16794830D02*
X5191610Y-16804354D01*
X5191610Y-16804354D02*
X5201134Y-16823402D01*
X5201134Y-16823402D02*
X5201134Y-16928164D01*
X5201134Y-16823402D02*
X5210658Y-16804354D01*
X5210658Y-16804354D02*
X5229705Y-16794830D01*
X5229705Y-16794830D02*
X5258277Y-16794830D01*
X5258277Y-16794830D02*
X5277325Y-16804354D01*
X5277325Y-16804354D02*
X5286848Y-16823402D01*
X5286848Y-16823402D02*
X5286848Y-16928164D01*
X5382086Y-16928164D02*
X5382086Y-16794830D01*
X5382086Y-16813878D02*
X5391610Y-16804354D01*
X5391610Y-16804354D02*
X5410658Y-16794830D01*
X5410658Y-16794830D02*
X5439229Y-16794830D01*
X5439229Y-16794830D02*
X5458277Y-16804354D01*
X5458277Y-16804354D02*
X5467801Y-16823402D01*
X5467801Y-16823402D02*
X5467801Y-16928164D01*
X5467801Y-16823402D02*
X5477325Y-16804354D01*
X5477325Y-16804354D02*
X5496372Y-16794830D01*
X5496372Y-16794830D02*
X5524944Y-16794830D01*
X5524944Y-16794830D02*
X5543991Y-16804354D01*
X5543991Y-16804354D02*
X5553515Y-16823402D01*
X5553515Y-16823402D02*
X5553515Y-16928164D01*
X5943991Y-16718640D02*
X5772563Y-16975783D01*
X6201134Y-16728164D02*
X6220182Y-16728164D01*
X6220182Y-16728164D02*
X6239229Y-16737688D01*
X6239229Y-16737688D02*
X6248753Y-16747211D01*
X6248753Y-16747211D02*
X6258277Y-16766259D01*
X6258277Y-16766259D02*
X6267801Y-16804354D01*
X6267801Y-16804354D02*
X6267801Y-16851973D01*
X6267801Y-16851973D02*
X6258277Y-16890069D01*
X6258277Y-16890069D02*
X6248753Y-16909116D01*
X6248753Y-16909116D02*
X6239229Y-16918640D01*
X6239229Y-16918640D02*
X6220182Y-16928164D01*
X6220182Y-16928164D02*
X6201134Y-16928164D01*
X6201134Y-16928164D02*
X6182086Y-16918640D01*
X6182086Y-16918640D02*
X6172563Y-16909116D01*
X6172563Y-16909116D02*
X6163039Y-16890069D01*
X6163039Y-16890069D02*
X6153515Y-16851973D01*
X6153515Y-16851973D02*
X6153515Y-16804354D01*
X6153515Y-16804354D02*
X6163039Y-16766259D01*
X6163039Y-16766259D02*
X6172563Y-16747211D01*
X6172563Y-16747211D02*
X6182086Y-16737688D01*
X6182086Y-16737688D02*
X6201134Y-16728164D01*
X6353515Y-16909116D02*
X6363039Y-16918640D01*
X6363039Y-16918640D02*
X6353515Y-16928164D01*
X6353515Y-16928164D02*
X6343991Y-16918640D01*
X6343991Y-16918640D02*
X6353515Y-16909116D01*
X6353515Y-16909116D02*
X6353515Y-16928164D01*
X6553515Y-16928164D02*
X6439229Y-16928164D01*
X6496372Y-16928164D02*
X6496372Y-16728164D01*
X6496372Y-16728164D02*
X6477325Y-16756735D01*
X6477325Y-16756735D02*
X6458277Y-16775783D01*
X6458277Y-16775783D02*
X6439229Y-16785307D01*
X6620182Y-16728164D02*
X6743991Y-16728164D01*
X6743991Y-16728164D02*
X6677325Y-16804354D01*
X6677325Y-16804354D02*
X6705896Y-16804354D01*
X6705896Y-16804354D02*
X6724944Y-16813878D01*
X6724944Y-16813878D02*
X6734467Y-16823402D01*
X6734467Y-16823402D02*
X6743991Y-16842450D01*
X6743991Y-16842450D02*
X6743991Y-16890069D01*
X6743991Y-16890069D02*
X6734467Y-16909116D01*
X6734467Y-16909116D02*
X6724944Y-16918640D01*
X6724944Y-16918640D02*
X6705896Y-16928164D01*
X6705896Y-16928164D02*
X6648753Y-16928164D01*
X6648753Y-16928164D02*
X6629706Y-16918640D01*
X6629706Y-16918640D02*
X6620182Y-16909116D01*
X6924944Y-16728164D02*
X6829706Y-16728164D01*
X6829706Y-16728164D02*
X6820182Y-16823402D01*
X6820182Y-16823402D02*
X6829706Y-16813878D01*
X6829706Y-16813878D02*
X6848753Y-16804354D01*
X6848753Y-16804354D02*
X6896372Y-16804354D01*
X6896372Y-16804354D02*
X6915420Y-16813878D01*
X6915420Y-16813878D02*
X6924944Y-16823402D01*
X6924944Y-16823402D02*
X6934467Y-16842450D01*
X6934467Y-16842450D02*
X6934467Y-16890069D01*
X6934467Y-16890069D02*
X6924944Y-16909116D01*
X6924944Y-16909116D02*
X6915420Y-16918640D01*
X6915420Y-16918640D02*
X6896372Y-16928164D01*
X6896372Y-16928164D02*
X6848753Y-16928164D01*
X6848753Y-16928164D02*
X6829706Y-16918640D01*
X6829706Y-16918640D02*
X6820182Y-16909116D01*
X7058277Y-16728164D02*
X7077325Y-16728164D01*
X7077325Y-16728164D02*
X7096372Y-16737688D01*
X7096372Y-16737688D02*
X7105896Y-16747211D01*
X7105896Y-16747211D02*
X7115420Y-16766259D01*
X7115420Y-16766259D02*
X7124944Y-16804354D01*
X7124944Y-16804354D02*
X7124944Y-16851973D01*
X7124944Y-16851973D02*
X7115420Y-16890069D01*
X7115420Y-16890069D02*
X7105896Y-16909116D01*
X7105896Y-16909116D02*
X7096372Y-16918640D01*
X7096372Y-16918640D02*
X7077325Y-16928164D01*
X7077325Y-16928164D02*
X7058277Y-16928164D01*
X7058277Y-16928164D02*
X7039229Y-16918640D01*
X7039229Y-16918640D02*
X7029706Y-16909116D01*
X7029706Y-16909116D02*
X7020182Y-16890069D01*
X7020182Y-16890069D02*
X7010658Y-16851973D01*
X7010658Y-16851973D02*
X7010658Y-16804354D01*
X7010658Y-16804354D02*
X7020182Y-16766259D01*
X7020182Y-16766259D02*
X7029706Y-16747211D01*
X7029706Y-16747211D02*
X7039229Y-16737688D01*
X7039229Y-16737688D02*
X7058277Y-16728164D01*
X7201134Y-16728164D02*
X7201134Y-16766259D01*
X7277325Y-16728164D02*
X7277325Y-16766259D01*
X7572563Y-17004354D02*
X7563039Y-16994830D01*
X7563039Y-16994830D02*
X7543991Y-16966259D01*
X7543991Y-16966259D02*
X7534468Y-16947211D01*
X7534468Y-16947211D02*
X7524944Y-16918640D01*
X7524944Y-16918640D02*
X7515420Y-16871021D01*
X7515420Y-16871021D02*
X7515420Y-16832926D01*
X7515420Y-16832926D02*
X7524944Y-16785307D01*
X7524944Y-16785307D02*
X7534468Y-16756735D01*
X7534468Y-16756735D02*
X7543991Y-16737688D01*
X7543991Y-16737688D02*
X7563039Y-16709116D01*
X7563039Y-16709116D02*
X7572563Y-16699592D01*
X7753515Y-16928164D02*
X7639229Y-16928164D01*
X7696372Y-16928164D02*
X7696372Y-16728164D01*
X7696372Y-16728164D02*
X7677325Y-16756735D01*
X7677325Y-16756735D02*
X7658277Y-16775783D01*
X7658277Y-16775783D02*
X7639229Y-16785307D01*
X7829706Y-16747211D02*
X7839229Y-16737688D01*
X7839229Y-16737688D02*
X7858277Y-16728164D01*
X7858277Y-16728164D02*
X7905896Y-16728164D01*
X7905896Y-16728164D02*
X7924944Y-16737688D01*
X7924944Y-16737688D02*
X7934468Y-16747211D01*
X7934468Y-16747211D02*
X7943991Y-16766259D01*
X7943991Y-16766259D02*
X7943991Y-16785307D01*
X7943991Y-16785307D02*
X7934468Y-16813878D01*
X7934468Y-16813878D02*
X7820182Y-16928164D01*
X7820182Y-16928164D02*
X7943991Y-16928164D01*
X8182087Y-16928164D02*
X8182087Y-16728164D01*
X8267801Y-16928164D02*
X8267801Y-16823402D01*
X8267801Y-16823402D02*
X8258277Y-16804354D01*
X8258277Y-16804354D02*
X8239230Y-16794830D01*
X8239230Y-16794830D02*
X8210658Y-16794830D01*
X8210658Y-16794830D02*
X8191610Y-16804354D01*
X8191610Y-16804354D02*
X8182087Y-16813878D01*
X8391611Y-16928164D02*
X8372563Y-16918640D01*
X8372563Y-16918640D02*
X8363039Y-16909116D01*
X8363039Y-16909116D02*
X8353515Y-16890069D01*
X8353515Y-16890069D02*
X8353515Y-16832926D01*
X8353515Y-16832926D02*
X8363039Y-16813878D01*
X8363039Y-16813878D02*
X8372563Y-16804354D01*
X8372563Y-16804354D02*
X8391611Y-16794830D01*
X8391611Y-16794830D02*
X8420182Y-16794830D01*
X8420182Y-16794830D02*
X8439230Y-16804354D01*
X8439230Y-16804354D02*
X8448753Y-16813878D01*
X8448753Y-16813878D02*
X8458277Y-16832926D01*
X8458277Y-16832926D02*
X8458277Y-16890069D01*
X8458277Y-16890069D02*
X8448753Y-16909116D01*
X8448753Y-16909116D02*
X8439230Y-16918640D01*
X8439230Y-16918640D02*
X8420182Y-16928164D01*
X8420182Y-16928164D02*
X8391611Y-16928164D01*
X8572563Y-16928164D02*
X8553515Y-16918640D01*
X8553515Y-16918640D02*
X8543992Y-16899592D01*
X8543992Y-16899592D02*
X8543992Y-16728164D01*
X8724944Y-16918640D02*
X8705896Y-16928164D01*
X8705896Y-16928164D02*
X8667801Y-16928164D01*
X8667801Y-16928164D02*
X8648753Y-16918640D01*
X8648753Y-16918640D02*
X8639230Y-16899592D01*
X8639230Y-16899592D02*
X8639230Y-16823402D01*
X8639230Y-16823402D02*
X8648753Y-16804354D01*
X8648753Y-16804354D02*
X8667801Y-16794830D01*
X8667801Y-16794830D02*
X8705896Y-16794830D01*
X8705896Y-16794830D02*
X8724944Y-16804354D01*
X8724944Y-16804354D02*
X8734468Y-16823402D01*
X8734468Y-16823402D02*
X8734468Y-16842450D01*
X8734468Y-16842450D02*
X8639230Y-16861497D01*
X8810658Y-16918640D02*
X8829706Y-16928164D01*
X8829706Y-16928164D02*
X8867801Y-16928164D01*
X8867801Y-16928164D02*
X8886849Y-16918640D01*
X8886849Y-16918640D02*
X8896373Y-16899592D01*
X8896373Y-16899592D02*
X8896373Y-16890069D01*
X8896373Y-16890069D02*
X8886849Y-16871021D01*
X8886849Y-16871021D02*
X8867801Y-16861497D01*
X8867801Y-16861497D02*
X8839230Y-16861497D01*
X8839230Y-16861497D02*
X8820182Y-16851973D01*
X8820182Y-16851973D02*
X8810658Y-16832926D01*
X8810658Y-16832926D02*
X8810658Y-16823402D01*
X8810658Y-16823402D02*
X8820182Y-16804354D01*
X8820182Y-16804354D02*
X8839230Y-16794830D01*
X8839230Y-16794830D02*
X8867801Y-16794830D01*
X8867801Y-16794830D02*
X8886849Y-16804354D01*
X8963039Y-17004354D02*
X8972563Y-16994830D01*
X8972563Y-16994830D02*
X8991611Y-16966259D01*
X8991611Y-16966259D02*
X9001134Y-16947211D01*
X9001134Y-16947211D02*
X9010658Y-16918640D01*
X9010658Y-16918640D02*
X9020182Y-16871021D01*
X9020182Y-16871021D02*
X9020182Y-16832926D01*
X9020182Y-16832926D02*
X9010658Y-16785307D01*
X9010658Y-16785307D02*
X9001134Y-16756735D01*
X9001134Y-16756735D02*
X8991611Y-16737688D01*
X8991611Y-16737688D02*
X8972563Y-16709116D01*
X8972563Y-16709116D02*
X8963039Y-16699592D01*
X9324944Y-17004354D02*
X9315420Y-16994830D01*
X9315420Y-16994830D02*
X9296373Y-16966259D01*
X9296373Y-16966259D02*
X9286849Y-16947211D01*
X9286849Y-16947211D02*
X9277325Y-16918640D01*
X9277325Y-16918640D02*
X9267801Y-16871021D01*
X9267801Y-16871021D02*
X9267801Y-16832926D01*
X9267801Y-16832926D02*
X9277325Y-16785307D01*
X9277325Y-16785307D02*
X9286849Y-16756735D01*
X9286849Y-16756735D02*
X9296373Y-16737688D01*
X9296373Y-16737688D02*
X9315420Y-16709116D01*
X9315420Y-16709116D02*
X9324944Y-16699592D01*
X9401134Y-16794830D02*
X9401134Y-16928164D01*
X9401134Y-16813878D02*
X9410658Y-16804354D01*
X9410658Y-16804354D02*
X9429706Y-16794830D01*
X9429706Y-16794830D02*
X9458277Y-16794830D01*
X9458277Y-16794830D02*
X9477325Y-16804354D01*
X9477325Y-16804354D02*
X9486849Y-16823402D01*
X9486849Y-16823402D02*
X9486849Y-16928164D01*
X9610658Y-16928164D02*
X9591611Y-16918640D01*
X9591611Y-16918640D02*
X9582087Y-16909116D01*
X9582087Y-16909116D02*
X9572563Y-16890069D01*
X9572563Y-16890069D02*
X9572563Y-16832926D01*
X9572563Y-16832926D02*
X9582087Y-16813878D01*
X9582087Y-16813878D02*
X9591611Y-16804354D01*
X9591611Y-16804354D02*
X9610658Y-16794830D01*
X9610658Y-16794830D02*
X9639230Y-16794830D01*
X9639230Y-16794830D02*
X9658277Y-16804354D01*
X9658277Y-16804354D02*
X9667801Y-16813878D01*
X9667801Y-16813878D02*
X9677325Y-16832926D01*
X9677325Y-16832926D02*
X9677325Y-16890069D01*
X9677325Y-16890069D02*
X9667801Y-16909116D01*
X9667801Y-16909116D02*
X9658277Y-16918640D01*
X9658277Y-16918640D02*
X9639230Y-16928164D01*
X9639230Y-16928164D02*
X9610658Y-16928164D01*
X9734468Y-16794830D02*
X9810658Y-16794830D01*
X9763039Y-16728164D02*
X9763039Y-16899592D01*
X9763039Y-16899592D02*
X9772563Y-16918640D01*
X9772563Y-16918640D02*
X9791611Y-16928164D01*
X9791611Y-16928164D02*
X9810658Y-16928164D01*
X10029706Y-16794830D02*
X10029706Y-16994830D01*
X10029706Y-16804354D02*
X10048754Y-16794830D01*
X10048754Y-16794830D02*
X10086849Y-16794830D01*
X10086849Y-16794830D02*
X10105896Y-16804354D01*
X10105896Y-16804354D02*
X10115420Y-16813878D01*
X10115420Y-16813878D02*
X10124944Y-16832926D01*
X10124944Y-16832926D02*
X10124944Y-16890069D01*
X10124944Y-16890069D02*
X10115420Y-16909116D01*
X10115420Y-16909116D02*
X10105896Y-16918640D01*
X10105896Y-16918640D02*
X10086849Y-16928164D01*
X10086849Y-16928164D02*
X10048754Y-16928164D01*
X10048754Y-16928164D02*
X10029706Y-16918640D01*
X10239230Y-16928164D02*
X10220182Y-16918640D01*
X10220182Y-16918640D02*
X10210658Y-16899592D01*
X10210658Y-16899592D02*
X10210658Y-16728164D01*
X10401135Y-16928164D02*
X10401135Y-16823402D01*
X10401135Y-16823402D02*
X10391611Y-16804354D01*
X10391611Y-16804354D02*
X10372563Y-16794830D01*
X10372563Y-16794830D02*
X10334468Y-16794830D01*
X10334468Y-16794830D02*
X10315420Y-16804354D01*
X10401135Y-16918640D02*
X10382087Y-16928164D01*
X10382087Y-16928164D02*
X10334468Y-16928164D01*
X10334468Y-16928164D02*
X10315420Y-16918640D01*
X10315420Y-16918640D02*
X10305896Y-16899592D01*
X10305896Y-16899592D02*
X10305896Y-16880545D01*
X10305896Y-16880545D02*
X10315420Y-16861497D01*
X10315420Y-16861497D02*
X10334468Y-16851973D01*
X10334468Y-16851973D02*
X10382087Y-16851973D01*
X10382087Y-16851973D02*
X10401135Y-16842450D01*
X10467801Y-16794830D02*
X10543992Y-16794830D01*
X10496373Y-16728164D02*
X10496373Y-16899592D01*
X10496373Y-16899592D02*
X10505896Y-16918640D01*
X10505896Y-16918640D02*
X10524944Y-16928164D01*
X10524944Y-16928164D02*
X10543992Y-16928164D01*
X10686849Y-16918640D02*
X10667801Y-16928164D01*
X10667801Y-16928164D02*
X10629706Y-16928164D01*
X10629706Y-16928164D02*
X10610658Y-16918640D01*
X10610658Y-16918640D02*
X10601135Y-16899592D01*
X10601135Y-16899592D02*
X10601135Y-16823402D01*
X10601135Y-16823402D02*
X10610658Y-16804354D01*
X10610658Y-16804354D02*
X10629706Y-16794830D01*
X10629706Y-16794830D02*
X10667801Y-16794830D01*
X10667801Y-16794830D02*
X10686849Y-16804354D01*
X10686849Y-16804354D02*
X10696373Y-16823402D01*
X10696373Y-16823402D02*
X10696373Y-16842450D01*
X10696373Y-16842450D02*
X10601135Y-16861497D01*
X10867801Y-16928164D02*
X10867801Y-16728164D01*
X10867801Y-16918640D02*
X10848754Y-16928164D01*
X10848754Y-16928164D02*
X10810658Y-16928164D01*
X10810658Y-16928164D02*
X10791611Y-16918640D01*
X10791611Y-16918640D02*
X10782087Y-16909116D01*
X10782087Y-16909116D02*
X10772563Y-16890069D01*
X10772563Y-16890069D02*
X10772563Y-16832926D01*
X10772563Y-16832926D02*
X10782087Y-16813878D01*
X10782087Y-16813878D02*
X10791611Y-16804354D01*
X10791611Y-16804354D02*
X10810658Y-16794830D01*
X10810658Y-16794830D02*
X10848754Y-16794830D01*
X10848754Y-16794830D02*
X10867801Y-16804354D01*
X10943992Y-17004354D02*
X10953516Y-16994830D01*
X10953516Y-16994830D02*
X10972563Y-16966259D01*
X10972563Y-16966259D02*
X10982087Y-16947211D01*
X10982087Y-16947211D02*
X10991611Y-16918640D01*
X10991611Y-16918640D02*
X11001135Y-16871021D01*
X11001135Y-16871021D02*
X11001135Y-16832926D01*
X11001135Y-16832926D02*
X10991611Y-16785307D01*
X10991611Y-16785307D02*
X10982087Y-16756735D01*
X10982087Y-16756735D02*
X10972563Y-16737688D01*
X10972563Y-16737688D02*
X10953516Y-16709116D01*
X10953516Y-16709116D02*
X10943992Y-16699592D01*
X3797500Y-17056680D02*
X3997500Y-17256680D01*
X3997500Y-17056680D02*
X3797500Y-17256680D01*
X3997500Y-17156680D02*
G75*
G02*
X3797500Y-17156680I-100000J0D01*
G01*
X3797500Y-17156680D02*
G75*
G02*
X3997500Y-17156680I100000J0D01*
G01*
X4343991Y-17048164D02*
X4305896Y-17048164D01*
X4305896Y-17048164D02*
X4286848Y-17057688D01*
X4286848Y-17057688D02*
X4277324Y-17067211D01*
X4277324Y-17067211D02*
X4258277Y-17095783D01*
X4258277Y-17095783D02*
X4248753Y-17133878D01*
X4248753Y-17133878D02*
X4248753Y-17210069D01*
X4248753Y-17210069D02*
X4258277Y-17229116D01*
X4258277Y-17229116D02*
X4267801Y-17238640D01*
X4267801Y-17238640D02*
X4286848Y-17248164D01*
X4286848Y-17248164D02*
X4324944Y-17248164D01*
X4324944Y-17248164D02*
X4343991Y-17238640D01*
X4343991Y-17238640D02*
X4353515Y-17229116D01*
X4353515Y-17229116D02*
X4363039Y-17210069D01*
X4363039Y-17210069D02*
X4363039Y-17162450D01*
X4363039Y-17162450D02*
X4353515Y-17143402D01*
X4353515Y-17143402D02*
X4343991Y-17133878D01*
X4343991Y-17133878D02*
X4324944Y-17124354D01*
X4324944Y-17124354D02*
X4286848Y-17124354D01*
X4286848Y-17124354D02*
X4267801Y-17133878D01*
X4267801Y-17133878D02*
X4258277Y-17143402D01*
X4258277Y-17143402D02*
X4248753Y-17162450D01*
X4448753Y-17229116D02*
X4458277Y-17238640D01*
X4458277Y-17238640D02*
X4448753Y-17248164D01*
X4448753Y-17248164D02*
X4439229Y-17238640D01*
X4439229Y-17238640D02*
X4448753Y-17229116D01*
X4448753Y-17229116D02*
X4448753Y-17248164D01*
X4629705Y-17114830D02*
X4629705Y-17248164D01*
X4582086Y-17038640D02*
X4534467Y-17181497D01*
X4534467Y-17181497D02*
X4658277Y-17181497D01*
X4772563Y-17048164D02*
X4791610Y-17048164D01*
X4791610Y-17048164D02*
X4810658Y-17057688D01*
X4810658Y-17057688D02*
X4820182Y-17067211D01*
X4820182Y-17067211D02*
X4829705Y-17086259D01*
X4829705Y-17086259D02*
X4839229Y-17124354D01*
X4839229Y-17124354D02*
X4839229Y-17171973D01*
X4839229Y-17171973D02*
X4829705Y-17210069D01*
X4829705Y-17210069D02*
X4820182Y-17229116D01*
X4820182Y-17229116D02*
X4810658Y-17238640D01*
X4810658Y-17238640D02*
X4791610Y-17248164D01*
X4791610Y-17248164D02*
X4772563Y-17248164D01*
X4772563Y-17248164D02*
X4753515Y-17238640D01*
X4753515Y-17238640D02*
X4743991Y-17229116D01*
X4743991Y-17229116D02*
X4734467Y-17210069D01*
X4734467Y-17210069D02*
X4724944Y-17171973D01*
X4724944Y-17171973D02*
X4724944Y-17124354D01*
X4724944Y-17124354D02*
X4734467Y-17086259D01*
X4734467Y-17086259D02*
X4743991Y-17067211D01*
X4743991Y-17067211D02*
X4753515Y-17057688D01*
X4753515Y-17057688D02*
X4772563Y-17048164D01*
X4963039Y-17048164D02*
X4982086Y-17048164D01*
X4982086Y-17048164D02*
X5001134Y-17057688D01*
X5001134Y-17057688D02*
X5010658Y-17067211D01*
X5010658Y-17067211D02*
X5020182Y-17086259D01*
X5020182Y-17086259D02*
X5029705Y-17124354D01*
X5029705Y-17124354D02*
X5029705Y-17171973D01*
X5029705Y-17171973D02*
X5020182Y-17210069D01*
X5020182Y-17210069D02*
X5010658Y-17229116D01*
X5010658Y-17229116D02*
X5001134Y-17238640D01*
X5001134Y-17238640D02*
X4982086Y-17248164D01*
X4982086Y-17248164D02*
X4963039Y-17248164D01*
X4963039Y-17248164D02*
X4943991Y-17238640D01*
X4943991Y-17238640D02*
X4934467Y-17229116D01*
X4934467Y-17229116D02*
X4924944Y-17210069D01*
X4924944Y-17210069D02*
X4915420Y-17171973D01*
X4915420Y-17171973D02*
X4915420Y-17124354D01*
X4915420Y-17124354D02*
X4924944Y-17086259D01*
X4924944Y-17086259D02*
X4934467Y-17067211D01*
X4934467Y-17067211D02*
X4943991Y-17057688D01*
X4943991Y-17057688D02*
X4963039Y-17048164D01*
X5115420Y-17248164D02*
X5115420Y-17114830D01*
X5115420Y-17133878D02*
X5124944Y-17124354D01*
X5124944Y-17124354D02*
X5143991Y-17114830D01*
X5143991Y-17114830D02*
X5172563Y-17114830D01*
X5172563Y-17114830D02*
X5191610Y-17124354D01*
X5191610Y-17124354D02*
X5201134Y-17143402D01*
X5201134Y-17143402D02*
X5201134Y-17248164D01*
X5201134Y-17143402D02*
X5210658Y-17124354D01*
X5210658Y-17124354D02*
X5229705Y-17114830D01*
X5229705Y-17114830D02*
X5258277Y-17114830D01*
X5258277Y-17114830D02*
X5277325Y-17124354D01*
X5277325Y-17124354D02*
X5286848Y-17143402D01*
X5286848Y-17143402D02*
X5286848Y-17248164D01*
X5382086Y-17248164D02*
X5382086Y-17114830D01*
X5382086Y-17133878D02*
X5391610Y-17124354D01*
X5391610Y-17124354D02*
X5410658Y-17114830D01*
X5410658Y-17114830D02*
X5439229Y-17114830D01*
X5439229Y-17114830D02*
X5458277Y-17124354D01*
X5458277Y-17124354D02*
X5467801Y-17143402D01*
X5467801Y-17143402D02*
X5467801Y-17248164D01*
X5467801Y-17143402D02*
X5477325Y-17124354D01*
X5477325Y-17124354D02*
X5496372Y-17114830D01*
X5496372Y-17114830D02*
X5524944Y-17114830D01*
X5524944Y-17114830D02*
X5543991Y-17124354D01*
X5543991Y-17124354D02*
X5553515Y-17143402D01*
X5553515Y-17143402D02*
X5553515Y-17248164D01*
X5943991Y-17038640D02*
X5772563Y-17295783D01*
X6201134Y-17048164D02*
X6220182Y-17048164D01*
X6220182Y-17048164D02*
X6239229Y-17057688D01*
X6239229Y-17057688D02*
X6248753Y-17067211D01*
X6248753Y-17067211D02*
X6258277Y-17086259D01*
X6258277Y-17086259D02*
X6267801Y-17124354D01*
X6267801Y-17124354D02*
X6267801Y-17171973D01*
X6267801Y-17171973D02*
X6258277Y-17210069D01*
X6258277Y-17210069D02*
X6248753Y-17229116D01*
X6248753Y-17229116D02*
X6239229Y-17238640D01*
X6239229Y-17238640D02*
X6220182Y-17248164D01*
X6220182Y-17248164D02*
X6201134Y-17248164D01*
X6201134Y-17248164D02*
X6182086Y-17238640D01*
X6182086Y-17238640D02*
X6172563Y-17229116D01*
X6172563Y-17229116D02*
X6163039Y-17210069D01*
X6163039Y-17210069D02*
X6153515Y-17171973D01*
X6153515Y-17171973D02*
X6153515Y-17124354D01*
X6153515Y-17124354D02*
X6163039Y-17086259D01*
X6163039Y-17086259D02*
X6172563Y-17067211D01*
X6172563Y-17067211D02*
X6182086Y-17057688D01*
X6182086Y-17057688D02*
X6201134Y-17048164D01*
X6353515Y-17229116D02*
X6363039Y-17238640D01*
X6363039Y-17238640D02*
X6353515Y-17248164D01*
X6353515Y-17248164D02*
X6343991Y-17238640D01*
X6343991Y-17238640D02*
X6353515Y-17229116D01*
X6353515Y-17229116D02*
X6353515Y-17248164D01*
X6439229Y-17067211D02*
X6448753Y-17057688D01*
X6448753Y-17057688D02*
X6467801Y-17048164D01*
X6467801Y-17048164D02*
X6515420Y-17048164D01*
X6515420Y-17048164D02*
X6534467Y-17057688D01*
X6534467Y-17057688D02*
X6543991Y-17067211D01*
X6543991Y-17067211D02*
X6553515Y-17086259D01*
X6553515Y-17086259D02*
X6553515Y-17105307D01*
X6553515Y-17105307D02*
X6543991Y-17133878D01*
X6543991Y-17133878D02*
X6429706Y-17248164D01*
X6429706Y-17248164D02*
X6553515Y-17248164D01*
X6734467Y-17048164D02*
X6639229Y-17048164D01*
X6639229Y-17048164D02*
X6629706Y-17143402D01*
X6629706Y-17143402D02*
X6639229Y-17133878D01*
X6639229Y-17133878D02*
X6658277Y-17124354D01*
X6658277Y-17124354D02*
X6705896Y-17124354D01*
X6705896Y-17124354D02*
X6724944Y-17133878D01*
X6724944Y-17133878D02*
X6734467Y-17143402D01*
X6734467Y-17143402D02*
X6743991Y-17162450D01*
X6743991Y-17162450D02*
X6743991Y-17210069D01*
X6743991Y-17210069D02*
X6734467Y-17229116D01*
X6734467Y-17229116D02*
X6724944Y-17238640D01*
X6724944Y-17238640D02*
X6705896Y-17248164D01*
X6705896Y-17248164D02*
X6658277Y-17248164D01*
X6658277Y-17248164D02*
X6639229Y-17238640D01*
X6639229Y-17238640D02*
X6629706Y-17229116D01*
X6820182Y-17067211D02*
X6829706Y-17057688D01*
X6829706Y-17057688D02*
X6848753Y-17048164D01*
X6848753Y-17048164D02*
X6896372Y-17048164D01*
X6896372Y-17048164D02*
X6915420Y-17057688D01*
X6915420Y-17057688D02*
X6924944Y-17067211D01*
X6924944Y-17067211D02*
X6934467Y-17086259D01*
X6934467Y-17086259D02*
X6934467Y-17105307D01*
X6934467Y-17105307D02*
X6924944Y-17133878D01*
X6924944Y-17133878D02*
X6810658Y-17248164D01*
X6810658Y-17248164D02*
X6934467Y-17248164D01*
X7058277Y-17048164D02*
X7077325Y-17048164D01*
X7077325Y-17048164D02*
X7096372Y-17057688D01*
X7096372Y-17057688D02*
X7105896Y-17067211D01*
X7105896Y-17067211D02*
X7115420Y-17086259D01*
X7115420Y-17086259D02*
X7124944Y-17124354D01*
X7124944Y-17124354D02*
X7124944Y-17171973D01*
X7124944Y-17171973D02*
X7115420Y-17210069D01*
X7115420Y-17210069D02*
X7105896Y-17229116D01*
X7105896Y-17229116D02*
X7096372Y-17238640D01*
X7096372Y-17238640D02*
X7077325Y-17248164D01*
X7077325Y-17248164D02*
X7058277Y-17248164D01*
X7058277Y-17248164D02*
X7039229Y-17238640D01*
X7039229Y-17238640D02*
X7029706Y-17229116D01*
X7029706Y-17229116D02*
X7020182Y-17210069D01*
X7020182Y-17210069D02*
X7010658Y-17171973D01*
X7010658Y-17171973D02*
X7010658Y-17124354D01*
X7010658Y-17124354D02*
X7020182Y-17086259D01*
X7020182Y-17086259D02*
X7029706Y-17067211D01*
X7029706Y-17067211D02*
X7039229Y-17057688D01*
X7039229Y-17057688D02*
X7058277Y-17048164D01*
X7201134Y-17048164D02*
X7201134Y-17086259D01*
X7277325Y-17048164D02*
X7277325Y-17086259D01*
X7572563Y-17324354D02*
X7563039Y-17314830D01*
X7563039Y-17314830D02*
X7543991Y-17286259D01*
X7543991Y-17286259D02*
X7534468Y-17267211D01*
X7534468Y-17267211D02*
X7524944Y-17238640D01*
X7524944Y-17238640D02*
X7515420Y-17191021D01*
X7515420Y-17191021D02*
X7515420Y-17152926D01*
X7515420Y-17152926D02*
X7524944Y-17105307D01*
X7524944Y-17105307D02*
X7534468Y-17076735D01*
X7534468Y-17076735D02*
X7543991Y-17057688D01*
X7543991Y-17057688D02*
X7563039Y-17029116D01*
X7563039Y-17029116D02*
X7572563Y-17019592D01*
X7629706Y-17048164D02*
X7763039Y-17048164D01*
X7763039Y-17048164D02*
X7677325Y-17248164D01*
X7991610Y-17248164D02*
X7991610Y-17048164D01*
X8077325Y-17248164D02*
X8077325Y-17143402D01*
X8077325Y-17143402D02*
X8067801Y-17124354D01*
X8067801Y-17124354D02*
X8048753Y-17114830D01*
X8048753Y-17114830D02*
X8020182Y-17114830D01*
X8020182Y-17114830D02*
X8001134Y-17124354D01*
X8001134Y-17124354D02*
X7991610Y-17133878D01*
X8201134Y-17248164D02*
X8182087Y-17238640D01*
X8182087Y-17238640D02*
X8172563Y-17229116D01*
X8172563Y-17229116D02*
X8163039Y-17210069D01*
X8163039Y-17210069D02*
X8163039Y-17152926D01*
X8163039Y-17152926D02*
X8172563Y-17133878D01*
X8172563Y-17133878D02*
X8182087Y-17124354D01*
X8182087Y-17124354D02*
X8201134Y-17114830D01*
X8201134Y-17114830D02*
X8229706Y-17114830D01*
X8229706Y-17114830D02*
X8248753Y-17124354D01*
X8248753Y-17124354D02*
X8258277Y-17133878D01*
X8258277Y-17133878D02*
X8267801Y-17152926D01*
X8267801Y-17152926D02*
X8267801Y-17210069D01*
X8267801Y-17210069D02*
X8258277Y-17229116D01*
X8258277Y-17229116D02*
X8248753Y-17238640D01*
X8248753Y-17238640D02*
X8229706Y-17248164D01*
X8229706Y-17248164D02*
X8201134Y-17248164D01*
X8382087Y-17248164D02*
X8363039Y-17238640D01*
X8363039Y-17238640D02*
X8353515Y-17219592D01*
X8353515Y-17219592D02*
X8353515Y-17048164D01*
X8534468Y-17238640D02*
X8515420Y-17248164D01*
X8515420Y-17248164D02*
X8477325Y-17248164D01*
X8477325Y-17248164D02*
X8458277Y-17238640D01*
X8458277Y-17238640D02*
X8448753Y-17219592D01*
X8448753Y-17219592D02*
X8448753Y-17143402D01*
X8448753Y-17143402D02*
X8458277Y-17124354D01*
X8458277Y-17124354D02*
X8477325Y-17114830D01*
X8477325Y-17114830D02*
X8515420Y-17114830D01*
X8515420Y-17114830D02*
X8534468Y-17124354D01*
X8534468Y-17124354D02*
X8543992Y-17143402D01*
X8543992Y-17143402D02*
X8543992Y-17162450D01*
X8543992Y-17162450D02*
X8448753Y-17181497D01*
X8620182Y-17238640D02*
X8639230Y-17248164D01*
X8639230Y-17248164D02*
X8677325Y-17248164D01*
X8677325Y-17248164D02*
X8696373Y-17238640D01*
X8696373Y-17238640D02*
X8705896Y-17219592D01*
X8705896Y-17219592D02*
X8705896Y-17210069D01*
X8705896Y-17210069D02*
X8696373Y-17191021D01*
X8696373Y-17191021D02*
X8677325Y-17181497D01*
X8677325Y-17181497D02*
X8648753Y-17181497D01*
X8648753Y-17181497D02*
X8629706Y-17171973D01*
X8629706Y-17171973D02*
X8620182Y-17152926D01*
X8620182Y-17152926D02*
X8620182Y-17143402D01*
X8620182Y-17143402D02*
X8629706Y-17124354D01*
X8629706Y-17124354D02*
X8648753Y-17114830D01*
X8648753Y-17114830D02*
X8677325Y-17114830D01*
X8677325Y-17114830D02*
X8696373Y-17124354D01*
X8772563Y-17324354D02*
X8782087Y-17314830D01*
X8782087Y-17314830D02*
X8801134Y-17286259D01*
X8801134Y-17286259D02*
X8810658Y-17267211D01*
X8810658Y-17267211D02*
X8820182Y-17238640D01*
X8820182Y-17238640D02*
X8829706Y-17191021D01*
X8829706Y-17191021D02*
X8829706Y-17152926D01*
X8829706Y-17152926D02*
X8820182Y-17105307D01*
X8820182Y-17105307D02*
X8810658Y-17076735D01*
X8810658Y-17076735D02*
X8801134Y-17057688D01*
X8801134Y-17057688D02*
X8782087Y-17029116D01*
X8782087Y-17029116D02*
X8772563Y-17019592D01*
X9134468Y-17324354D02*
X9124944Y-17314830D01*
X9124944Y-17314830D02*
X9105896Y-17286259D01*
X9105896Y-17286259D02*
X9096373Y-17267211D01*
X9096373Y-17267211D02*
X9086849Y-17238640D01*
X9086849Y-17238640D02*
X9077325Y-17191021D01*
X9077325Y-17191021D02*
X9077325Y-17152926D01*
X9077325Y-17152926D02*
X9086849Y-17105307D01*
X9086849Y-17105307D02*
X9096373Y-17076735D01*
X9096373Y-17076735D02*
X9105896Y-17057688D01*
X9105896Y-17057688D02*
X9124944Y-17029116D01*
X9124944Y-17029116D02*
X9134468Y-17019592D01*
X9210658Y-17114830D02*
X9210658Y-17248164D01*
X9210658Y-17133878D02*
X9220182Y-17124354D01*
X9220182Y-17124354D02*
X9239230Y-17114830D01*
X9239230Y-17114830D02*
X9267801Y-17114830D01*
X9267801Y-17114830D02*
X9286849Y-17124354D01*
X9286849Y-17124354D02*
X9296373Y-17143402D01*
X9296373Y-17143402D02*
X9296373Y-17248164D01*
X9420182Y-17248164D02*
X9401134Y-17238640D01*
X9401134Y-17238640D02*
X9391611Y-17229116D01*
X9391611Y-17229116D02*
X9382087Y-17210069D01*
X9382087Y-17210069D02*
X9382087Y-17152926D01*
X9382087Y-17152926D02*
X9391611Y-17133878D01*
X9391611Y-17133878D02*
X9401134Y-17124354D01*
X9401134Y-17124354D02*
X9420182Y-17114830D01*
X9420182Y-17114830D02*
X9448754Y-17114830D01*
X9448754Y-17114830D02*
X9467801Y-17124354D01*
X9467801Y-17124354D02*
X9477325Y-17133878D01*
X9477325Y-17133878D02*
X9486849Y-17152926D01*
X9486849Y-17152926D02*
X9486849Y-17210069D01*
X9486849Y-17210069D02*
X9477325Y-17229116D01*
X9477325Y-17229116D02*
X9467801Y-17238640D01*
X9467801Y-17238640D02*
X9448754Y-17248164D01*
X9448754Y-17248164D02*
X9420182Y-17248164D01*
X9543992Y-17114830D02*
X9620182Y-17114830D01*
X9572563Y-17048164D02*
X9572563Y-17219592D01*
X9572563Y-17219592D02*
X9582087Y-17238640D01*
X9582087Y-17238640D02*
X9601134Y-17248164D01*
X9601134Y-17248164D02*
X9620182Y-17248164D01*
X9839230Y-17114830D02*
X9839230Y-17314830D01*
X9839230Y-17124354D02*
X9858277Y-17114830D01*
X9858277Y-17114830D02*
X9896373Y-17114830D01*
X9896373Y-17114830D02*
X9915420Y-17124354D01*
X9915420Y-17124354D02*
X9924944Y-17133878D01*
X9924944Y-17133878D02*
X9934468Y-17152926D01*
X9934468Y-17152926D02*
X9934468Y-17210069D01*
X9934468Y-17210069D02*
X9924944Y-17229116D01*
X9924944Y-17229116D02*
X9915420Y-17238640D01*
X9915420Y-17238640D02*
X9896373Y-17248164D01*
X9896373Y-17248164D02*
X9858277Y-17248164D01*
X9858277Y-17248164D02*
X9839230Y-17238640D01*
X10048754Y-17248164D02*
X10029706Y-17238640D01*
X10029706Y-17238640D02*
X10020182Y-17219592D01*
X10020182Y-17219592D02*
X10020182Y-17048164D01*
X10210658Y-17248164D02*
X10210658Y-17143402D01*
X10210658Y-17143402D02*
X10201135Y-17124354D01*
X10201135Y-17124354D02*
X10182087Y-17114830D01*
X10182087Y-17114830D02*
X10143992Y-17114830D01*
X10143992Y-17114830D02*
X10124944Y-17124354D01*
X10210658Y-17238640D02*
X10191611Y-17248164D01*
X10191611Y-17248164D02*
X10143992Y-17248164D01*
X10143992Y-17248164D02*
X10124944Y-17238640D01*
X10124944Y-17238640D02*
X10115420Y-17219592D01*
X10115420Y-17219592D02*
X10115420Y-17200545D01*
X10115420Y-17200545D02*
X10124944Y-17181497D01*
X10124944Y-17181497D02*
X10143992Y-17171973D01*
X10143992Y-17171973D02*
X10191611Y-17171973D01*
X10191611Y-17171973D02*
X10210658Y-17162450D01*
X10277325Y-17114830D02*
X10353515Y-17114830D01*
X10305896Y-17048164D02*
X10305896Y-17219592D01*
X10305896Y-17219592D02*
X10315420Y-17238640D01*
X10315420Y-17238640D02*
X10334468Y-17248164D01*
X10334468Y-17248164D02*
X10353515Y-17248164D01*
X10496373Y-17238640D02*
X10477325Y-17248164D01*
X10477325Y-17248164D02*
X10439230Y-17248164D01*
X10439230Y-17248164D02*
X10420182Y-17238640D01*
X10420182Y-17238640D02*
X10410658Y-17219592D01*
X10410658Y-17219592D02*
X10410658Y-17143402D01*
X10410658Y-17143402D02*
X10420182Y-17124354D01*
X10420182Y-17124354D02*
X10439230Y-17114830D01*
X10439230Y-17114830D02*
X10477325Y-17114830D01*
X10477325Y-17114830D02*
X10496373Y-17124354D01*
X10496373Y-17124354D02*
X10505896Y-17143402D01*
X10505896Y-17143402D02*
X10505896Y-17162450D01*
X10505896Y-17162450D02*
X10410658Y-17181497D01*
X10677325Y-17248164D02*
X10677325Y-17048164D01*
X10677325Y-17238640D02*
X10658277Y-17248164D01*
X10658277Y-17248164D02*
X10620182Y-17248164D01*
X10620182Y-17248164D02*
X10601135Y-17238640D01*
X10601135Y-17238640D02*
X10591611Y-17229116D01*
X10591611Y-17229116D02*
X10582087Y-17210069D01*
X10582087Y-17210069D02*
X10582087Y-17152926D01*
X10582087Y-17152926D02*
X10591611Y-17133878D01*
X10591611Y-17133878D02*
X10601135Y-17124354D01*
X10601135Y-17124354D02*
X10620182Y-17114830D01*
X10620182Y-17114830D02*
X10658277Y-17114830D01*
X10658277Y-17114830D02*
X10677325Y-17124354D01*
X10753516Y-17324354D02*
X10763039Y-17314830D01*
X10763039Y-17314830D02*
X10782087Y-17286259D01*
X10782087Y-17286259D02*
X10791611Y-17267211D01*
X10791611Y-17267211D02*
X10801135Y-17238640D01*
X10801135Y-17238640D02*
X10810658Y-17191021D01*
X10810658Y-17191021D02*
X10810658Y-17152926D01*
X10810658Y-17152926D02*
X10801135Y-17105307D01*
X10801135Y-17105307D02*
X10791611Y-17076735D01*
X10791611Y-17076735D02*
X10782087Y-17057688D01*
X10782087Y-17057688D02*
X10763039Y-17029116D01*
X10763039Y-17029116D02*
X10753516Y-17019592D01*
M02*
