%TF.GenerationSoftware,KiCad,Pcbnew,9.0.0*%
%TF.CreationDate,2025-03-17T16:01:18+01:00*%
%TF.ProjectId,Flatbox-rev8,466c6174-626f-4782-9d72-6576382e6b69,rev?*%
%TF.SameCoordinates,Original*%
%TF.FileFunction,Drillmap*%
%TF.FilePolarity,Positive*%
%FSLAX45Y45*%
G04 Gerber Fmt 4.5, Leading zero omitted, Abs format (unit mm)*
G04 Created by KiCad (PCBNEW 9.0.0) date 2025-03-17 16:01:18*
%MOMM*%
%LPD*%
G01*
G04 APERTURE LIST*
%ADD10C,0.050000*%
%ADD11C,0.200000*%
%ADD12C,0.100000*%
%ADD13C,0.110000*%
%ADD14C,0.127000*%
G04 APERTURE END LIST*
D10*
X4500000Y-2640000D02*
X18330000Y-2640000D01*
X25000000Y-3140000D02*
X25000000Y-14500000D01*
X24500000Y-15000000D02*
X4500000Y-15000000D01*
X4000000Y-14500000D02*
X4000000Y-3140000D01*
X19670000Y-2640000D02*
X19670000Y-3567100D01*
X19670000Y-2640000D02*
X24500000Y-2640000D01*
X4000000Y-3140000D02*
G75*
G02*
X4500000Y-2640000I500000J0D01*
G01*
X19670000Y-3567100D02*
X18330000Y-3567100D01*
X4500000Y-15000000D02*
G75*
G02*
X4000000Y-14500000I0J500000D01*
G01*
X25000000Y-14500000D02*
G75*
G02*
X24500000Y-15000000I-500000J0D01*
G01*
X18330000Y-3567100D02*
X18330000Y-2640000D01*
X24500000Y-2640000D02*
G75*
G02*
X25000000Y-3140000I0J-500000D01*
G01*
D11*
D12*
X10847500Y-5632500D02*
X10882500Y-5667500D01*
X10882500Y-5632500D02*
X10847500Y-5667500D01*
X11622500Y-6172500D02*
X11657500Y-6207500D01*
X11657500Y-6172500D02*
X11622500Y-6207500D01*
X12047500Y-3232500D02*
X12082500Y-3267500D01*
X12082500Y-3232500D02*
X12047500Y-3267500D01*
X12207500Y-5092500D02*
X12242500Y-5127500D01*
X12242500Y-5092500D02*
X12207500Y-5127500D01*
X12277500Y-4677500D02*
X12312500Y-4712500D01*
X12312500Y-4677500D02*
X12277500Y-4712500D01*
X12412500Y-4342500D02*
X12447500Y-4377500D01*
X12447500Y-4342500D02*
X12412500Y-4377500D01*
X12417500Y-4882500D02*
X12452500Y-4917500D01*
X12452500Y-4882500D02*
X12417500Y-4917500D01*
X12502500Y-4462500D02*
X12537500Y-4497500D01*
X12537500Y-4462500D02*
X12502500Y-4497500D01*
X12537500Y-4672500D02*
X12572500Y-4707500D01*
X12572500Y-4672500D02*
X12537500Y-4707500D01*
X12592500Y-3947500D02*
X12627500Y-3982500D01*
X12627500Y-3947500D02*
X12592500Y-3982500D01*
X12717500Y-5202500D02*
X12752500Y-5237500D01*
X12752500Y-5202500D02*
X12717500Y-5237500D01*
X12812500Y-5557500D02*
X12847500Y-5592500D01*
X12847500Y-5557500D02*
X12812500Y-5592500D01*
X12812500Y-5807500D02*
X12847500Y-5842500D01*
X12847500Y-5807500D02*
X12812500Y-5842500D01*
X12857550Y-4652500D02*
X12892550Y-4687500D01*
X12892550Y-4652500D02*
X12857550Y-4687500D01*
X12862500Y-3872500D02*
X12897500Y-3907500D01*
X12897500Y-3872500D02*
X12862500Y-3907500D01*
X13092500Y-4947450D02*
X13127500Y-4982450D01*
X13127500Y-4947450D02*
X13092500Y-4982450D01*
X13092500Y-5247500D02*
X13127500Y-5282500D01*
X13127500Y-5247500D02*
X13092500Y-5282500D01*
X13121277Y-4517550D02*
X13156277Y-4552550D01*
X13156277Y-4517550D02*
X13121277Y-4552550D01*
X13122500Y-4142500D02*
X13157500Y-4177500D01*
X13157500Y-4142500D02*
X13122500Y-4177500D01*
X13122500Y-4202500D02*
X13157500Y-4237500D01*
X13157500Y-4202500D02*
X13122500Y-4237500D01*
X13232500Y-5407500D02*
X13267500Y-5442500D01*
X13267500Y-5407500D02*
X13232500Y-5442500D01*
X13287450Y-4692500D02*
X13322450Y-4727500D01*
X13322450Y-4692500D02*
X13287450Y-4727500D01*
X13342500Y-5977500D02*
X13377500Y-6012500D01*
X13377500Y-5977500D02*
X13342500Y-6012500D01*
X13352500Y-5557500D02*
X13387500Y-5592500D01*
X13387500Y-5557500D02*
X13352500Y-5592500D01*
X13382500Y-4182500D02*
X13417500Y-4217500D01*
X13417500Y-4182500D02*
X13382500Y-4217500D01*
X13382500Y-4242500D02*
X13417500Y-4277500D01*
X13417500Y-4242500D02*
X13382500Y-4277500D01*
X13457500Y-4347500D02*
X13492500Y-4382500D01*
X13492500Y-4347500D02*
X13457500Y-4382500D01*
X13617500Y-5207500D02*
X13652500Y-5242500D01*
X13652500Y-5207500D02*
X13617500Y-5242500D01*
X13650282Y-4712500D02*
X13685282Y-4747500D01*
X13685282Y-4712500D02*
X13650282Y-4747500D01*
X13742500Y-4462500D02*
X13777500Y-4497500D01*
X13777500Y-4462500D02*
X13742500Y-4497500D01*
X13754500Y-4108500D02*
X13789500Y-4143500D01*
X13789500Y-4108500D02*
X13754500Y-4143500D01*
X13902500Y-4745000D02*
X13937500Y-4780000D01*
X13937500Y-4745000D02*
X13902500Y-4780000D01*
X13905000Y-4845000D02*
X13940000Y-4880000D01*
X13940000Y-4845000D02*
X13905000Y-4880000D01*
X14057500Y-3642500D02*
X14092500Y-3677500D01*
X14092500Y-3642500D02*
X14057500Y-3677500D01*
X14057626Y-3802500D02*
X14092626Y-3837500D01*
X14092626Y-3802500D02*
X14057626Y-3837500D01*
X14357500Y-4196500D02*
X14392500Y-4231500D01*
X14392500Y-4196500D02*
X14357500Y-4231500D01*
X14637500Y-3622500D02*
X14672500Y-3657500D01*
X14672500Y-3622500D02*
X14637500Y-3657500D01*
X14807500Y-3437500D02*
X14842500Y-3472500D01*
X14842500Y-3437500D02*
X14807500Y-3472500D01*
X15227394Y-5072380D02*
X15262394Y-5107380D01*
X15262394Y-5072380D02*
X15227394Y-5107380D01*
X15227500Y-4567500D02*
X15262500Y-4602500D01*
X15262500Y-4567500D02*
X15227500Y-4602500D01*
X15280173Y-5132500D02*
X15315173Y-5167500D01*
X15315173Y-5132500D02*
X15280173Y-5167500D01*
X15287500Y-4507500D02*
X15322500Y-4542500D01*
X15322500Y-4507500D02*
X15287500Y-4542500D01*
X18492500Y-3682500D02*
X18527500Y-3717500D01*
X18527500Y-3682500D02*
X18492500Y-3717500D01*
X18982500Y-4587500D02*
X19017500Y-4622500D01*
X19017500Y-4587500D02*
X18982500Y-4622500D01*
X12970000Y-4612500D02*
G75*
G02*
X12935000Y-4612500I-17500J0D01*
G01*
X12935000Y-4612500D02*
G75*
G02*
X12970000Y-4612500I17500J0D01*
G01*
X12970000Y-4750000D02*
G75*
G02*
X12935000Y-4750000I-17500J0D01*
G01*
X12935000Y-4750000D02*
G75*
G02*
X12970000Y-4750000I17500J0D01*
G01*
X12970000Y-4887500D02*
G75*
G02*
X12935000Y-4887500I-17500J0D01*
G01*
X12935000Y-4887500D02*
G75*
G02*
X12970000Y-4887500I17500J0D01*
G01*
X13107500Y-4612500D02*
G75*
G02*
X13072500Y-4612500I-17500J0D01*
G01*
X13072500Y-4612500D02*
G75*
G02*
X13107500Y-4612500I17500J0D01*
G01*
X13107500Y-4750000D02*
G75*
G02*
X13072500Y-4750000I-17500J0D01*
G01*
X13072500Y-4750000D02*
G75*
G02*
X13107500Y-4750000I17500J0D01*
G01*
X13107500Y-4887500D02*
G75*
G02*
X13072500Y-4887500I-17500J0D01*
G01*
X13072500Y-4887500D02*
G75*
G02*
X13107500Y-4887500I17500J0D01*
G01*
X13245000Y-4612500D02*
G75*
G02*
X13210000Y-4612500I-17500J0D01*
G01*
X13210000Y-4612500D02*
G75*
G02*
X13245000Y-4612500I17500J0D01*
G01*
X13245000Y-4750000D02*
G75*
G02*
X13210000Y-4750000I-17500J0D01*
G01*
X13210000Y-4750000D02*
G75*
G02*
X13245000Y-4750000I17500J0D01*
G01*
X13245000Y-4887500D02*
G75*
G02*
X13210000Y-4887500I-17500J0D01*
G01*
X13210000Y-4887500D02*
G75*
G02*
X13245000Y-4887500I17500J0D01*
G01*
X14068000Y-2745000D02*
X14068000Y-2805000D01*
X14038000Y-2775000D02*
X14098000Y-2775000D01*
X14098000Y-2805000D02*
X14098000Y-2745000D01*
X14038000Y-2745000D02*
G75*
G02*
X14098000Y-2745000I30000J0D01*
G01*
X14038000Y-2745000D02*
X14038000Y-2805000D01*
X14038000Y-2805000D02*
G75*
G03*
X14098000Y-2805000I30000J0D01*
G01*
X14068000Y-3163000D02*
X14068000Y-3223000D01*
X14038000Y-3193000D02*
X14098000Y-3193000D01*
X14098000Y-3248000D02*
X14098000Y-3138000D01*
X14038000Y-3138000D02*
G75*
G02*
X14098000Y-3138000I30000J0D01*
G01*
X14038000Y-3138000D02*
X14038000Y-3248000D01*
X14038000Y-3248000D02*
G75*
G03*
X14098000Y-3248000I30000J0D01*
G01*
X14932000Y-2745000D02*
X14932000Y-2805000D01*
X14902000Y-2775000D02*
X14962000Y-2775000D01*
X14962000Y-2805000D02*
X14962000Y-2745000D01*
X14902000Y-2745000D02*
G75*
G02*
X14962000Y-2745000I30000J0D01*
G01*
X14902000Y-2745000D02*
X14902000Y-2805000D01*
X14902000Y-2805000D02*
G75*
G03*
X14962000Y-2805000I30000J0D01*
G01*
X14932000Y-3163000D02*
X14932000Y-3223000D01*
X14902000Y-3193000D02*
X14962000Y-3193000D01*
X14962000Y-3248000D02*
X14962000Y-3138000D01*
X14902000Y-3138000D02*
G75*
G02*
X14962000Y-3138000I30000J0D01*
G01*
X14902000Y-3138000D02*
X14902000Y-3248000D01*
X14902000Y-3248000D02*
G75*
G03*
X14962000Y-3248000I30000J0D01*
G01*
X18243285Y-2878284D02*
X18243285Y-2821715D01*
X18186716Y-2821715D01*
X18186716Y-2878284D01*
X18243285Y-2878284D01*
X18255000Y-2910000D02*
X18255000Y-2790000D01*
X18175000Y-2790000D02*
G75*
G02*
X18255000Y-2790000I40000J0D01*
G01*
X18175000Y-2790000D02*
X18175000Y-2910000D01*
X18175000Y-2910000D02*
G75*
G03*
X18255000Y-2910000I40000J0D01*
G01*
X18243285Y-3568284D02*
X18243285Y-3511715D01*
X18186716Y-3511715D01*
X18186716Y-3568284D01*
X18243285Y-3568284D01*
X18255000Y-3580000D02*
X18255000Y-3500000D01*
X18175000Y-3500000D02*
G75*
G02*
X18255000Y-3500000I40000J0D01*
G01*
X18175000Y-3500000D02*
X18175000Y-3580000D01*
X18175000Y-3580000D02*
G75*
G03*
X18255000Y-3580000I40000J0D01*
G01*
X19813285Y-2878284D02*
X19813285Y-2821715D01*
X19756716Y-2821715D01*
X19756716Y-2878284D01*
X19813285Y-2878284D01*
X19825000Y-2910000D02*
X19825000Y-2790000D01*
X19745000Y-2790000D02*
G75*
G02*
X19825000Y-2790000I40000J0D01*
G01*
X19745000Y-2790000D02*
X19745000Y-2910000D01*
X19745000Y-2910000D02*
G75*
G03*
X19825000Y-2910000I40000J0D01*
G01*
X19813285Y-3568284D02*
X19813285Y-3511715D01*
X19756716Y-3511715D01*
X19756716Y-3568284D01*
X19813285Y-3568284D01*
X19825000Y-3580000D02*
X19825000Y-3500000D01*
X19745000Y-3500000D02*
G75*
G02*
X19825000Y-3500000I40000J0D01*
G01*
X19745000Y-3500000D02*
X19745000Y-3580000D01*
X19745000Y-3580000D02*
G75*
G03*
X19825000Y-3580000I40000J0D01*
G01*
D13*
X5550000Y-3705000D02*
X5605000Y-3650000D01*
X5550000Y-3595000D01*
X5495000Y-3650000D01*
X5550000Y-3705000D01*
X5550000Y-4355000D02*
X5605000Y-4300000D01*
X5550000Y-4245000D01*
X5495000Y-4300000D01*
X5550000Y-4355000D01*
X6000000Y-3705000D02*
X6055000Y-3650000D01*
X6000000Y-3595000D01*
X5945000Y-3650000D01*
X6000000Y-3705000D01*
X6000000Y-4355000D02*
X6055000Y-4300000D01*
X6000000Y-4245000D01*
X5945000Y-4300000D01*
X6000000Y-4355000D01*
X6550000Y-3705000D02*
X6605000Y-3650000D01*
X6550000Y-3595000D01*
X6495000Y-3650000D01*
X6550000Y-3705000D01*
X6550000Y-4355000D02*
X6605000Y-4300000D01*
X6550000Y-4245000D01*
X6495000Y-4300000D01*
X6550000Y-4355000D01*
X7000000Y-3705000D02*
X7055000Y-3650000D01*
X7000000Y-3595000D01*
X6945000Y-3650000D01*
X7000000Y-3705000D01*
X7000000Y-4355000D02*
X7055000Y-4300000D01*
X7000000Y-4245000D01*
X6945000Y-4300000D01*
X7000000Y-4355000D01*
X7550000Y-3705000D02*
X7605000Y-3650000D01*
X7550000Y-3595000D01*
X7495000Y-3650000D01*
X7550000Y-3705000D01*
X7550000Y-4355000D02*
X7605000Y-4300000D01*
X7550000Y-4245000D01*
X7495000Y-4300000D01*
X7550000Y-4355000D01*
X8000000Y-3705000D02*
X8055000Y-3650000D01*
X8000000Y-3595000D01*
X7945000Y-3650000D01*
X8000000Y-3705000D01*
X8000000Y-4355000D02*
X8055000Y-4300000D01*
X8000000Y-4245000D01*
X7945000Y-4300000D01*
X8000000Y-4355000D01*
X8850000Y-3705000D02*
X8905000Y-3650000D01*
X8850000Y-3595000D01*
X8795000Y-3650000D01*
X8850000Y-3705000D01*
X8850000Y-4355000D02*
X8905000Y-4300000D01*
X8850000Y-4245000D01*
X8795000Y-4300000D01*
X8850000Y-4355000D01*
X9300000Y-3705000D02*
X9355000Y-3650000D01*
X9300000Y-3595000D01*
X9245000Y-3650000D01*
X9300000Y-3705000D01*
X9300000Y-4355000D02*
X9355000Y-4300000D01*
X9300000Y-4245000D01*
X9245000Y-4300000D01*
X9300000Y-4355000D01*
X9850000Y-3705000D02*
X9905000Y-3650000D01*
X9850000Y-3595000D01*
X9795000Y-3650000D01*
X9850000Y-3705000D01*
X9850000Y-4355000D02*
X9905000Y-4300000D01*
X9850000Y-4245000D01*
X9795000Y-4300000D01*
X9850000Y-4355000D01*
X10300000Y-3705000D02*
X10355000Y-3650000D01*
X10300000Y-3595000D01*
X10245000Y-3650000D01*
X10300000Y-3705000D01*
X10300000Y-4355000D02*
X10355000Y-4300000D01*
X10300000Y-4245000D01*
X10245000Y-4300000D01*
X10300000Y-4355000D01*
X10850000Y-3705000D02*
X10905000Y-3650000D01*
X10850000Y-3595000D01*
X10795000Y-3650000D01*
X10850000Y-3705000D01*
X10850000Y-4355000D02*
X10905000Y-4300000D01*
X10850000Y-4245000D01*
X10795000Y-4300000D01*
X10850000Y-4355000D01*
X11300000Y-3705000D02*
X11355000Y-3650000D01*
X11300000Y-3595000D01*
X11245000Y-3650000D01*
X11300000Y-3705000D01*
X11300000Y-4355000D02*
X11355000Y-4300000D01*
X11300000Y-4245000D01*
X11245000Y-4300000D01*
X11300000Y-4355000D01*
D14*
X5259000Y-6821500D02*
X5386000Y-6948500D01*
X5386000Y-6821500D02*
X5259000Y-6948500D01*
X5386000Y-6885000D02*
G75*
G02*
X5259000Y-6885000I-63500J0D01*
G01*
X5259000Y-6885000D02*
G75*
G02*
X5386000Y-6885000I63500J0D01*
G01*
X5759000Y-7031500D02*
X5886000Y-7158500D01*
X5886000Y-7031500D02*
X5759000Y-7158500D01*
X5886000Y-7095000D02*
G75*
G02*
X5759000Y-7095000I-63500J0D01*
G01*
X5759000Y-7095000D02*
G75*
G02*
X5886000Y-7095000I63500J0D01*
G01*
X8168500Y-6833500D02*
X8295500Y-6960500D01*
X8295500Y-6833500D02*
X8168500Y-6960500D01*
X8295500Y-6897000D02*
G75*
G02*
X8168500Y-6897000I-63500J0D01*
G01*
X8168500Y-6897000D02*
G75*
G02*
X8295500Y-6897000I63500J0D01*
G01*
X8668500Y-7043500D02*
X8795500Y-7170500D01*
X8795500Y-7043500D02*
X8668500Y-7170500D01*
X8795500Y-7107000D02*
G75*
G02*
X8668500Y-7107000I-63500J0D01*
G01*
X8668500Y-7107000D02*
G75*
G02*
X8795500Y-7107000I63500J0D01*
G01*
X10828500Y-7968500D02*
X10955500Y-8095500D01*
X10955500Y-7968500D02*
X10828500Y-8095500D01*
X10955500Y-8032000D02*
G75*
G02*
X10828500Y-8032000I-63500J0D01*
G01*
X10828500Y-8032000D02*
G75*
G02*
X10955500Y-8032000I63500J0D01*
G01*
X11328500Y-8178500D02*
X11455500Y-8305500D01*
X11455500Y-8178500D02*
X11328500Y-8305500D01*
X11455500Y-8242000D02*
G75*
G02*
X11328500Y-8242000I-63500J0D01*
G01*
X11328500Y-8242000D02*
G75*
G02*
X11455500Y-8242000I63500J0D01*
G01*
X12578500Y-13278500D02*
X12705500Y-13405500D01*
X12705500Y-13278500D02*
X12578500Y-13405500D01*
X12705500Y-13342000D02*
G75*
G02*
X12578500Y-13342000I-63500J0D01*
G01*
X12578500Y-13342000D02*
G75*
G02*
X12705500Y-13342000I63500J0D01*
G01*
X13078500Y-13488500D02*
X13205500Y-13615500D01*
X13205500Y-13488500D02*
X13078500Y-13615500D01*
X13205500Y-13552000D02*
G75*
G02*
X13078500Y-13552000I-63500J0D01*
G01*
X13078500Y-13552000D02*
G75*
G02*
X13205500Y-13552000I63500J0D01*
G01*
X13761500Y-9931500D02*
X13888500Y-10058500D01*
X13888500Y-9931500D02*
X13761500Y-10058500D01*
X13888500Y-9995000D02*
G75*
G02*
X13761500Y-9995000I-63500J0D01*
G01*
X13761500Y-9995000D02*
G75*
G02*
X13888500Y-9995000I63500J0D01*
G01*
X14261500Y-10141500D02*
X14388500Y-10268500D01*
X14388500Y-10141500D02*
X14261500Y-10268500D01*
X14388500Y-10205000D02*
G75*
G02*
X14261500Y-10205000I-63500J0D01*
G01*
X14261500Y-10205000D02*
G75*
G02*
X14388500Y-10205000I63500J0D01*
G01*
X14322500Y-6827500D02*
X14449500Y-6954500D01*
X14449500Y-6827500D02*
X14322500Y-6954500D01*
X14449500Y-6891000D02*
G75*
G02*
X14322500Y-6891000I-63500J0D01*
G01*
X14322500Y-6891000D02*
G75*
G02*
X14449500Y-6891000I63500J0D01*
G01*
X14822500Y-7037500D02*
X14949500Y-7164500D01*
X14949500Y-7037500D02*
X14822500Y-7164500D01*
X14949500Y-7101000D02*
G75*
G02*
X14822500Y-7101000I-63500J0D01*
G01*
X14822500Y-7101000D02*
G75*
G02*
X14949500Y-7101000I63500J0D01*
G01*
X16422500Y-8820500D02*
X16549500Y-8947500D01*
X16549500Y-8820500D02*
X16422500Y-8947500D01*
X16549500Y-8884000D02*
G75*
G02*
X16422500Y-8884000I-63500J0D01*
G01*
X16422500Y-8884000D02*
G75*
G02*
X16549500Y-8884000I63500J0D01*
G01*
X16922500Y-9030500D02*
X17049500Y-9157500D01*
X17049500Y-9030500D02*
X16922500Y-9157500D01*
X17049500Y-9094000D02*
G75*
G02*
X16922500Y-9094000I-63500J0D01*
G01*
X16922500Y-9094000D02*
G75*
G02*
X17049500Y-9094000I63500J0D01*
G01*
X16978500Y-5674500D02*
X17105500Y-5801500D01*
X17105500Y-5674500D02*
X16978500Y-5801500D01*
X17105500Y-5738000D02*
G75*
G02*
X16978500Y-5738000I-63500J0D01*
G01*
X16978500Y-5738000D02*
G75*
G02*
X17105500Y-5738000I63500J0D01*
G01*
X17478500Y-5884500D02*
X17605500Y-6011500D01*
X17605500Y-5884500D02*
X17478500Y-6011500D01*
X17605500Y-5948000D02*
G75*
G02*
X17478500Y-5948000I-63500J0D01*
G01*
X17478500Y-5948000D02*
G75*
G02*
X17605500Y-5948000I63500J0D01*
G01*
X19307500Y-8820500D02*
X19434500Y-8947500D01*
X19434500Y-8820500D02*
X19307500Y-8947500D01*
X19434500Y-8884000D02*
G75*
G02*
X19307500Y-8884000I-63500J0D01*
G01*
X19307500Y-8884000D02*
G75*
G02*
X19434500Y-8884000I63500J0D01*
G01*
X19807500Y-9030500D02*
X19934500Y-9157500D01*
X19934500Y-9030500D02*
X19807500Y-9157500D01*
X19934500Y-9094000D02*
G75*
G02*
X19807500Y-9094000I-63500J0D01*
G01*
X19807500Y-9094000D02*
G75*
G02*
X19934500Y-9094000I63500J0D01*
G01*
X19875500Y-5662500D02*
X20002500Y-5789500D01*
X20002500Y-5662500D02*
X19875500Y-5789500D01*
X20002500Y-5726000D02*
G75*
G02*
X19875500Y-5726000I-63500J0D01*
G01*
X19875500Y-5726000D02*
G75*
G02*
X20002500Y-5726000I63500J0D01*
G01*
X20375500Y-5872500D02*
X20502500Y-5999500D01*
X20502500Y-5872500D02*
X20375500Y-5999500D01*
X20502500Y-5936000D02*
G75*
G02*
X20375500Y-5936000I-63500J0D01*
G01*
X20375500Y-5936000D02*
G75*
G02*
X20502500Y-5936000I63500J0D01*
G01*
X22228500Y-8820500D02*
X22355500Y-8947500D01*
X22355500Y-8820500D02*
X22228500Y-8947500D01*
X22355500Y-8884000D02*
G75*
G02*
X22228500Y-8884000I-63500J0D01*
G01*
X22228500Y-8884000D02*
G75*
G02*
X22355500Y-8884000I63500J0D01*
G01*
X22728500Y-9030500D02*
X22855500Y-9157500D01*
X22855500Y-9030500D02*
X22728500Y-9157500D01*
X22855500Y-9094000D02*
G75*
G02*
X22728500Y-9094000I-63500J0D01*
G01*
X22728500Y-9094000D02*
G75*
G02*
X22855500Y-9094000I63500J0D01*
G01*
X22772500Y-5686500D02*
X22899500Y-5813500D01*
X22899500Y-5686500D02*
X22772500Y-5813500D01*
X22899500Y-5750000D02*
G75*
G02*
X22772500Y-5750000I-63500J0D01*
G01*
X22772500Y-5750000D02*
G75*
G02*
X22899500Y-5750000I63500J0D01*
G01*
X23272500Y-5896500D02*
X23399500Y-6023500D01*
X23399500Y-5896500D02*
X23272500Y-6023500D01*
X23399500Y-5960000D02*
G75*
G02*
X23272500Y-5960000I-63500J0D01*
G01*
X23272500Y-5960000D02*
G75*
G02*
X23399500Y-5960000I63500J0D01*
G01*
D11*
X4258277Y-15313984D02*
X4258277Y-15113984D01*
X4258277Y-15113984D02*
X4305896Y-15113984D01*
X4305896Y-15113984D02*
X4334467Y-15123508D01*
X4334467Y-15123508D02*
X4353515Y-15142555D01*
X4353515Y-15142555D02*
X4363039Y-15161603D01*
X4363039Y-15161603D02*
X4372563Y-15199698D01*
X4372563Y-15199698D02*
X4372563Y-15228269D01*
X4372563Y-15228269D02*
X4363039Y-15266365D01*
X4363039Y-15266365D02*
X4353515Y-15285412D01*
X4353515Y-15285412D02*
X4334467Y-15304460D01*
X4334467Y-15304460D02*
X4305896Y-15313984D01*
X4305896Y-15313984D02*
X4258277Y-15313984D01*
X4458277Y-15313984D02*
X4458277Y-15180650D01*
X4458277Y-15218746D02*
X4467801Y-15199698D01*
X4467801Y-15199698D02*
X4477324Y-15190174D01*
X4477324Y-15190174D02*
X4496372Y-15180650D01*
X4496372Y-15180650D02*
X4515420Y-15180650D01*
X4582086Y-15313984D02*
X4582086Y-15180650D01*
X4582086Y-15113984D02*
X4572563Y-15123508D01*
X4572563Y-15123508D02*
X4582086Y-15133031D01*
X4582086Y-15133031D02*
X4591610Y-15123508D01*
X4591610Y-15123508D02*
X4582086Y-15113984D01*
X4582086Y-15113984D02*
X4582086Y-15133031D01*
X4705896Y-15313984D02*
X4686848Y-15304460D01*
X4686848Y-15304460D02*
X4677324Y-15285412D01*
X4677324Y-15285412D02*
X4677324Y-15113984D01*
X4810658Y-15313984D02*
X4791610Y-15304460D01*
X4791610Y-15304460D02*
X4782086Y-15285412D01*
X4782086Y-15285412D02*
X4782086Y-15113984D01*
X5039229Y-15313984D02*
X5039229Y-15113984D01*
X5039229Y-15113984D02*
X5105896Y-15256841D01*
X5105896Y-15256841D02*
X5172563Y-15113984D01*
X5172563Y-15113984D02*
X5172563Y-15313984D01*
X5353515Y-15313984D02*
X5353515Y-15209222D01*
X5353515Y-15209222D02*
X5343991Y-15190174D01*
X5343991Y-15190174D02*
X5324944Y-15180650D01*
X5324944Y-15180650D02*
X5286848Y-15180650D01*
X5286848Y-15180650D02*
X5267801Y-15190174D01*
X5353515Y-15304460D02*
X5334467Y-15313984D01*
X5334467Y-15313984D02*
X5286848Y-15313984D01*
X5286848Y-15313984D02*
X5267801Y-15304460D01*
X5267801Y-15304460D02*
X5258277Y-15285412D01*
X5258277Y-15285412D02*
X5258277Y-15266365D01*
X5258277Y-15266365D02*
X5267801Y-15247317D01*
X5267801Y-15247317D02*
X5286848Y-15237793D01*
X5286848Y-15237793D02*
X5334467Y-15237793D01*
X5334467Y-15237793D02*
X5353515Y-15228269D01*
X5448753Y-15180650D02*
X5448753Y-15380650D01*
X5448753Y-15190174D02*
X5467801Y-15180650D01*
X5467801Y-15180650D02*
X5505896Y-15180650D01*
X5505896Y-15180650D02*
X5524944Y-15190174D01*
X5524944Y-15190174D02*
X5534467Y-15199698D01*
X5534467Y-15199698D02*
X5543991Y-15218746D01*
X5543991Y-15218746D02*
X5543991Y-15275888D01*
X5543991Y-15275888D02*
X5534467Y-15294936D01*
X5534467Y-15294936D02*
X5524944Y-15304460D01*
X5524944Y-15304460D02*
X5505896Y-15313984D01*
X5505896Y-15313984D02*
X5467801Y-15313984D01*
X5467801Y-15313984D02*
X5448753Y-15304460D01*
X5629705Y-15294936D02*
X5639229Y-15304460D01*
X5639229Y-15304460D02*
X5629705Y-15313984D01*
X5629705Y-15313984D02*
X5620182Y-15304460D01*
X5620182Y-15304460D02*
X5629705Y-15294936D01*
X5629705Y-15294936D02*
X5629705Y-15313984D01*
X5629705Y-15190174D02*
X5639229Y-15199698D01*
X5639229Y-15199698D02*
X5629705Y-15209222D01*
X5629705Y-15209222D02*
X5620182Y-15199698D01*
X5620182Y-15199698D02*
X5629705Y-15190174D01*
X5629705Y-15190174D02*
X5629705Y-15209222D01*
D12*
X3962500Y-15625000D02*
X3997500Y-15660000D01*
X3997500Y-15625000D02*
X3962500Y-15660000D01*
D11*
X4296372Y-15533984D02*
X4315420Y-15533984D01*
X4315420Y-15533984D02*
X4334467Y-15543508D01*
X4334467Y-15543508D02*
X4343991Y-15553031D01*
X4343991Y-15553031D02*
X4353515Y-15572079D01*
X4353515Y-15572079D02*
X4363039Y-15610174D01*
X4363039Y-15610174D02*
X4363039Y-15657793D01*
X4363039Y-15657793D02*
X4353515Y-15695888D01*
X4353515Y-15695888D02*
X4343991Y-15714936D01*
X4343991Y-15714936D02*
X4334467Y-15724460D01*
X4334467Y-15724460D02*
X4315420Y-15733984D01*
X4315420Y-15733984D02*
X4296372Y-15733984D01*
X4296372Y-15733984D02*
X4277324Y-15724460D01*
X4277324Y-15724460D02*
X4267801Y-15714936D01*
X4267801Y-15714936D02*
X4258277Y-15695888D01*
X4258277Y-15695888D02*
X4248753Y-15657793D01*
X4248753Y-15657793D02*
X4248753Y-15610174D01*
X4248753Y-15610174D02*
X4258277Y-15572079D01*
X4258277Y-15572079D02*
X4267801Y-15553031D01*
X4267801Y-15553031D02*
X4277324Y-15543508D01*
X4277324Y-15543508D02*
X4296372Y-15533984D01*
X4448753Y-15714936D02*
X4458277Y-15724460D01*
X4458277Y-15724460D02*
X4448753Y-15733984D01*
X4448753Y-15733984D02*
X4439229Y-15724460D01*
X4439229Y-15724460D02*
X4448753Y-15714936D01*
X4448753Y-15714936D02*
X4448753Y-15733984D01*
X4524944Y-15533984D02*
X4648753Y-15533984D01*
X4648753Y-15533984D02*
X4582086Y-15610174D01*
X4582086Y-15610174D02*
X4610658Y-15610174D01*
X4610658Y-15610174D02*
X4629705Y-15619698D01*
X4629705Y-15619698D02*
X4639229Y-15629222D01*
X4639229Y-15629222D02*
X4648753Y-15648269D01*
X4648753Y-15648269D02*
X4648753Y-15695888D01*
X4648753Y-15695888D02*
X4639229Y-15714936D01*
X4639229Y-15714936D02*
X4629705Y-15724460D01*
X4629705Y-15724460D02*
X4610658Y-15733984D01*
X4610658Y-15733984D02*
X4553515Y-15733984D01*
X4553515Y-15733984D02*
X4534467Y-15724460D01*
X4534467Y-15724460D02*
X4524944Y-15714936D01*
X4829705Y-15533984D02*
X4734467Y-15533984D01*
X4734467Y-15533984D02*
X4724944Y-15629222D01*
X4724944Y-15629222D02*
X4734467Y-15619698D01*
X4734467Y-15619698D02*
X4753515Y-15610174D01*
X4753515Y-15610174D02*
X4801134Y-15610174D01*
X4801134Y-15610174D02*
X4820182Y-15619698D01*
X4820182Y-15619698D02*
X4829705Y-15629222D01*
X4829705Y-15629222D02*
X4839229Y-15648269D01*
X4839229Y-15648269D02*
X4839229Y-15695888D01*
X4839229Y-15695888D02*
X4829705Y-15714936D01*
X4829705Y-15714936D02*
X4820182Y-15724460D01*
X4820182Y-15724460D02*
X4801134Y-15733984D01*
X4801134Y-15733984D02*
X4753515Y-15733984D01*
X4753515Y-15733984D02*
X4734467Y-15724460D01*
X4734467Y-15724460D02*
X4724944Y-15714936D01*
X4963039Y-15533984D02*
X4982086Y-15533984D01*
X4982086Y-15533984D02*
X5001134Y-15543508D01*
X5001134Y-15543508D02*
X5010658Y-15553031D01*
X5010658Y-15553031D02*
X5020182Y-15572079D01*
X5020182Y-15572079D02*
X5029705Y-15610174D01*
X5029705Y-15610174D02*
X5029705Y-15657793D01*
X5029705Y-15657793D02*
X5020182Y-15695888D01*
X5020182Y-15695888D02*
X5010658Y-15714936D01*
X5010658Y-15714936D02*
X5001134Y-15724460D01*
X5001134Y-15724460D02*
X4982086Y-15733984D01*
X4982086Y-15733984D02*
X4963039Y-15733984D01*
X4963039Y-15733984D02*
X4943991Y-15724460D01*
X4943991Y-15724460D02*
X4934467Y-15714936D01*
X4934467Y-15714936D02*
X4924944Y-15695888D01*
X4924944Y-15695888D02*
X4915420Y-15657793D01*
X4915420Y-15657793D02*
X4915420Y-15610174D01*
X4915420Y-15610174D02*
X4924944Y-15572079D01*
X4924944Y-15572079D02*
X4934467Y-15553031D01*
X4934467Y-15553031D02*
X4943991Y-15543508D01*
X4943991Y-15543508D02*
X4963039Y-15533984D01*
X5115420Y-15733984D02*
X5115420Y-15600650D01*
X5115420Y-15619698D02*
X5124944Y-15610174D01*
X5124944Y-15610174D02*
X5143991Y-15600650D01*
X5143991Y-15600650D02*
X5172563Y-15600650D01*
X5172563Y-15600650D02*
X5191610Y-15610174D01*
X5191610Y-15610174D02*
X5201134Y-15629222D01*
X5201134Y-15629222D02*
X5201134Y-15733984D01*
X5201134Y-15629222D02*
X5210658Y-15610174D01*
X5210658Y-15610174D02*
X5229705Y-15600650D01*
X5229705Y-15600650D02*
X5258277Y-15600650D01*
X5258277Y-15600650D02*
X5277325Y-15610174D01*
X5277325Y-15610174D02*
X5286848Y-15629222D01*
X5286848Y-15629222D02*
X5286848Y-15733984D01*
X5382086Y-15733984D02*
X5382086Y-15600650D01*
X5382086Y-15619698D02*
X5391610Y-15610174D01*
X5391610Y-15610174D02*
X5410658Y-15600650D01*
X5410658Y-15600650D02*
X5439229Y-15600650D01*
X5439229Y-15600650D02*
X5458277Y-15610174D01*
X5458277Y-15610174D02*
X5467801Y-15629222D01*
X5467801Y-15629222D02*
X5467801Y-15733984D01*
X5467801Y-15629222D02*
X5477325Y-15610174D01*
X5477325Y-15610174D02*
X5496372Y-15600650D01*
X5496372Y-15600650D02*
X5524944Y-15600650D01*
X5524944Y-15600650D02*
X5543991Y-15610174D01*
X5543991Y-15610174D02*
X5553515Y-15629222D01*
X5553515Y-15629222D02*
X5553515Y-15733984D01*
X5943991Y-15524460D02*
X5772563Y-15781603D01*
X6201134Y-15533984D02*
X6220182Y-15533984D01*
X6220182Y-15533984D02*
X6239229Y-15543508D01*
X6239229Y-15543508D02*
X6248753Y-15553031D01*
X6248753Y-15553031D02*
X6258277Y-15572079D01*
X6258277Y-15572079D02*
X6267801Y-15610174D01*
X6267801Y-15610174D02*
X6267801Y-15657793D01*
X6267801Y-15657793D02*
X6258277Y-15695888D01*
X6258277Y-15695888D02*
X6248753Y-15714936D01*
X6248753Y-15714936D02*
X6239229Y-15724460D01*
X6239229Y-15724460D02*
X6220182Y-15733984D01*
X6220182Y-15733984D02*
X6201134Y-15733984D01*
X6201134Y-15733984D02*
X6182086Y-15724460D01*
X6182086Y-15724460D02*
X6172563Y-15714936D01*
X6172563Y-15714936D02*
X6163039Y-15695888D01*
X6163039Y-15695888D02*
X6153515Y-15657793D01*
X6153515Y-15657793D02*
X6153515Y-15610174D01*
X6153515Y-15610174D02*
X6163039Y-15572079D01*
X6163039Y-15572079D02*
X6172563Y-15553031D01*
X6172563Y-15553031D02*
X6182086Y-15543508D01*
X6182086Y-15543508D02*
X6201134Y-15533984D01*
X6353515Y-15714936D02*
X6363039Y-15724460D01*
X6363039Y-15724460D02*
X6353515Y-15733984D01*
X6353515Y-15733984D02*
X6343991Y-15724460D01*
X6343991Y-15724460D02*
X6353515Y-15714936D01*
X6353515Y-15714936D02*
X6353515Y-15733984D01*
X6486848Y-15533984D02*
X6505896Y-15533984D01*
X6505896Y-15533984D02*
X6524944Y-15543508D01*
X6524944Y-15543508D02*
X6534467Y-15553031D01*
X6534467Y-15553031D02*
X6543991Y-15572079D01*
X6543991Y-15572079D02*
X6553515Y-15610174D01*
X6553515Y-15610174D02*
X6553515Y-15657793D01*
X6553515Y-15657793D02*
X6543991Y-15695888D01*
X6543991Y-15695888D02*
X6534467Y-15714936D01*
X6534467Y-15714936D02*
X6524944Y-15724460D01*
X6524944Y-15724460D02*
X6505896Y-15733984D01*
X6505896Y-15733984D02*
X6486848Y-15733984D01*
X6486848Y-15733984D02*
X6467801Y-15724460D01*
X6467801Y-15724460D02*
X6458277Y-15714936D01*
X6458277Y-15714936D02*
X6448753Y-15695888D01*
X6448753Y-15695888D02*
X6439229Y-15657793D01*
X6439229Y-15657793D02*
X6439229Y-15610174D01*
X6439229Y-15610174D02*
X6448753Y-15572079D01*
X6448753Y-15572079D02*
X6458277Y-15553031D01*
X6458277Y-15553031D02*
X6467801Y-15543508D01*
X6467801Y-15543508D02*
X6486848Y-15533984D01*
X6743991Y-15733984D02*
X6629706Y-15733984D01*
X6686848Y-15733984D02*
X6686848Y-15533984D01*
X6686848Y-15533984D02*
X6667801Y-15562555D01*
X6667801Y-15562555D02*
X6648753Y-15581603D01*
X6648753Y-15581603D02*
X6629706Y-15591127D01*
X6810658Y-15533984D02*
X6934467Y-15533984D01*
X6934467Y-15533984D02*
X6867801Y-15610174D01*
X6867801Y-15610174D02*
X6896372Y-15610174D01*
X6896372Y-15610174D02*
X6915420Y-15619698D01*
X6915420Y-15619698D02*
X6924944Y-15629222D01*
X6924944Y-15629222D02*
X6934467Y-15648269D01*
X6934467Y-15648269D02*
X6934467Y-15695888D01*
X6934467Y-15695888D02*
X6924944Y-15714936D01*
X6924944Y-15714936D02*
X6915420Y-15724460D01*
X6915420Y-15724460D02*
X6896372Y-15733984D01*
X6896372Y-15733984D02*
X6839229Y-15733984D01*
X6839229Y-15733984D02*
X6820182Y-15724460D01*
X6820182Y-15724460D02*
X6810658Y-15714936D01*
X7048753Y-15619698D02*
X7029706Y-15610174D01*
X7029706Y-15610174D02*
X7020182Y-15600650D01*
X7020182Y-15600650D02*
X7010658Y-15581603D01*
X7010658Y-15581603D02*
X7010658Y-15572079D01*
X7010658Y-15572079D02*
X7020182Y-15553031D01*
X7020182Y-15553031D02*
X7029706Y-15543508D01*
X7029706Y-15543508D02*
X7048753Y-15533984D01*
X7048753Y-15533984D02*
X7086848Y-15533984D01*
X7086848Y-15533984D02*
X7105896Y-15543508D01*
X7105896Y-15543508D02*
X7115420Y-15553031D01*
X7115420Y-15553031D02*
X7124944Y-15572079D01*
X7124944Y-15572079D02*
X7124944Y-15581603D01*
X7124944Y-15581603D02*
X7115420Y-15600650D01*
X7115420Y-15600650D02*
X7105896Y-15610174D01*
X7105896Y-15610174D02*
X7086848Y-15619698D01*
X7086848Y-15619698D02*
X7048753Y-15619698D01*
X7048753Y-15619698D02*
X7029706Y-15629222D01*
X7029706Y-15629222D02*
X7020182Y-15638746D01*
X7020182Y-15638746D02*
X7010658Y-15657793D01*
X7010658Y-15657793D02*
X7010658Y-15695888D01*
X7010658Y-15695888D02*
X7020182Y-15714936D01*
X7020182Y-15714936D02*
X7029706Y-15724460D01*
X7029706Y-15724460D02*
X7048753Y-15733984D01*
X7048753Y-15733984D02*
X7086848Y-15733984D01*
X7086848Y-15733984D02*
X7105896Y-15724460D01*
X7105896Y-15724460D02*
X7115420Y-15714936D01*
X7115420Y-15714936D02*
X7124944Y-15695888D01*
X7124944Y-15695888D02*
X7124944Y-15657793D01*
X7124944Y-15657793D02*
X7115420Y-15638746D01*
X7115420Y-15638746D02*
X7105896Y-15629222D01*
X7105896Y-15629222D02*
X7086848Y-15619698D01*
X7201134Y-15533984D02*
X7201134Y-15572079D01*
X7277325Y-15533984D02*
X7277325Y-15572079D01*
X7572563Y-15810174D02*
X7563039Y-15800650D01*
X7563039Y-15800650D02*
X7543991Y-15772079D01*
X7543991Y-15772079D02*
X7534468Y-15753031D01*
X7534468Y-15753031D02*
X7524944Y-15724460D01*
X7524944Y-15724460D02*
X7515420Y-15676841D01*
X7515420Y-15676841D02*
X7515420Y-15638746D01*
X7515420Y-15638746D02*
X7524944Y-15591127D01*
X7524944Y-15591127D02*
X7534468Y-15562555D01*
X7534468Y-15562555D02*
X7543991Y-15543508D01*
X7543991Y-15543508D02*
X7563039Y-15514936D01*
X7563039Y-15514936D02*
X7572563Y-15505412D01*
X7734468Y-15600650D02*
X7734468Y-15733984D01*
X7686848Y-15524460D02*
X7639229Y-15667317D01*
X7639229Y-15667317D02*
X7763039Y-15667317D01*
X7924944Y-15600650D02*
X7924944Y-15733984D01*
X7877325Y-15524460D02*
X7829706Y-15667317D01*
X7829706Y-15667317D02*
X7953515Y-15667317D01*
X8182087Y-15733984D02*
X8182087Y-15533984D01*
X8267801Y-15733984D02*
X8267801Y-15629222D01*
X8267801Y-15629222D02*
X8258277Y-15610174D01*
X8258277Y-15610174D02*
X8239230Y-15600650D01*
X8239230Y-15600650D02*
X8210658Y-15600650D01*
X8210658Y-15600650D02*
X8191610Y-15610174D01*
X8191610Y-15610174D02*
X8182087Y-15619698D01*
X8391611Y-15733984D02*
X8372563Y-15724460D01*
X8372563Y-15724460D02*
X8363039Y-15714936D01*
X8363039Y-15714936D02*
X8353515Y-15695888D01*
X8353515Y-15695888D02*
X8353515Y-15638746D01*
X8353515Y-15638746D02*
X8363039Y-15619698D01*
X8363039Y-15619698D02*
X8372563Y-15610174D01*
X8372563Y-15610174D02*
X8391611Y-15600650D01*
X8391611Y-15600650D02*
X8420182Y-15600650D01*
X8420182Y-15600650D02*
X8439230Y-15610174D01*
X8439230Y-15610174D02*
X8448753Y-15619698D01*
X8448753Y-15619698D02*
X8458277Y-15638746D01*
X8458277Y-15638746D02*
X8458277Y-15695888D01*
X8458277Y-15695888D02*
X8448753Y-15714936D01*
X8448753Y-15714936D02*
X8439230Y-15724460D01*
X8439230Y-15724460D02*
X8420182Y-15733984D01*
X8420182Y-15733984D02*
X8391611Y-15733984D01*
X8572563Y-15733984D02*
X8553515Y-15724460D01*
X8553515Y-15724460D02*
X8543992Y-15705412D01*
X8543992Y-15705412D02*
X8543992Y-15533984D01*
X8724944Y-15724460D02*
X8705896Y-15733984D01*
X8705896Y-15733984D02*
X8667801Y-15733984D01*
X8667801Y-15733984D02*
X8648753Y-15724460D01*
X8648753Y-15724460D02*
X8639230Y-15705412D01*
X8639230Y-15705412D02*
X8639230Y-15629222D01*
X8639230Y-15629222D02*
X8648753Y-15610174D01*
X8648753Y-15610174D02*
X8667801Y-15600650D01*
X8667801Y-15600650D02*
X8705896Y-15600650D01*
X8705896Y-15600650D02*
X8724944Y-15610174D01*
X8724944Y-15610174D02*
X8734468Y-15629222D01*
X8734468Y-15629222D02*
X8734468Y-15648269D01*
X8734468Y-15648269D02*
X8639230Y-15667317D01*
X8810658Y-15724460D02*
X8829706Y-15733984D01*
X8829706Y-15733984D02*
X8867801Y-15733984D01*
X8867801Y-15733984D02*
X8886849Y-15724460D01*
X8886849Y-15724460D02*
X8896373Y-15705412D01*
X8896373Y-15705412D02*
X8896373Y-15695888D01*
X8896373Y-15695888D02*
X8886849Y-15676841D01*
X8886849Y-15676841D02*
X8867801Y-15667317D01*
X8867801Y-15667317D02*
X8839230Y-15667317D01*
X8839230Y-15667317D02*
X8820182Y-15657793D01*
X8820182Y-15657793D02*
X8810658Y-15638746D01*
X8810658Y-15638746D02*
X8810658Y-15629222D01*
X8810658Y-15629222D02*
X8820182Y-15610174D01*
X8820182Y-15610174D02*
X8839230Y-15600650D01*
X8839230Y-15600650D02*
X8867801Y-15600650D01*
X8867801Y-15600650D02*
X8886849Y-15610174D01*
X8963039Y-15810174D02*
X8972563Y-15800650D01*
X8972563Y-15800650D02*
X8991611Y-15772079D01*
X8991611Y-15772079D02*
X9001134Y-15753031D01*
X9001134Y-15753031D02*
X9010658Y-15724460D01*
X9010658Y-15724460D02*
X9020182Y-15676841D01*
X9020182Y-15676841D02*
X9020182Y-15638746D01*
X9020182Y-15638746D02*
X9010658Y-15591127D01*
X9010658Y-15591127D02*
X9001134Y-15562555D01*
X9001134Y-15562555D02*
X8991611Y-15543508D01*
X8991611Y-15543508D02*
X8972563Y-15514936D01*
X8972563Y-15514936D02*
X8963039Y-15505412D01*
D12*
X3997500Y-15906500D02*
G75*
G02*
X3962500Y-15906500I-17500J0D01*
G01*
X3962500Y-15906500D02*
G75*
G02*
X3997500Y-15906500I17500J0D01*
G01*
D11*
X4296372Y-15797984D02*
X4315420Y-15797984D01*
X4315420Y-15797984D02*
X4334467Y-15807508D01*
X4334467Y-15807508D02*
X4343991Y-15817031D01*
X4343991Y-15817031D02*
X4353515Y-15836079D01*
X4353515Y-15836079D02*
X4363039Y-15874174D01*
X4363039Y-15874174D02*
X4363039Y-15921793D01*
X4363039Y-15921793D02*
X4353515Y-15959888D01*
X4353515Y-15959888D02*
X4343991Y-15978936D01*
X4343991Y-15978936D02*
X4334467Y-15988460D01*
X4334467Y-15988460D02*
X4315420Y-15997984D01*
X4315420Y-15997984D02*
X4296372Y-15997984D01*
X4296372Y-15997984D02*
X4277324Y-15988460D01*
X4277324Y-15988460D02*
X4267801Y-15978936D01*
X4267801Y-15978936D02*
X4258277Y-15959888D01*
X4258277Y-15959888D02*
X4248753Y-15921793D01*
X4248753Y-15921793D02*
X4248753Y-15874174D01*
X4248753Y-15874174D02*
X4258277Y-15836079D01*
X4258277Y-15836079D02*
X4267801Y-15817031D01*
X4267801Y-15817031D02*
X4277324Y-15807508D01*
X4277324Y-15807508D02*
X4296372Y-15797984D01*
X4448753Y-15978936D02*
X4458277Y-15988460D01*
X4458277Y-15988460D02*
X4448753Y-15997984D01*
X4448753Y-15997984D02*
X4439229Y-15988460D01*
X4439229Y-15988460D02*
X4448753Y-15978936D01*
X4448753Y-15978936D02*
X4448753Y-15997984D01*
X4524944Y-15797984D02*
X4648753Y-15797984D01*
X4648753Y-15797984D02*
X4582086Y-15874174D01*
X4582086Y-15874174D02*
X4610658Y-15874174D01*
X4610658Y-15874174D02*
X4629705Y-15883698D01*
X4629705Y-15883698D02*
X4639229Y-15893222D01*
X4639229Y-15893222D02*
X4648753Y-15912269D01*
X4648753Y-15912269D02*
X4648753Y-15959888D01*
X4648753Y-15959888D02*
X4639229Y-15978936D01*
X4639229Y-15978936D02*
X4629705Y-15988460D01*
X4629705Y-15988460D02*
X4610658Y-15997984D01*
X4610658Y-15997984D02*
X4553515Y-15997984D01*
X4553515Y-15997984D02*
X4534467Y-15988460D01*
X4534467Y-15988460D02*
X4524944Y-15978936D01*
X4829705Y-15797984D02*
X4734467Y-15797984D01*
X4734467Y-15797984D02*
X4724944Y-15893222D01*
X4724944Y-15893222D02*
X4734467Y-15883698D01*
X4734467Y-15883698D02*
X4753515Y-15874174D01*
X4753515Y-15874174D02*
X4801134Y-15874174D01*
X4801134Y-15874174D02*
X4820182Y-15883698D01*
X4820182Y-15883698D02*
X4829705Y-15893222D01*
X4829705Y-15893222D02*
X4839229Y-15912269D01*
X4839229Y-15912269D02*
X4839229Y-15959888D01*
X4839229Y-15959888D02*
X4829705Y-15978936D01*
X4829705Y-15978936D02*
X4820182Y-15988460D01*
X4820182Y-15988460D02*
X4801134Y-15997984D01*
X4801134Y-15997984D02*
X4753515Y-15997984D01*
X4753515Y-15997984D02*
X4734467Y-15988460D01*
X4734467Y-15988460D02*
X4724944Y-15978936D01*
X4963039Y-15797984D02*
X4982086Y-15797984D01*
X4982086Y-15797984D02*
X5001134Y-15807508D01*
X5001134Y-15807508D02*
X5010658Y-15817031D01*
X5010658Y-15817031D02*
X5020182Y-15836079D01*
X5020182Y-15836079D02*
X5029705Y-15874174D01*
X5029705Y-15874174D02*
X5029705Y-15921793D01*
X5029705Y-15921793D02*
X5020182Y-15959888D01*
X5020182Y-15959888D02*
X5010658Y-15978936D01*
X5010658Y-15978936D02*
X5001134Y-15988460D01*
X5001134Y-15988460D02*
X4982086Y-15997984D01*
X4982086Y-15997984D02*
X4963039Y-15997984D01*
X4963039Y-15997984D02*
X4943991Y-15988460D01*
X4943991Y-15988460D02*
X4934467Y-15978936D01*
X4934467Y-15978936D02*
X4924944Y-15959888D01*
X4924944Y-15959888D02*
X4915420Y-15921793D01*
X4915420Y-15921793D02*
X4915420Y-15874174D01*
X4915420Y-15874174D02*
X4924944Y-15836079D01*
X4924944Y-15836079D02*
X4934467Y-15817031D01*
X4934467Y-15817031D02*
X4943991Y-15807508D01*
X4943991Y-15807508D02*
X4963039Y-15797984D01*
X5115420Y-15997984D02*
X5115420Y-15864650D01*
X5115420Y-15883698D02*
X5124944Y-15874174D01*
X5124944Y-15874174D02*
X5143991Y-15864650D01*
X5143991Y-15864650D02*
X5172563Y-15864650D01*
X5172563Y-15864650D02*
X5191610Y-15874174D01*
X5191610Y-15874174D02*
X5201134Y-15893222D01*
X5201134Y-15893222D02*
X5201134Y-15997984D01*
X5201134Y-15893222D02*
X5210658Y-15874174D01*
X5210658Y-15874174D02*
X5229705Y-15864650D01*
X5229705Y-15864650D02*
X5258277Y-15864650D01*
X5258277Y-15864650D02*
X5277325Y-15874174D01*
X5277325Y-15874174D02*
X5286848Y-15893222D01*
X5286848Y-15893222D02*
X5286848Y-15997984D01*
X5382086Y-15997984D02*
X5382086Y-15864650D01*
X5382086Y-15883698D02*
X5391610Y-15874174D01*
X5391610Y-15874174D02*
X5410658Y-15864650D01*
X5410658Y-15864650D02*
X5439229Y-15864650D01*
X5439229Y-15864650D02*
X5458277Y-15874174D01*
X5458277Y-15874174D02*
X5467801Y-15893222D01*
X5467801Y-15893222D02*
X5467801Y-15997984D01*
X5467801Y-15893222D02*
X5477325Y-15874174D01*
X5477325Y-15874174D02*
X5496372Y-15864650D01*
X5496372Y-15864650D02*
X5524944Y-15864650D01*
X5524944Y-15864650D02*
X5543991Y-15874174D01*
X5543991Y-15874174D02*
X5553515Y-15893222D01*
X5553515Y-15893222D02*
X5553515Y-15997984D01*
X5943991Y-15788460D02*
X5772563Y-16045603D01*
X6201134Y-15797984D02*
X6220182Y-15797984D01*
X6220182Y-15797984D02*
X6239229Y-15807508D01*
X6239229Y-15807508D02*
X6248753Y-15817031D01*
X6248753Y-15817031D02*
X6258277Y-15836079D01*
X6258277Y-15836079D02*
X6267801Y-15874174D01*
X6267801Y-15874174D02*
X6267801Y-15921793D01*
X6267801Y-15921793D02*
X6258277Y-15959888D01*
X6258277Y-15959888D02*
X6248753Y-15978936D01*
X6248753Y-15978936D02*
X6239229Y-15988460D01*
X6239229Y-15988460D02*
X6220182Y-15997984D01*
X6220182Y-15997984D02*
X6201134Y-15997984D01*
X6201134Y-15997984D02*
X6182086Y-15988460D01*
X6182086Y-15988460D02*
X6172563Y-15978936D01*
X6172563Y-15978936D02*
X6163039Y-15959888D01*
X6163039Y-15959888D02*
X6153515Y-15921793D01*
X6153515Y-15921793D02*
X6153515Y-15874174D01*
X6153515Y-15874174D02*
X6163039Y-15836079D01*
X6163039Y-15836079D02*
X6172563Y-15817031D01*
X6172563Y-15817031D02*
X6182086Y-15807508D01*
X6182086Y-15807508D02*
X6201134Y-15797984D01*
X6353515Y-15978936D02*
X6363039Y-15988460D01*
X6363039Y-15988460D02*
X6353515Y-15997984D01*
X6353515Y-15997984D02*
X6343991Y-15988460D01*
X6343991Y-15988460D02*
X6353515Y-15978936D01*
X6353515Y-15978936D02*
X6353515Y-15997984D01*
X6486848Y-15797984D02*
X6505896Y-15797984D01*
X6505896Y-15797984D02*
X6524944Y-15807508D01*
X6524944Y-15807508D02*
X6534467Y-15817031D01*
X6534467Y-15817031D02*
X6543991Y-15836079D01*
X6543991Y-15836079D02*
X6553515Y-15874174D01*
X6553515Y-15874174D02*
X6553515Y-15921793D01*
X6553515Y-15921793D02*
X6543991Y-15959888D01*
X6543991Y-15959888D02*
X6534467Y-15978936D01*
X6534467Y-15978936D02*
X6524944Y-15988460D01*
X6524944Y-15988460D02*
X6505896Y-15997984D01*
X6505896Y-15997984D02*
X6486848Y-15997984D01*
X6486848Y-15997984D02*
X6467801Y-15988460D01*
X6467801Y-15988460D02*
X6458277Y-15978936D01*
X6458277Y-15978936D02*
X6448753Y-15959888D01*
X6448753Y-15959888D02*
X6439229Y-15921793D01*
X6439229Y-15921793D02*
X6439229Y-15874174D01*
X6439229Y-15874174D02*
X6448753Y-15836079D01*
X6448753Y-15836079D02*
X6458277Y-15817031D01*
X6458277Y-15817031D02*
X6467801Y-15807508D01*
X6467801Y-15807508D02*
X6486848Y-15797984D01*
X6743991Y-15997984D02*
X6629706Y-15997984D01*
X6686848Y-15997984D02*
X6686848Y-15797984D01*
X6686848Y-15797984D02*
X6667801Y-15826555D01*
X6667801Y-15826555D02*
X6648753Y-15845603D01*
X6648753Y-15845603D02*
X6629706Y-15855127D01*
X6810658Y-15797984D02*
X6934467Y-15797984D01*
X6934467Y-15797984D02*
X6867801Y-15874174D01*
X6867801Y-15874174D02*
X6896372Y-15874174D01*
X6896372Y-15874174D02*
X6915420Y-15883698D01*
X6915420Y-15883698D02*
X6924944Y-15893222D01*
X6924944Y-15893222D02*
X6934467Y-15912269D01*
X6934467Y-15912269D02*
X6934467Y-15959888D01*
X6934467Y-15959888D02*
X6924944Y-15978936D01*
X6924944Y-15978936D02*
X6915420Y-15988460D01*
X6915420Y-15988460D02*
X6896372Y-15997984D01*
X6896372Y-15997984D02*
X6839229Y-15997984D01*
X6839229Y-15997984D02*
X6820182Y-15988460D01*
X6820182Y-15988460D02*
X6810658Y-15978936D01*
X7048753Y-15883698D02*
X7029706Y-15874174D01*
X7029706Y-15874174D02*
X7020182Y-15864650D01*
X7020182Y-15864650D02*
X7010658Y-15845603D01*
X7010658Y-15845603D02*
X7010658Y-15836079D01*
X7010658Y-15836079D02*
X7020182Y-15817031D01*
X7020182Y-15817031D02*
X7029706Y-15807508D01*
X7029706Y-15807508D02*
X7048753Y-15797984D01*
X7048753Y-15797984D02*
X7086848Y-15797984D01*
X7086848Y-15797984D02*
X7105896Y-15807508D01*
X7105896Y-15807508D02*
X7115420Y-15817031D01*
X7115420Y-15817031D02*
X7124944Y-15836079D01*
X7124944Y-15836079D02*
X7124944Y-15845603D01*
X7124944Y-15845603D02*
X7115420Y-15864650D01*
X7115420Y-15864650D02*
X7105896Y-15874174D01*
X7105896Y-15874174D02*
X7086848Y-15883698D01*
X7086848Y-15883698D02*
X7048753Y-15883698D01*
X7048753Y-15883698D02*
X7029706Y-15893222D01*
X7029706Y-15893222D02*
X7020182Y-15902746D01*
X7020182Y-15902746D02*
X7010658Y-15921793D01*
X7010658Y-15921793D02*
X7010658Y-15959888D01*
X7010658Y-15959888D02*
X7020182Y-15978936D01*
X7020182Y-15978936D02*
X7029706Y-15988460D01*
X7029706Y-15988460D02*
X7048753Y-15997984D01*
X7048753Y-15997984D02*
X7086848Y-15997984D01*
X7086848Y-15997984D02*
X7105896Y-15988460D01*
X7105896Y-15988460D02*
X7115420Y-15978936D01*
X7115420Y-15978936D02*
X7124944Y-15959888D01*
X7124944Y-15959888D02*
X7124944Y-15921793D01*
X7124944Y-15921793D02*
X7115420Y-15902746D01*
X7115420Y-15902746D02*
X7105896Y-15893222D01*
X7105896Y-15893222D02*
X7086848Y-15883698D01*
X7201134Y-15797984D02*
X7201134Y-15836079D01*
X7277325Y-15797984D02*
X7277325Y-15836079D01*
X7572563Y-16074174D02*
X7563039Y-16064650D01*
X7563039Y-16064650D02*
X7543991Y-16036079D01*
X7543991Y-16036079D02*
X7534468Y-16017031D01*
X7534468Y-16017031D02*
X7524944Y-15988460D01*
X7524944Y-15988460D02*
X7515420Y-15940841D01*
X7515420Y-15940841D02*
X7515420Y-15902746D01*
X7515420Y-15902746D02*
X7524944Y-15855127D01*
X7524944Y-15855127D02*
X7534468Y-15826555D01*
X7534468Y-15826555D02*
X7543991Y-15807508D01*
X7543991Y-15807508D02*
X7563039Y-15778936D01*
X7563039Y-15778936D02*
X7572563Y-15769412D01*
X7658277Y-15997984D02*
X7696372Y-15997984D01*
X7696372Y-15997984D02*
X7715420Y-15988460D01*
X7715420Y-15988460D02*
X7724944Y-15978936D01*
X7724944Y-15978936D02*
X7743991Y-15950365D01*
X7743991Y-15950365D02*
X7753515Y-15912269D01*
X7753515Y-15912269D02*
X7753515Y-15836079D01*
X7753515Y-15836079D02*
X7743991Y-15817031D01*
X7743991Y-15817031D02*
X7734468Y-15807508D01*
X7734468Y-15807508D02*
X7715420Y-15797984D01*
X7715420Y-15797984D02*
X7677325Y-15797984D01*
X7677325Y-15797984D02*
X7658277Y-15807508D01*
X7658277Y-15807508D02*
X7648753Y-15817031D01*
X7648753Y-15817031D02*
X7639229Y-15836079D01*
X7639229Y-15836079D02*
X7639229Y-15883698D01*
X7639229Y-15883698D02*
X7648753Y-15902746D01*
X7648753Y-15902746D02*
X7658277Y-15912269D01*
X7658277Y-15912269D02*
X7677325Y-15921793D01*
X7677325Y-15921793D02*
X7715420Y-15921793D01*
X7715420Y-15921793D02*
X7734468Y-15912269D01*
X7734468Y-15912269D02*
X7743991Y-15902746D01*
X7743991Y-15902746D02*
X7753515Y-15883698D01*
X7991610Y-15997984D02*
X7991610Y-15797984D01*
X8077325Y-15997984D02*
X8077325Y-15893222D01*
X8077325Y-15893222D02*
X8067801Y-15874174D01*
X8067801Y-15874174D02*
X8048753Y-15864650D01*
X8048753Y-15864650D02*
X8020182Y-15864650D01*
X8020182Y-15864650D02*
X8001134Y-15874174D01*
X8001134Y-15874174D02*
X7991610Y-15883698D01*
X8201134Y-15997984D02*
X8182087Y-15988460D01*
X8182087Y-15988460D02*
X8172563Y-15978936D01*
X8172563Y-15978936D02*
X8163039Y-15959888D01*
X8163039Y-15959888D02*
X8163039Y-15902746D01*
X8163039Y-15902746D02*
X8172563Y-15883698D01*
X8172563Y-15883698D02*
X8182087Y-15874174D01*
X8182087Y-15874174D02*
X8201134Y-15864650D01*
X8201134Y-15864650D02*
X8229706Y-15864650D01*
X8229706Y-15864650D02*
X8248753Y-15874174D01*
X8248753Y-15874174D02*
X8258277Y-15883698D01*
X8258277Y-15883698D02*
X8267801Y-15902746D01*
X8267801Y-15902746D02*
X8267801Y-15959888D01*
X8267801Y-15959888D02*
X8258277Y-15978936D01*
X8258277Y-15978936D02*
X8248753Y-15988460D01*
X8248753Y-15988460D02*
X8229706Y-15997984D01*
X8229706Y-15997984D02*
X8201134Y-15997984D01*
X8382087Y-15997984D02*
X8363039Y-15988460D01*
X8363039Y-15988460D02*
X8353515Y-15969412D01*
X8353515Y-15969412D02*
X8353515Y-15797984D01*
X8534468Y-15988460D02*
X8515420Y-15997984D01*
X8515420Y-15997984D02*
X8477325Y-15997984D01*
X8477325Y-15997984D02*
X8458277Y-15988460D01*
X8458277Y-15988460D02*
X8448753Y-15969412D01*
X8448753Y-15969412D02*
X8448753Y-15893222D01*
X8448753Y-15893222D02*
X8458277Y-15874174D01*
X8458277Y-15874174D02*
X8477325Y-15864650D01*
X8477325Y-15864650D02*
X8515420Y-15864650D01*
X8515420Y-15864650D02*
X8534468Y-15874174D01*
X8534468Y-15874174D02*
X8543992Y-15893222D01*
X8543992Y-15893222D02*
X8543992Y-15912269D01*
X8543992Y-15912269D02*
X8448753Y-15931317D01*
X8620182Y-15988460D02*
X8639230Y-15997984D01*
X8639230Y-15997984D02*
X8677325Y-15997984D01*
X8677325Y-15997984D02*
X8696373Y-15988460D01*
X8696373Y-15988460D02*
X8705896Y-15969412D01*
X8705896Y-15969412D02*
X8705896Y-15959888D01*
X8705896Y-15959888D02*
X8696373Y-15940841D01*
X8696373Y-15940841D02*
X8677325Y-15931317D01*
X8677325Y-15931317D02*
X8648753Y-15931317D01*
X8648753Y-15931317D02*
X8629706Y-15921793D01*
X8629706Y-15921793D02*
X8620182Y-15902746D01*
X8620182Y-15902746D02*
X8620182Y-15893222D01*
X8620182Y-15893222D02*
X8629706Y-15874174D01*
X8629706Y-15874174D02*
X8648753Y-15864650D01*
X8648753Y-15864650D02*
X8677325Y-15864650D01*
X8677325Y-15864650D02*
X8696373Y-15874174D01*
X8772563Y-16074174D02*
X8782087Y-16064650D01*
X8782087Y-16064650D02*
X8801134Y-16036079D01*
X8801134Y-16036079D02*
X8810658Y-16017031D01*
X8810658Y-16017031D02*
X8820182Y-15988460D01*
X8820182Y-15988460D02*
X8829706Y-15940841D01*
X8829706Y-15940841D02*
X8829706Y-15902746D01*
X8829706Y-15902746D02*
X8820182Y-15855127D01*
X8820182Y-15855127D02*
X8810658Y-15826555D01*
X8810658Y-15826555D02*
X8801134Y-15807508D01*
X8801134Y-15807508D02*
X8782087Y-15778936D01*
X8782087Y-15778936D02*
X8772563Y-15769412D01*
D12*
X3967500Y-16140500D02*
X3967500Y-16200500D01*
X3937500Y-16170500D02*
X3997500Y-16170500D01*
D11*
X4296372Y-16061984D02*
X4315420Y-16061984D01*
X4315420Y-16061984D02*
X4334467Y-16071508D01*
X4334467Y-16071508D02*
X4343991Y-16081031D01*
X4343991Y-16081031D02*
X4353515Y-16100079D01*
X4353515Y-16100079D02*
X4363039Y-16138174D01*
X4363039Y-16138174D02*
X4363039Y-16185793D01*
X4363039Y-16185793D02*
X4353515Y-16223888D01*
X4353515Y-16223888D02*
X4343991Y-16242936D01*
X4343991Y-16242936D02*
X4334467Y-16252460D01*
X4334467Y-16252460D02*
X4315420Y-16261984D01*
X4315420Y-16261984D02*
X4296372Y-16261984D01*
X4296372Y-16261984D02*
X4277324Y-16252460D01*
X4277324Y-16252460D02*
X4267801Y-16242936D01*
X4267801Y-16242936D02*
X4258277Y-16223888D01*
X4258277Y-16223888D02*
X4248753Y-16185793D01*
X4248753Y-16185793D02*
X4248753Y-16138174D01*
X4248753Y-16138174D02*
X4258277Y-16100079D01*
X4258277Y-16100079D02*
X4267801Y-16081031D01*
X4267801Y-16081031D02*
X4277324Y-16071508D01*
X4277324Y-16071508D02*
X4296372Y-16061984D01*
X4448753Y-16242936D02*
X4458277Y-16252460D01*
X4458277Y-16252460D02*
X4448753Y-16261984D01*
X4448753Y-16261984D02*
X4439229Y-16252460D01*
X4439229Y-16252460D02*
X4448753Y-16242936D01*
X4448753Y-16242936D02*
X4448753Y-16261984D01*
X4629705Y-16061984D02*
X4591610Y-16061984D01*
X4591610Y-16061984D02*
X4572563Y-16071508D01*
X4572563Y-16071508D02*
X4563039Y-16081031D01*
X4563039Y-16081031D02*
X4543991Y-16109603D01*
X4543991Y-16109603D02*
X4534467Y-16147698D01*
X4534467Y-16147698D02*
X4534467Y-16223888D01*
X4534467Y-16223888D02*
X4543991Y-16242936D01*
X4543991Y-16242936D02*
X4553515Y-16252460D01*
X4553515Y-16252460D02*
X4572563Y-16261984D01*
X4572563Y-16261984D02*
X4610658Y-16261984D01*
X4610658Y-16261984D02*
X4629705Y-16252460D01*
X4629705Y-16252460D02*
X4639229Y-16242936D01*
X4639229Y-16242936D02*
X4648753Y-16223888D01*
X4648753Y-16223888D02*
X4648753Y-16176269D01*
X4648753Y-16176269D02*
X4639229Y-16157222D01*
X4639229Y-16157222D02*
X4629705Y-16147698D01*
X4629705Y-16147698D02*
X4610658Y-16138174D01*
X4610658Y-16138174D02*
X4572563Y-16138174D01*
X4572563Y-16138174D02*
X4553515Y-16147698D01*
X4553515Y-16147698D02*
X4543991Y-16157222D01*
X4543991Y-16157222D02*
X4534467Y-16176269D01*
X4772563Y-16061984D02*
X4791610Y-16061984D01*
X4791610Y-16061984D02*
X4810658Y-16071508D01*
X4810658Y-16071508D02*
X4820182Y-16081031D01*
X4820182Y-16081031D02*
X4829705Y-16100079D01*
X4829705Y-16100079D02*
X4839229Y-16138174D01*
X4839229Y-16138174D02*
X4839229Y-16185793D01*
X4839229Y-16185793D02*
X4829705Y-16223888D01*
X4829705Y-16223888D02*
X4820182Y-16242936D01*
X4820182Y-16242936D02*
X4810658Y-16252460D01*
X4810658Y-16252460D02*
X4791610Y-16261984D01*
X4791610Y-16261984D02*
X4772563Y-16261984D01*
X4772563Y-16261984D02*
X4753515Y-16252460D01*
X4753515Y-16252460D02*
X4743991Y-16242936D01*
X4743991Y-16242936D02*
X4734467Y-16223888D01*
X4734467Y-16223888D02*
X4724944Y-16185793D01*
X4724944Y-16185793D02*
X4724944Y-16138174D01*
X4724944Y-16138174D02*
X4734467Y-16100079D01*
X4734467Y-16100079D02*
X4743991Y-16081031D01*
X4743991Y-16081031D02*
X4753515Y-16071508D01*
X4753515Y-16071508D02*
X4772563Y-16061984D01*
X4963039Y-16061984D02*
X4982086Y-16061984D01*
X4982086Y-16061984D02*
X5001134Y-16071508D01*
X5001134Y-16071508D02*
X5010658Y-16081031D01*
X5010658Y-16081031D02*
X5020182Y-16100079D01*
X5020182Y-16100079D02*
X5029705Y-16138174D01*
X5029705Y-16138174D02*
X5029705Y-16185793D01*
X5029705Y-16185793D02*
X5020182Y-16223888D01*
X5020182Y-16223888D02*
X5010658Y-16242936D01*
X5010658Y-16242936D02*
X5001134Y-16252460D01*
X5001134Y-16252460D02*
X4982086Y-16261984D01*
X4982086Y-16261984D02*
X4963039Y-16261984D01*
X4963039Y-16261984D02*
X4943991Y-16252460D01*
X4943991Y-16252460D02*
X4934467Y-16242936D01*
X4934467Y-16242936D02*
X4924944Y-16223888D01*
X4924944Y-16223888D02*
X4915420Y-16185793D01*
X4915420Y-16185793D02*
X4915420Y-16138174D01*
X4915420Y-16138174D02*
X4924944Y-16100079D01*
X4924944Y-16100079D02*
X4934467Y-16081031D01*
X4934467Y-16081031D02*
X4943991Y-16071508D01*
X4943991Y-16071508D02*
X4963039Y-16061984D01*
X5115420Y-16261984D02*
X5115420Y-16128650D01*
X5115420Y-16147698D02*
X5124944Y-16138174D01*
X5124944Y-16138174D02*
X5143991Y-16128650D01*
X5143991Y-16128650D02*
X5172563Y-16128650D01*
X5172563Y-16128650D02*
X5191610Y-16138174D01*
X5191610Y-16138174D02*
X5201134Y-16157222D01*
X5201134Y-16157222D02*
X5201134Y-16261984D01*
X5201134Y-16157222D02*
X5210658Y-16138174D01*
X5210658Y-16138174D02*
X5229705Y-16128650D01*
X5229705Y-16128650D02*
X5258277Y-16128650D01*
X5258277Y-16128650D02*
X5277325Y-16138174D01*
X5277325Y-16138174D02*
X5286848Y-16157222D01*
X5286848Y-16157222D02*
X5286848Y-16261984D01*
X5382086Y-16261984D02*
X5382086Y-16128650D01*
X5382086Y-16147698D02*
X5391610Y-16138174D01*
X5391610Y-16138174D02*
X5410658Y-16128650D01*
X5410658Y-16128650D02*
X5439229Y-16128650D01*
X5439229Y-16128650D02*
X5458277Y-16138174D01*
X5458277Y-16138174D02*
X5467801Y-16157222D01*
X5467801Y-16157222D02*
X5467801Y-16261984D01*
X5467801Y-16157222D02*
X5477325Y-16138174D01*
X5477325Y-16138174D02*
X5496372Y-16128650D01*
X5496372Y-16128650D02*
X5524944Y-16128650D01*
X5524944Y-16128650D02*
X5543991Y-16138174D01*
X5543991Y-16138174D02*
X5553515Y-16157222D01*
X5553515Y-16157222D02*
X5553515Y-16261984D01*
X5943991Y-16052460D02*
X5772563Y-16309603D01*
X6201134Y-16061984D02*
X6220182Y-16061984D01*
X6220182Y-16061984D02*
X6239229Y-16071508D01*
X6239229Y-16071508D02*
X6248753Y-16081031D01*
X6248753Y-16081031D02*
X6258277Y-16100079D01*
X6258277Y-16100079D02*
X6267801Y-16138174D01*
X6267801Y-16138174D02*
X6267801Y-16185793D01*
X6267801Y-16185793D02*
X6258277Y-16223888D01*
X6258277Y-16223888D02*
X6248753Y-16242936D01*
X6248753Y-16242936D02*
X6239229Y-16252460D01*
X6239229Y-16252460D02*
X6220182Y-16261984D01*
X6220182Y-16261984D02*
X6201134Y-16261984D01*
X6201134Y-16261984D02*
X6182086Y-16252460D01*
X6182086Y-16252460D02*
X6172563Y-16242936D01*
X6172563Y-16242936D02*
X6163039Y-16223888D01*
X6163039Y-16223888D02*
X6153515Y-16185793D01*
X6153515Y-16185793D02*
X6153515Y-16138174D01*
X6153515Y-16138174D02*
X6163039Y-16100079D01*
X6163039Y-16100079D02*
X6172563Y-16081031D01*
X6172563Y-16081031D02*
X6182086Y-16071508D01*
X6182086Y-16071508D02*
X6201134Y-16061984D01*
X6353515Y-16242936D02*
X6363039Y-16252460D01*
X6363039Y-16252460D02*
X6353515Y-16261984D01*
X6353515Y-16261984D02*
X6343991Y-16252460D01*
X6343991Y-16252460D02*
X6353515Y-16242936D01*
X6353515Y-16242936D02*
X6353515Y-16261984D01*
X6486848Y-16061984D02*
X6505896Y-16061984D01*
X6505896Y-16061984D02*
X6524944Y-16071508D01*
X6524944Y-16071508D02*
X6534467Y-16081031D01*
X6534467Y-16081031D02*
X6543991Y-16100079D01*
X6543991Y-16100079D02*
X6553515Y-16138174D01*
X6553515Y-16138174D02*
X6553515Y-16185793D01*
X6553515Y-16185793D02*
X6543991Y-16223888D01*
X6543991Y-16223888D02*
X6534467Y-16242936D01*
X6534467Y-16242936D02*
X6524944Y-16252460D01*
X6524944Y-16252460D02*
X6505896Y-16261984D01*
X6505896Y-16261984D02*
X6486848Y-16261984D01*
X6486848Y-16261984D02*
X6467801Y-16252460D01*
X6467801Y-16252460D02*
X6458277Y-16242936D01*
X6458277Y-16242936D02*
X6448753Y-16223888D01*
X6448753Y-16223888D02*
X6439229Y-16185793D01*
X6439229Y-16185793D02*
X6439229Y-16138174D01*
X6439229Y-16138174D02*
X6448753Y-16100079D01*
X6448753Y-16100079D02*
X6458277Y-16081031D01*
X6458277Y-16081031D02*
X6467801Y-16071508D01*
X6467801Y-16071508D02*
X6486848Y-16061984D01*
X6629706Y-16081031D02*
X6639229Y-16071508D01*
X6639229Y-16071508D02*
X6658277Y-16061984D01*
X6658277Y-16061984D02*
X6705896Y-16061984D01*
X6705896Y-16061984D02*
X6724944Y-16071508D01*
X6724944Y-16071508D02*
X6734467Y-16081031D01*
X6734467Y-16081031D02*
X6743991Y-16100079D01*
X6743991Y-16100079D02*
X6743991Y-16119127D01*
X6743991Y-16119127D02*
X6734467Y-16147698D01*
X6734467Y-16147698D02*
X6620182Y-16261984D01*
X6620182Y-16261984D02*
X6743991Y-16261984D01*
X6810658Y-16061984D02*
X6934467Y-16061984D01*
X6934467Y-16061984D02*
X6867801Y-16138174D01*
X6867801Y-16138174D02*
X6896372Y-16138174D01*
X6896372Y-16138174D02*
X6915420Y-16147698D01*
X6915420Y-16147698D02*
X6924944Y-16157222D01*
X6924944Y-16157222D02*
X6934467Y-16176269D01*
X6934467Y-16176269D02*
X6934467Y-16223888D01*
X6934467Y-16223888D02*
X6924944Y-16242936D01*
X6924944Y-16242936D02*
X6915420Y-16252460D01*
X6915420Y-16252460D02*
X6896372Y-16261984D01*
X6896372Y-16261984D02*
X6839229Y-16261984D01*
X6839229Y-16261984D02*
X6820182Y-16252460D01*
X6820182Y-16252460D02*
X6810658Y-16242936D01*
X7105896Y-16061984D02*
X7067801Y-16061984D01*
X7067801Y-16061984D02*
X7048753Y-16071508D01*
X7048753Y-16071508D02*
X7039229Y-16081031D01*
X7039229Y-16081031D02*
X7020182Y-16109603D01*
X7020182Y-16109603D02*
X7010658Y-16147698D01*
X7010658Y-16147698D02*
X7010658Y-16223888D01*
X7010658Y-16223888D02*
X7020182Y-16242936D01*
X7020182Y-16242936D02*
X7029706Y-16252460D01*
X7029706Y-16252460D02*
X7048753Y-16261984D01*
X7048753Y-16261984D02*
X7086848Y-16261984D01*
X7086848Y-16261984D02*
X7105896Y-16252460D01*
X7105896Y-16252460D02*
X7115420Y-16242936D01*
X7115420Y-16242936D02*
X7124944Y-16223888D01*
X7124944Y-16223888D02*
X7124944Y-16176269D01*
X7124944Y-16176269D02*
X7115420Y-16157222D01*
X7115420Y-16157222D02*
X7105896Y-16147698D01*
X7105896Y-16147698D02*
X7086848Y-16138174D01*
X7086848Y-16138174D02*
X7048753Y-16138174D01*
X7048753Y-16138174D02*
X7029706Y-16147698D01*
X7029706Y-16147698D02*
X7020182Y-16157222D01*
X7020182Y-16157222D02*
X7010658Y-16176269D01*
X7201134Y-16061984D02*
X7201134Y-16100079D01*
X7277325Y-16061984D02*
X7277325Y-16100079D01*
X7572563Y-16338174D02*
X7563039Y-16328650D01*
X7563039Y-16328650D02*
X7543991Y-16300079D01*
X7543991Y-16300079D02*
X7534468Y-16281031D01*
X7534468Y-16281031D02*
X7524944Y-16252460D01*
X7524944Y-16252460D02*
X7515420Y-16204841D01*
X7515420Y-16204841D02*
X7515420Y-16166746D01*
X7515420Y-16166746D02*
X7524944Y-16119127D01*
X7524944Y-16119127D02*
X7534468Y-16090555D01*
X7534468Y-16090555D02*
X7543991Y-16071508D01*
X7543991Y-16071508D02*
X7563039Y-16042936D01*
X7563039Y-16042936D02*
X7572563Y-16033412D01*
X7686848Y-16061984D02*
X7705896Y-16061984D01*
X7705896Y-16061984D02*
X7724944Y-16071508D01*
X7724944Y-16071508D02*
X7734468Y-16081031D01*
X7734468Y-16081031D02*
X7743991Y-16100079D01*
X7743991Y-16100079D02*
X7753515Y-16138174D01*
X7753515Y-16138174D02*
X7753515Y-16185793D01*
X7753515Y-16185793D02*
X7743991Y-16223888D01*
X7743991Y-16223888D02*
X7734468Y-16242936D01*
X7734468Y-16242936D02*
X7724944Y-16252460D01*
X7724944Y-16252460D02*
X7705896Y-16261984D01*
X7705896Y-16261984D02*
X7686848Y-16261984D01*
X7686848Y-16261984D02*
X7667801Y-16252460D01*
X7667801Y-16252460D02*
X7658277Y-16242936D01*
X7658277Y-16242936D02*
X7648753Y-16223888D01*
X7648753Y-16223888D02*
X7639229Y-16185793D01*
X7639229Y-16185793D02*
X7639229Y-16138174D01*
X7639229Y-16138174D02*
X7648753Y-16100079D01*
X7648753Y-16100079D02*
X7658277Y-16081031D01*
X7658277Y-16081031D02*
X7667801Y-16071508D01*
X7667801Y-16071508D02*
X7686848Y-16061984D01*
X7991610Y-16261984D02*
X7991610Y-16061984D01*
X8077325Y-16261984D02*
X8077325Y-16157222D01*
X8077325Y-16157222D02*
X8067801Y-16138174D01*
X8067801Y-16138174D02*
X8048753Y-16128650D01*
X8048753Y-16128650D02*
X8020182Y-16128650D01*
X8020182Y-16128650D02*
X8001134Y-16138174D01*
X8001134Y-16138174D02*
X7991610Y-16147698D01*
X8201134Y-16261984D02*
X8182087Y-16252460D01*
X8182087Y-16252460D02*
X8172563Y-16242936D01*
X8172563Y-16242936D02*
X8163039Y-16223888D01*
X8163039Y-16223888D02*
X8163039Y-16166746D01*
X8163039Y-16166746D02*
X8172563Y-16147698D01*
X8172563Y-16147698D02*
X8182087Y-16138174D01*
X8182087Y-16138174D02*
X8201134Y-16128650D01*
X8201134Y-16128650D02*
X8229706Y-16128650D01*
X8229706Y-16128650D02*
X8248753Y-16138174D01*
X8248753Y-16138174D02*
X8258277Y-16147698D01*
X8258277Y-16147698D02*
X8267801Y-16166746D01*
X8267801Y-16166746D02*
X8267801Y-16223888D01*
X8267801Y-16223888D02*
X8258277Y-16242936D01*
X8258277Y-16242936D02*
X8248753Y-16252460D01*
X8248753Y-16252460D02*
X8229706Y-16261984D01*
X8229706Y-16261984D02*
X8201134Y-16261984D01*
X8382087Y-16261984D02*
X8363039Y-16252460D01*
X8363039Y-16252460D02*
X8353515Y-16233412D01*
X8353515Y-16233412D02*
X8353515Y-16061984D01*
X8534468Y-16252460D02*
X8515420Y-16261984D01*
X8515420Y-16261984D02*
X8477325Y-16261984D01*
X8477325Y-16261984D02*
X8458277Y-16252460D01*
X8458277Y-16252460D02*
X8448753Y-16233412D01*
X8448753Y-16233412D02*
X8448753Y-16157222D01*
X8448753Y-16157222D02*
X8458277Y-16138174D01*
X8458277Y-16138174D02*
X8477325Y-16128650D01*
X8477325Y-16128650D02*
X8515420Y-16128650D01*
X8515420Y-16128650D02*
X8534468Y-16138174D01*
X8534468Y-16138174D02*
X8543992Y-16157222D01*
X8543992Y-16157222D02*
X8543992Y-16176269D01*
X8543992Y-16176269D02*
X8448753Y-16195317D01*
X8620182Y-16252460D02*
X8639230Y-16261984D01*
X8639230Y-16261984D02*
X8677325Y-16261984D01*
X8677325Y-16261984D02*
X8696373Y-16252460D01*
X8696373Y-16252460D02*
X8705896Y-16233412D01*
X8705896Y-16233412D02*
X8705896Y-16223888D01*
X8705896Y-16223888D02*
X8696373Y-16204841D01*
X8696373Y-16204841D02*
X8677325Y-16195317D01*
X8677325Y-16195317D02*
X8648753Y-16195317D01*
X8648753Y-16195317D02*
X8629706Y-16185793D01*
X8629706Y-16185793D02*
X8620182Y-16166746D01*
X8620182Y-16166746D02*
X8620182Y-16157222D01*
X8620182Y-16157222D02*
X8629706Y-16138174D01*
X8629706Y-16138174D02*
X8648753Y-16128650D01*
X8648753Y-16128650D02*
X8677325Y-16128650D01*
X8677325Y-16128650D02*
X8696373Y-16138174D01*
X8943992Y-16185793D02*
X9096373Y-16185793D01*
X9020182Y-16261984D02*
X9020182Y-16109603D01*
X9429706Y-16128650D02*
X9429706Y-16261984D01*
X9382087Y-16052460D02*
X9334468Y-16195317D01*
X9334468Y-16195317D02*
X9458277Y-16195317D01*
X9677325Y-16252460D02*
X9696373Y-16261984D01*
X9696373Y-16261984D02*
X9734468Y-16261984D01*
X9734468Y-16261984D02*
X9753516Y-16252460D01*
X9753516Y-16252460D02*
X9763039Y-16233412D01*
X9763039Y-16233412D02*
X9763039Y-16223888D01*
X9763039Y-16223888D02*
X9753516Y-16204841D01*
X9753516Y-16204841D02*
X9734468Y-16195317D01*
X9734468Y-16195317D02*
X9705896Y-16195317D01*
X9705896Y-16195317D02*
X9686849Y-16185793D01*
X9686849Y-16185793D02*
X9677325Y-16166746D01*
X9677325Y-16166746D02*
X9677325Y-16157222D01*
X9677325Y-16157222D02*
X9686849Y-16138174D01*
X9686849Y-16138174D02*
X9705896Y-16128650D01*
X9705896Y-16128650D02*
X9734468Y-16128650D01*
X9734468Y-16128650D02*
X9753516Y-16138174D01*
X9877325Y-16261984D02*
X9858277Y-16252460D01*
X9858277Y-16252460D02*
X9848754Y-16233412D01*
X9848754Y-16233412D02*
X9848754Y-16061984D01*
X9982087Y-16261984D02*
X9963039Y-16252460D01*
X9963039Y-16252460D02*
X9953516Y-16242936D01*
X9953516Y-16242936D02*
X9943992Y-16223888D01*
X9943992Y-16223888D02*
X9943992Y-16166746D01*
X9943992Y-16166746D02*
X9953516Y-16147698D01*
X9953516Y-16147698D02*
X9963039Y-16138174D01*
X9963039Y-16138174D02*
X9982087Y-16128650D01*
X9982087Y-16128650D02*
X10010658Y-16128650D01*
X10010658Y-16128650D02*
X10029706Y-16138174D01*
X10029706Y-16138174D02*
X10039230Y-16147698D01*
X10039230Y-16147698D02*
X10048754Y-16166746D01*
X10048754Y-16166746D02*
X10048754Y-16223888D01*
X10048754Y-16223888D02*
X10039230Y-16242936D01*
X10039230Y-16242936D02*
X10029706Y-16252460D01*
X10029706Y-16252460D02*
X10010658Y-16261984D01*
X10010658Y-16261984D02*
X9982087Y-16261984D01*
X10105897Y-16128650D02*
X10182087Y-16128650D01*
X10134468Y-16061984D02*
X10134468Y-16233412D01*
X10134468Y-16233412D02*
X10143992Y-16252460D01*
X10143992Y-16252460D02*
X10163039Y-16261984D01*
X10163039Y-16261984D02*
X10182087Y-16261984D01*
X10239230Y-16252460D02*
X10258277Y-16261984D01*
X10258277Y-16261984D02*
X10296373Y-16261984D01*
X10296373Y-16261984D02*
X10315420Y-16252460D01*
X10315420Y-16252460D02*
X10324944Y-16233412D01*
X10324944Y-16233412D02*
X10324944Y-16223888D01*
X10324944Y-16223888D02*
X10315420Y-16204841D01*
X10315420Y-16204841D02*
X10296373Y-16195317D01*
X10296373Y-16195317D02*
X10267801Y-16195317D01*
X10267801Y-16195317D02*
X10248754Y-16185793D01*
X10248754Y-16185793D02*
X10239230Y-16166746D01*
X10239230Y-16166746D02*
X10239230Y-16157222D01*
X10239230Y-16157222D02*
X10248754Y-16138174D01*
X10248754Y-16138174D02*
X10267801Y-16128650D01*
X10267801Y-16128650D02*
X10296373Y-16128650D01*
X10296373Y-16128650D02*
X10315420Y-16138174D01*
X10391611Y-16338174D02*
X10401135Y-16328650D01*
X10401135Y-16328650D02*
X10420182Y-16300079D01*
X10420182Y-16300079D02*
X10429706Y-16281031D01*
X10429706Y-16281031D02*
X10439230Y-16252460D01*
X10439230Y-16252460D02*
X10448754Y-16204841D01*
X10448754Y-16204841D02*
X10448754Y-16166746D01*
X10448754Y-16166746D02*
X10439230Y-16119127D01*
X10439230Y-16119127D02*
X10429706Y-16090555D01*
X10429706Y-16090555D02*
X10420182Y-16071508D01*
X10420182Y-16071508D02*
X10401135Y-16042936D01*
X10401135Y-16042936D02*
X10391611Y-16033412D01*
D12*
X3985784Y-16462784D02*
X3985784Y-16406215D01*
X3929215Y-16406215D01*
X3929215Y-16462784D01*
X3985784Y-16462784D01*
D11*
X4296372Y-16325984D02*
X4315420Y-16325984D01*
X4315420Y-16325984D02*
X4334467Y-16335508D01*
X4334467Y-16335508D02*
X4343991Y-16345031D01*
X4343991Y-16345031D02*
X4353515Y-16364079D01*
X4353515Y-16364079D02*
X4363039Y-16402174D01*
X4363039Y-16402174D02*
X4363039Y-16449793D01*
X4363039Y-16449793D02*
X4353515Y-16487888D01*
X4353515Y-16487888D02*
X4343991Y-16506936D01*
X4343991Y-16506936D02*
X4334467Y-16516460D01*
X4334467Y-16516460D02*
X4315420Y-16525984D01*
X4315420Y-16525984D02*
X4296372Y-16525984D01*
X4296372Y-16525984D02*
X4277324Y-16516460D01*
X4277324Y-16516460D02*
X4267801Y-16506936D01*
X4267801Y-16506936D02*
X4258277Y-16487888D01*
X4258277Y-16487888D02*
X4248753Y-16449793D01*
X4248753Y-16449793D02*
X4248753Y-16402174D01*
X4248753Y-16402174D02*
X4258277Y-16364079D01*
X4258277Y-16364079D02*
X4267801Y-16345031D01*
X4267801Y-16345031D02*
X4277324Y-16335508D01*
X4277324Y-16335508D02*
X4296372Y-16325984D01*
X4448753Y-16506936D02*
X4458277Y-16516460D01*
X4458277Y-16516460D02*
X4448753Y-16525984D01*
X4448753Y-16525984D02*
X4439229Y-16516460D01*
X4439229Y-16516460D02*
X4448753Y-16506936D01*
X4448753Y-16506936D02*
X4448753Y-16525984D01*
X4572563Y-16411698D02*
X4553515Y-16402174D01*
X4553515Y-16402174D02*
X4543991Y-16392650D01*
X4543991Y-16392650D02*
X4534467Y-16373603D01*
X4534467Y-16373603D02*
X4534467Y-16364079D01*
X4534467Y-16364079D02*
X4543991Y-16345031D01*
X4543991Y-16345031D02*
X4553515Y-16335508D01*
X4553515Y-16335508D02*
X4572563Y-16325984D01*
X4572563Y-16325984D02*
X4610658Y-16325984D01*
X4610658Y-16325984D02*
X4629705Y-16335508D01*
X4629705Y-16335508D02*
X4639229Y-16345031D01*
X4639229Y-16345031D02*
X4648753Y-16364079D01*
X4648753Y-16364079D02*
X4648753Y-16373603D01*
X4648753Y-16373603D02*
X4639229Y-16392650D01*
X4639229Y-16392650D02*
X4629705Y-16402174D01*
X4629705Y-16402174D02*
X4610658Y-16411698D01*
X4610658Y-16411698D02*
X4572563Y-16411698D01*
X4572563Y-16411698D02*
X4553515Y-16421222D01*
X4553515Y-16421222D02*
X4543991Y-16430746D01*
X4543991Y-16430746D02*
X4534467Y-16449793D01*
X4534467Y-16449793D02*
X4534467Y-16487888D01*
X4534467Y-16487888D02*
X4543991Y-16506936D01*
X4543991Y-16506936D02*
X4553515Y-16516460D01*
X4553515Y-16516460D02*
X4572563Y-16525984D01*
X4572563Y-16525984D02*
X4610658Y-16525984D01*
X4610658Y-16525984D02*
X4629705Y-16516460D01*
X4629705Y-16516460D02*
X4639229Y-16506936D01*
X4639229Y-16506936D02*
X4648753Y-16487888D01*
X4648753Y-16487888D02*
X4648753Y-16449793D01*
X4648753Y-16449793D02*
X4639229Y-16430746D01*
X4639229Y-16430746D02*
X4629705Y-16421222D01*
X4629705Y-16421222D02*
X4610658Y-16411698D01*
X4772563Y-16325984D02*
X4791610Y-16325984D01*
X4791610Y-16325984D02*
X4810658Y-16335508D01*
X4810658Y-16335508D02*
X4820182Y-16345031D01*
X4820182Y-16345031D02*
X4829705Y-16364079D01*
X4829705Y-16364079D02*
X4839229Y-16402174D01*
X4839229Y-16402174D02*
X4839229Y-16449793D01*
X4839229Y-16449793D02*
X4829705Y-16487888D01*
X4829705Y-16487888D02*
X4820182Y-16506936D01*
X4820182Y-16506936D02*
X4810658Y-16516460D01*
X4810658Y-16516460D02*
X4791610Y-16525984D01*
X4791610Y-16525984D02*
X4772563Y-16525984D01*
X4772563Y-16525984D02*
X4753515Y-16516460D01*
X4753515Y-16516460D02*
X4743991Y-16506936D01*
X4743991Y-16506936D02*
X4734467Y-16487888D01*
X4734467Y-16487888D02*
X4724944Y-16449793D01*
X4724944Y-16449793D02*
X4724944Y-16402174D01*
X4724944Y-16402174D02*
X4734467Y-16364079D01*
X4734467Y-16364079D02*
X4743991Y-16345031D01*
X4743991Y-16345031D02*
X4753515Y-16335508D01*
X4753515Y-16335508D02*
X4772563Y-16325984D01*
X4963039Y-16325984D02*
X4982086Y-16325984D01*
X4982086Y-16325984D02*
X5001134Y-16335508D01*
X5001134Y-16335508D02*
X5010658Y-16345031D01*
X5010658Y-16345031D02*
X5020182Y-16364079D01*
X5020182Y-16364079D02*
X5029705Y-16402174D01*
X5029705Y-16402174D02*
X5029705Y-16449793D01*
X5029705Y-16449793D02*
X5020182Y-16487888D01*
X5020182Y-16487888D02*
X5010658Y-16506936D01*
X5010658Y-16506936D02*
X5001134Y-16516460D01*
X5001134Y-16516460D02*
X4982086Y-16525984D01*
X4982086Y-16525984D02*
X4963039Y-16525984D01*
X4963039Y-16525984D02*
X4943991Y-16516460D01*
X4943991Y-16516460D02*
X4934467Y-16506936D01*
X4934467Y-16506936D02*
X4924944Y-16487888D01*
X4924944Y-16487888D02*
X4915420Y-16449793D01*
X4915420Y-16449793D02*
X4915420Y-16402174D01*
X4915420Y-16402174D02*
X4924944Y-16364079D01*
X4924944Y-16364079D02*
X4934467Y-16345031D01*
X4934467Y-16345031D02*
X4943991Y-16335508D01*
X4943991Y-16335508D02*
X4963039Y-16325984D01*
X5115420Y-16525984D02*
X5115420Y-16392650D01*
X5115420Y-16411698D02*
X5124944Y-16402174D01*
X5124944Y-16402174D02*
X5143991Y-16392650D01*
X5143991Y-16392650D02*
X5172563Y-16392650D01*
X5172563Y-16392650D02*
X5191610Y-16402174D01*
X5191610Y-16402174D02*
X5201134Y-16421222D01*
X5201134Y-16421222D02*
X5201134Y-16525984D01*
X5201134Y-16421222D02*
X5210658Y-16402174D01*
X5210658Y-16402174D02*
X5229705Y-16392650D01*
X5229705Y-16392650D02*
X5258277Y-16392650D01*
X5258277Y-16392650D02*
X5277325Y-16402174D01*
X5277325Y-16402174D02*
X5286848Y-16421222D01*
X5286848Y-16421222D02*
X5286848Y-16525984D01*
X5382086Y-16525984D02*
X5382086Y-16392650D01*
X5382086Y-16411698D02*
X5391610Y-16402174D01*
X5391610Y-16402174D02*
X5410658Y-16392650D01*
X5410658Y-16392650D02*
X5439229Y-16392650D01*
X5439229Y-16392650D02*
X5458277Y-16402174D01*
X5458277Y-16402174D02*
X5467801Y-16421222D01*
X5467801Y-16421222D02*
X5467801Y-16525984D01*
X5467801Y-16421222D02*
X5477325Y-16402174D01*
X5477325Y-16402174D02*
X5496372Y-16392650D01*
X5496372Y-16392650D02*
X5524944Y-16392650D01*
X5524944Y-16392650D02*
X5543991Y-16402174D01*
X5543991Y-16402174D02*
X5553515Y-16421222D01*
X5553515Y-16421222D02*
X5553515Y-16525984D01*
X5943991Y-16316460D02*
X5772563Y-16573603D01*
X6201134Y-16325984D02*
X6220182Y-16325984D01*
X6220182Y-16325984D02*
X6239229Y-16335508D01*
X6239229Y-16335508D02*
X6248753Y-16345031D01*
X6248753Y-16345031D02*
X6258277Y-16364079D01*
X6258277Y-16364079D02*
X6267801Y-16402174D01*
X6267801Y-16402174D02*
X6267801Y-16449793D01*
X6267801Y-16449793D02*
X6258277Y-16487888D01*
X6258277Y-16487888D02*
X6248753Y-16506936D01*
X6248753Y-16506936D02*
X6239229Y-16516460D01*
X6239229Y-16516460D02*
X6220182Y-16525984D01*
X6220182Y-16525984D02*
X6201134Y-16525984D01*
X6201134Y-16525984D02*
X6182086Y-16516460D01*
X6182086Y-16516460D02*
X6172563Y-16506936D01*
X6172563Y-16506936D02*
X6163039Y-16487888D01*
X6163039Y-16487888D02*
X6153515Y-16449793D01*
X6153515Y-16449793D02*
X6153515Y-16402174D01*
X6153515Y-16402174D02*
X6163039Y-16364079D01*
X6163039Y-16364079D02*
X6172563Y-16345031D01*
X6172563Y-16345031D02*
X6182086Y-16335508D01*
X6182086Y-16335508D02*
X6201134Y-16325984D01*
X6353515Y-16506936D02*
X6363039Y-16516460D01*
X6363039Y-16516460D02*
X6353515Y-16525984D01*
X6353515Y-16525984D02*
X6343991Y-16516460D01*
X6343991Y-16516460D02*
X6353515Y-16506936D01*
X6353515Y-16506936D02*
X6353515Y-16525984D01*
X6486848Y-16325984D02*
X6505896Y-16325984D01*
X6505896Y-16325984D02*
X6524944Y-16335508D01*
X6524944Y-16335508D02*
X6534467Y-16345031D01*
X6534467Y-16345031D02*
X6543991Y-16364079D01*
X6543991Y-16364079D02*
X6553515Y-16402174D01*
X6553515Y-16402174D02*
X6553515Y-16449793D01*
X6553515Y-16449793D02*
X6543991Y-16487888D01*
X6543991Y-16487888D02*
X6534467Y-16506936D01*
X6534467Y-16506936D02*
X6524944Y-16516460D01*
X6524944Y-16516460D02*
X6505896Y-16525984D01*
X6505896Y-16525984D02*
X6486848Y-16525984D01*
X6486848Y-16525984D02*
X6467801Y-16516460D01*
X6467801Y-16516460D02*
X6458277Y-16506936D01*
X6458277Y-16506936D02*
X6448753Y-16487888D01*
X6448753Y-16487888D02*
X6439229Y-16449793D01*
X6439229Y-16449793D02*
X6439229Y-16402174D01*
X6439229Y-16402174D02*
X6448753Y-16364079D01*
X6448753Y-16364079D02*
X6458277Y-16345031D01*
X6458277Y-16345031D02*
X6467801Y-16335508D01*
X6467801Y-16335508D02*
X6486848Y-16325984D01*
X6620182Y-16325984D02*
X6743991Y-16325984D01*
X6743991Y-16325984D02*
X6677325Y-16402174D01*
X6677325Y-16402174D02*
X6705896Y-16402174D01*
X6705896Y-16402174D02*
X6724944Y-16411698D01*
X6724944Y-16411698D02*
X6734467Y-16421222D01*
X6734467Y-16421222D02*
X6743991Y-16440269D01*
X6743991Y-16440269D02*
X6743991Y-16487888D01*
X6743991Y-16487888D02*
X6734467Y-16506936D01*
X6734467Y-16506936D02*
X6724944Y-16516460D01*
X6724944Y-16516460D02*
X6705896Y-16525984D01*
X6705896Y-16525984D02*
X6648753Y-16525984D01*
X6648753Y-16525984D02*
X6629706Y-16516460D01*
X6629706Y-16516460D02*
X6620182Y-16506936D01*
X6934467Y-16525984D02*
X6820182Y-16525984D01*
X6877325Y-16525984D02*
X6877325Y-16325984D01*
X6877325Y-16325984D02*
X6858277Y-16354555D01*
X6858277Y-16354555D02*
X6839229Y-16373603D01*
X6839229Y-16373603D02*
X6820182Y-16383127D01*
X7115420Y-16325984D02*
X7020182Y-16325984D01*
X7020182Y-16325984D02*
X7010658Y-16421222D01*
X7010658Y-16421222D02*
X7020182Y-16411698D01*
X7020182Y-16411698D02*
X7039229Y-16402174D01*
X7039229Y-16402174D02*
X7086848Y-16402174D01*
X7086848Y-16402174D02*
X7105896Y-16411698D01*
X7105896Y-16411698D02*
X7115420Y-16421222D01*
X7115420Y-16421222D02*
X7124944Y-16440269D01*
X7124944Y-16440269D02*
X7124944Y-16487888D01*
X7124944Y-16487888D02*
X7115420Y-16506936D01*
X7115420Y-16506936D02*
X7105896Y-16516460D01*
X7105896Y-16516460D02*
X7086848Y-16525984D01*
X7086848Y-16525984D02*
X7039229Y-16525984D01*
X7039229Y-16525984D02*
X7020182Y-16516460D01*
X7020182Y-16516460D02*
X7010658Y-16506936D01*
X7201134Y-16325984D02*
X7201134Y-16364079D01*
X7277325Y-16325984D02*
X7277325Y-16364079D01*
X7572563Y-16602174D02*
X7563039Y-16592650D01*
X7563039Y-16592650D02*
X7543991Y-16564079D01*
X7543991Y-16564079D02*
X7534468Y-16545031D01*
X7534468Y-16545031D02*
X7524944Y-16516460D01*
X7524944Y-16516460D02*
X7515420Y-16468841D01*
X7515420Y-16468841D02*
X7515420Y-16430746D01*
X7515420Y-16430746D02*
X7524944Y-16383127D01*
X7524944Y-16383127D02*
X7534468Y-16354555D01*
X7534468Y-16354555D02*
X7543991Y-16335508D01*
X7543991Y-16335508D02*
X7563039Y-16306936D01*
X7563039Y-16306936D02*
X7572563Y-16297412D01*
X7686848Y-16325984D02*
X7705896Y-16325984D01*
X7705896Y-16325984D02*
X7724944Y-16335508D01*
X7724944Y-16335508D02*
X7734468Y-16345031D01*
X7734468Y-16345031D02*
X7743991Y-16364079D01*
X7743991Y-16364079D02*
X7753515Y-16402174D01*
X7753515Y-16402174D02*
X7753515Y-16449793D01*
X7753515Y-16449793D02*
X7743991Y-16487888D01*
X7743991Y-16487888D02*
X7734468Y-16506936D01*
X7734468Y-16506936D02*
X7724944Y-16516460D01*
X7724944Y-16516460D02*
X7705896Y-16525984D01*
X7705896Y-16525984D02*
X7686848Y-16525984D01*
X7686848Y-16525984D02*
X7667801Y-16516460D01*
X7667801Y-16516460D02*
X7658277Y-16506936D01*
X7658277Y-16506936D02*
X7648753Y-16487888D01*
X7648753Y-16487888D02*
X7639229Y-16449793D01*
X7639229Y-16449793D02*
X7639229Y-16402174D01*
X7639229Y-16402174D02*
X7648753Y-16364079D01*
X7648753Y-16364079D02*
X7658277Y-16345031D01*
X7658277Y-16345031D02*
X7667801Y-16335508D01*
X7667801Y-16335508D02*
X7686848Y-16325984D01*
X7991610Y-16525984D02*
X7991610Y-16325984D01*
X8077325Y-16525984D02*
X8077325Y-16421222D01*
X8077325Y-16421222D02*
X8067801Y-16402174D01*
X8067801Y-16402174D02*
X8048753Y-16392650D01*
X8048753Y-16392650D02*
X8020182Y-16392650D01*
X8020182Y-16392650D02*
X8001134Y-16402174D01*
X8001134Y-16402174D02*
X7991610Y-16411698D01*
X8201134Y-16525984D02*
X8182087Y-16516460D01*
X8182087Y-16516460D02*
X8172563Y-16506936D01*
X8172563Y-16506936D02*
X8163039Y-16487888D01*
X8163039Y-16487888D02*
X8163039Y-16430746D01*
X8163039Y-16430746D02*
X8172563Y-16411698D01*
X8172563Y-16411698D02*
X8182087Y-16402174D01*
X8182087Y-16402174D02*
X8201134Y-16392650D01*
X8201134Y-16392650D02*
X8229706Y-16392650D01*
X8229706Y-16392650D02*
X8248753Y-16402174D01*
X8248753Y-16402174D02*
X8258277Y-16411698D01*
X8258277Y-16411698D02*
X8267801Y-16430746D01*
X8267801Y-16430746D02*
X8267801Y-16487888D01*
X8267801Y-16487888D02*
X8258277Y-16506936D01*
X8258277Y-16506936D02*
X8248753Y-16516460D01*
X8248753Y-16516460D02*
X8229706Y-16525984D01*
X8229706Y-16525984D02*
X8201134Y-16525984D01*
X8382087Y-16525984D02*
X8363039Y-16516460D01*
X8363039Y-16516460D02*
X8353515Y-16497412D01*
X8353515Y-16497412D02*
X8353515Y-16325984D01*
X8534468Y-16516460D02*
X8515420Y-16525984D01*
X8515420Y-16525984D02*
X8477325Y-16525984D01*
X8477325Y-16525984D02*
X8458277Y-16516460D01*
X8458277Y-16516460D02*
X8448753Y-16497412D01*
X8448753Y-16497412D02*
X8448753Y-16421222D01*
X8448753Y-16421222D02*
X8458277Y-16402174D01*
X8458277Y-16402174D02*
X8477325Y-16392650D01*
X8477325Y-16392650D02*
X8515420Y-16392650D01*
X8515420Y-16392650D02*
X8534468Y-16402174D01*
X8534468Y-16402174D02*
X8543992Y-16421222D01*
X8543992Y-16421222D02*
X8543992Y-16440269D01*
X8543992Y-16440269D02*
X8448753Y-16459317D01*
X8620182Y-16516460D02*
X8639230Y-16525984D01*
X8639230Y-16525984D02*
X8677325Y-16525984D01*
X8677325Y-16525984D02*
X8696373Y-16516460D01*
X8696373Y-16516460D02*
X8705896Y-16497412D01*
X8705896Y-16497412D02*
X8705896Y-16487888D01*
X8705896Y-16487888D02*
X8696373Y-16468841D01*
X8696373Y-16468841D02*
X8677325Y-16459317D01*
X8677325Y-16459317D02*
X8648753Y-16459317D01*
X8648753Y-16459317D02*
X8629706Y-16449793D01*
X8629706Y-16449793D02*
X8620182Y-16430746D01*
X8620182Y-16430746D02*
X8620182Y-16421222D01*
X8620182Y-16421222D02*
X8629706Y-16402174D01*
X8629706Y-16402174D02*
X8648753Y-16392650D01*
X8648753Y-16392650D02*
X8677325Y-16392650D01*
X8677325Y-16392650D02*
X8696373Y-16402174D01*
X8943992Y-16449793D02*
X9096373Y-16449793D01*
X9020182Y-16525984D02*
X9020182Y-16373603D01*
X9429706Y-16392650D02*
X9429706Y-16525984D01*
X9382087Y-16316460D02*
X9334468Y-16459317D01*
X9334468Y-16459317D02*
X9458277Y-16459317D01*
X9677325Y-16516460D02*
X9696373Y-16525984D01*
X9696373Y-16525984D02*
X9734468Y-16525984D01*
X9734468Y-16525984D02*
X9753516Y-16516460D01*
X9753516Y-16516460D02*
X9763039Y-16497412D01*
X9763039Y-16497412D02*
X9763039Y-16487888D01*
X9763039Y-16487888D02*
X9753516Y-16468841D01*
X9753516Y-16468841D02*
X9734468Y-16459317D01*
X9734468Y-16459317D02*
X9705896Y-16459317D01*
X9705896Y-16459317D02*
X9686849Y-16449793D01*
X9686849Y-16449793D02*
X9677325Y-16430746D01*
X9677325Y-16430746D02*
X9677325Y-16421222D01*
X9677325Y-16421222D02*
X9686849Y-16402174D01*
X9686849Y-16402174D02*
X9705896Y-16392650D01*
X9705896Y-16392650D02*
X9734468Y-16392650D01*
X9734468Y-16392650D02*
X9753516Y-16402174D01*
X9877325Y-16525984D02*
X9858277Y-16516460D01*
X9858277Y-16516460D02*
X9848754Y-16497412D01*
X9848754Y-16497412D02*
X9848754Y-16325984D01*
X9982087Y-16525984D02*
X9963039Y-16516460D01*
X9963039Y-16516460D02*
X9953516Y-16506936D01*
X9953516Y-16506936D02*
X9943992Y-16487888D01*
X9943992Y-16487888D02*
X9943992Y-16430746D01*
X9943992Y-16430746D02*
X9953516Y-16411698D01*
X9953516Y-16411698D02*
X9963039Y-16402174D01*
X9963039Y-16402174D02*
X9982087Y-16392650D01*
X9982087Y-16392650D02*
X10010658Y-16392650D01*
X10010658Y-16392650D02*
X10029706Y-16402174D01*
X10029706Y-16402174D02*
X10039230Y-16411698D01*
X10039230Y-16411698D02*
X10048754Y-16430746D01*
X10048754Y-16430746D02*
X10048754Y-16487888D01*
X10048754Y-16487888D02*
X10039230Y-16506936D01*
X10039230Y-16506936D02*
X10029706Y-16516460D01*
X10029706Y-16516460D02*
X10010658Y-16525984D01*
X10010658Y-16525984D02*
X9982087Y-16525984D01*
X10105897Y-16392650D02*
X10182087Y-16392650D01*
X10134468Y-16325984D02*
X10134468Y-16497412D01*
X10134468Y-16497412D02*
X10143992Y-16516460D01*
X10143992Y-16516460D02*
X10163039Y-16525984D01*
X10163039Y-16525984D02*
X10182087Y-16525984D01*
X10239230Y-16516460D02*
X10258277Y-16525984D01*
X10258277Y-16525984D02*
X10296373Y-16525984D01*
X10296373Y-16525984D02*
X10315420Y-16516460D01*
X10315420Y-16516460D02*
X10324944Y-16497412D01*
X10324944Y-16497412D02*
X10324944Y-16487888D01*
X10324944Y-16487888D02*
X10315420Y-16468841D01*
X10315420Y-16468841D02*
X10296373Y-16459317D01*
X10296373Y-16459317D02*
X10267801Y-16459317D01*
X10267801Y-16459317D02*
X10248754Y-16449793D01*
X10248754Y-16449793D02*
X10239230Y-16430746D01*
X10239230Y-16430746D02*
X10239230Y-16421222D01*
X10239230Y-16421222D02*
X10248754Y-16402174D01*
X10248754Y-16402174D02*
X10267801Y-16392650D01*
X10267801Y-16392650D02*
X10296373Y-16392650D01*
X10296373Y-16392650D02*
X10315420Y-16402174D01*
X10391611Y-16602174D02*
X10401135Y-16592650D01*
X10401135Y-16592650D02*
X10420182Y-16564079D01*
X10420182Y-16564079D02*
X10429706Y-16545031D01*
X10429706Y-16545031D02*
X10439230Y-16516460D01*
X10439230Y-16516460D02*
X10448754Y-16468841D01*
X10448754Y-16468841D02*
X10448754Y-16430746D01*
X10448754Y-16430746D02*
X10439230Y-16383127D01*
X10439230Y-16383127D02*
X10429706Y-16354555D01*
X10429706Y-16354555D02*
X10420182Y-16335508D01*
X10420182Y-16335508D02*
X10401135Y-16306936D01*
X10401135Y-16306936D02*
X10391611Y-16297412D01*
D13*
X3942500Y-16753500D02*
X3997500Y-16698500D01*
X3942500Y-16643500D01*
X3887500Y-16698500D01*
X3942500Y-16753500D01*
D11*
X4363039Y-16789984D02*
X4248753Y-16789984D01*
X4305896Y-16789984D02*
X4305896Y-16589984D01*
X4305896Y-16589984D02*
X4286848Y-16618555D01*
X4286848Y-16618555D02*
X4267801Y-16637603D01*
X4267801Y-16637603D02*
X4248753Y-16647127D01*
X4448753Y-16770936D02*
X4458277Y-16780460D01*
X4458277Y-16780460D02*
X4448753Y-16789984D01*
X4448753Y-16789984D02*
X4439229Y-16780460D01*
X4439229Y-16780460D02*
X4448753Y-16770936D01*
X4448753Y-16770936D02*
X4448753Y-16789984D01*
X4648753Y-16789984D02*
X4534467Y-16789984D01*
X4591610Y-16789984D02*
X4591610Y-16589984D01*
X4591610Y-16589984D02*
X4572563Y-16618555D01*
X4572563Y-16618555D02*
X4553515Y-16637603D01*
X4553515Y-16637603D02*
X4534467Y-16647127D01*
X4772563Y-16589984D02*
X4791610Y-16589984D01*
X4791610Y-16589984D02*
X4810658Y-16599508D01*
X4810658Y-16599508D02*
X4820182Y-16609031D01*
X4820182Y-16609031D02*
X4829705Y-16628079D01*
X4829705Y-16628079D02*
X4839229Y-16666174D01*
X4839229Y-16666174D02*
X4839229Y-16713793D01*
X4839229Y-16713793D02*
X4829705Y-16751888D01*
X4829705Y-16751888D02*
X4820182Y-16770936D01*
X4820182Y-16770936D02*
X4810658Y-16780460D01*
X4810658Y-16780460D02*
X4791610Y-16789984D01*
X4791610Y-16789984D02*
X4772563Y-16789984D01*
X4772563Y-16789984D02*
X4753515Y-16780460D01*
X4753515Y-16780460D02*
X4743991Y-16770936D01*
X4743991Y-16770936D02*
X4734467Y-16751888D01*
X4734467Y-16751888D02*
X4724944Y-16713793D01*
X4724944Y-16713793D02*
X4724944Y-16666174D01*
X4724944Y-16666174D02*
X4734467Y-16628079D01*
X4734467Y-16628079D02*
X4743991Y-16609031D01*
X4743991Y-16609031D02*
X4753515Y-16599508D01*
X4753515Y-16599508D02*
X4772563Y-16589984D01*
X4963039Y-16589984D02*
X4982086Y-16589984D01*
X4982086Y-16589984D02*
X5001134Y-16599508D01*
X5001134Y-16599508D02*
X5010658Y-16609031D01*
X5010658Y-16609031D02*
X5020182Y-16628079D01*
X5020182Y-16628079D02*
X5029705Y-16666174D01*
X5029705Y-16666174D02*
X5029705Y-16713793D01*
X5029705Y-16713793D02*
X5020182Y-16751888D01*
X5020182Y-16751888D02*
X5010658Y-16770936D01*
X5010658Y-16770936D02*
X5001134Y-16780460D01*
X5001134Y-16780460D02*
X4982086Y-16789984D01*
X4982086Y-16789984D02*
X4963039Y-16789984D01*
X4963039Y-16789984D02*
X4943991Y-16780460D01*
X4943991Y-16780460D02*
X4934467Y-16770936D01*
X4934467Y-16770936D02*
X4924944Y-16751888D01*
X4924944Y-16751888D02*
X4915420Y-16713793D01*
X4915420Y-16713793D02*
X4915420Y-16666174D01*
X4915420Y-16666174D02*
X4924944Y-16628079D01*
X4924944Y-16628079D02*
X4934467Y-16609031D01*
X4934467Y-16609031D02*
X4943991Y-16599508D01*
X4943991Y-16599508D02*
X4963039Y-16589984D01*
X5115420Y-16789984D02*
X5115420Y-16656650D01*
X5115420Y-16675698D02*
X5124944Y-16666174D01*
X5124944Y-16666174D02*
X5143991Y-16656650D01*
X5143991Y-16656650D02*
X5172563Y-16656650D01*
X5172563Y-16656650D02*
X5191610Y-16666174D01*
X5191610Y-16666174D02*
X5201134Y-16685222D01*
X5201134Y-16685222D02*
X5201134Y-16789984D01*
X5201134Y-16685222D02*
X5210658Y-16666174D01*
X5210658Y-16666174D02*
X5229705Y-16656650D01*
X5229705Y-16656650D02*
X5258277Y-16656650D01*
X5258277Y-16656650D02*
X5277325Y-16666174D01*
X5277325Y-16666174D02*
X5286848Y-16685222D01*
X5286848Y-16685222D02*
X5286848Y-16789984D01*
X5382086Y-16789984D02*
X5382086Y-16656650D01*
X5382086Y-16675698D02*
X5391610Y-16666174D01*
X5391610Y-16666174D02*
X5410658Y-16656650D01*
X5410658Y-16656650D02*
X5439229Y-16656650D01*
X5439229Y-16656650D02*
X5458277Y-16666174D01*
X5458277Y-16666174D02*
X5467801Y-16685222D01*
X5467801Y-16685222D02*
X5467801Y-16789984D01*
X5467801Y-16685222D02*
X5477325Y-16666174D01*
X5477325Y-16666174D02*
X5496372Y-16656650D01*
X5496372Y-16656650D02*
X5524944Y-16656650D01*
X5524944Y-16656650D02*
X5543991Y-16666174D01*
X5543991Y-16666174D02*
X5553515Y-16685222D01*
X5553515Y-16685222D02*
X5553515Y-16789984D01*
X5943991Y-16580460D02*
X5772563Y-16837603D01*
X6201134Y-16589984D02*
X6220182Y-16589984D01*
X6220182Y-16589984D02*
X6239229Y-16599508D01*
X6239229Y-16599508D02*
X6248753Y-16609031D01*
X6248753Y-16609031D02*
X6258277Y-16628079D01*
X6258277Y-16628079D02*
X6267801Y-16666174D01*
X6267801Y-16666174D02*
X6267801Y-16713793D01*
X6267801Y-16713793D02*
X6258277Y-16751888D01*
X6258277Y-16751888D02*
X6248753Y-16770936D01*
X6248753Y-16770936D02*
X6239229Y-16780460D01*
X6239229Y-16780460D02*
X6220182Y-16789984D01*
X6220182Y-16789984D02*
X6201134Y-16789984D01*
X6201134Y-16789984D02*
X6182086Y-16780460D01*
X6182086Y-16780460D02*
X6172563Y-16770936D01*
X6172563Y-16770936D02*
X6163039Y-16751888D01*
X6163039Y-16751888D02*
X6153515Y-16713793D01*
X6153515Y-16713793D02*
X6153515Y-16666174D01*
X6153515Y-16666174D02*
X6163039Y-16628079D01*
X6163039Y-16628079D02*
X6172563Y-16609031D01*
X6172563Y-16609031D02*
X6182086Y-16599508D01*
X6182086Y-16599508D02*
X6201134Y-16589984D01*
X6353515Y-16770936D02*
X6363039Y-16780460D01*
X6363039Y-16780460D02*
X6353515Y-16789984D01*
X6353515Y-16789984D02*
X6343991Y-16780460D01*
X6343991Y-16780460D02*
X6353515Y-16770936D01*
X6353515Y-16770936D02*
X6353515Y-16789984D01*
X6486848Y-16589984D02*
X6505896Y-16589984D01*
X6505896Y-16589984D02*
X6524944Y-16599508D01*
X6524944Y-16599508D02*
X6534467Y-16609031D01*
X6534467Y-16609031D02*
X6543991Y-16628079D01*
X6543991Y-16628079D02*
X6553515Y-16666174D01*
X6553515Y-16666174D02*
X6553515Y-16713793D01*
X6553515Y-16713793D02*
X6543991Y-16751888D01*
X6543991Y-16751888D02*
X6534467Y-16770936D01*
X6534467Y-16770936D02*
X6524944Y-16780460D01*
X6524944Y-16780460D02*
X6505896Y-16789984D01*
X6505896Y-16789984D02*
X6486848Y-16789984D01*
X6486848Y-16789984D02*
X6467801Y-16780460D01*
X6467801Y-16780460D02*
X6458277Y-16770936D01*
X6458277Y-16770936D02*
X6448753Y-16751888D01*
X6448753Y-16751888D02*
X6439229Y-16713793D01*
X6439229Y-16713793D02*
X6439229Y-16666174D01*
X6439229Y-16666174D02*
X6448753Y-16628079D01*
X6448753Y-16628079D02*
X6458277Y-16609031D01*
X6458277Y-16609031D02*
X6467801Y-16599508D01*
X6467801Y-16599508D02*
X6486848Y-16589984D01*
X6724944Y-16656650D02*
X6724944Y-16789984D01*
X6677325Y-16580460D02*
X6629706Y-16723317D01*
X6629706Y-16723317D02*
X6753515Y-16723317D01*
X6810658Y-16589984D02*
X6934467Y-16589984D01*
X6934467Y-16589984D02*
X6867801Y-16666174D01*
X6867801Y-16666174D02*
X6896372Y-16666174D01*
X6896372Y-16666174D02*
X6915420Y-16675698D01*
X6915420Y-16675698D02*
X6924944Y-16685222D01*
X6924944Y-16685222D02*
X6934467Y-16704269D01*
X6934467Y-16704269D02*
X6934467Y-16751888D01*
X6934467Y-16751888D02*
X6924944Y-16770936D01*
X6924944Y-16770936D02*
X6915420Y-16780460D01*
X6915420Y-16780460D02*
X6896372Y-16789984D01*
X6896372Y-16789984D02*
X6839229Y-16789984D01*
X6839229Y-16789984D02*
X6820182Y-16780460D01*
X6820182Y-16780460D02*
X6810658Y-16770936D01*
X7001134Y-16589984D02*
X7124944Y-16589984D01*
X7124944Y-16589984D02*
X7058277Y-16666174D01*
X7058277Y-16666174D02*
X7086848Y-16666174D01*
X7086848Y-16666174D02*
X7105896Y-16675698D01*
X7105896Y-16675698D02*
X7115420Y-16685222D01*
X7115420Y-16685222D02*
X7124944Y-16704269D01*
X7124944Y-16704269D02*
X7124944Y-16751888D01*
X7124944Y-16751888D02*
X7115420Y-16770936D01*
X7115420Y-16770936D02*
X7105896Y-16780460D01*
X7105896Y-16780460D02*
X7086848Y-16789984D01*
X7086848Y-16789984D02*
X7029706Y-16789984D01*
X7029706Y-16789984D02*
X7010658Y-16780460D01*
X7010658Y-16780460D02*
X7001134Y-16770936D01*
X7201134Y-16589984D02*
X7201134Y-16628079D01*
X7277325Y-16589984D02*
X7277325Y-16628079D01*
X7572563Y-16866174D02*
X7563039Y-16856650D01*
X7563039Y-16856650D02*
X7543991Y-16828079D01*
X7543991Y-16828079D02*
X7534468Y-16809031D01*
X7534468Y-16809031D02*
X7524944Y-16780460D01*
X7524944Y-16780460D02*
X7515420Y-16732841D01*
X7515420Y-16732841D02*
X7515420Y-16694746D01*
X7515420Y-16694746D02*
X7524944Y-16647127D01*
X7524944Y-16647127D02*
X7534468Y-16618555D01*
X7534468Y-16618555D02*
X7543991Y-16599508D01*
X7543991Y-16599508D02*
X7563039Y-16570936D01*
X7563039Y-16570936D02*
X7572563Y-16561412D01*
X7639229Y-16609031D02*
X7648753Y-16599508D01*
X7648753Y-16599508D02*
X7667801Y-16589984D01*
X7667801Y-16589984D02*
X7715420Y-16589984D01*
X7715420Y-16589984D02*
X7734468Y-16599508D01*
X7734468Y-16599508D02*
X7743991Y-16609031D01*
X7743991Y-16609031D02*
X7753515Y-16628079D01*
X7753515Y-16628079D02*
X7753515Y-16647127D01*
X7753515Y-16647127D02*
X7743991Y-16675698D01*
X7743991Y-16675698D02*
X7629706Y-16789984D01*
X7629706Y-16789984D02*
X7753515Y-16789984D01*
X7924944Y-16656650D02*
X7924944Y-16789984D01*
X7877325Y-16580460D02*
X7829706Y-16723317D01*
X7829706Y-16723317D02*
X7953515Y-16723317D01*
X8182087Y-16789984D02*
X8182087Y-16589984D01*
X8267801Y-16789984D02*
X8267801Y-16685222D01*
X8267801Y-16685222D02*
X8258277Y-16666174D01*
X8258277Y-16666174D02*
X8239230Y-16656650D01*
X8239230Y-16656650D02*
X8210658Y-16656650D01*
X8210658Y-16656650D02*
X8191610Y-16666174D01*
X8191610Y-16666174D02*
X8182087Y-16675698D01*
X8391611Y-16789984D02*
X8372563Y-16780460D01*
X8372563Y-16780460D02*
X8363039Y-16770936D01*
X8363039Y-16770936D02*
X8353515Y-16751888D01*
X8353515Y-16751888D02*
X8353515Y-16694746D01*
X8353515Y-16694746D02*
X8363039Y-16675698D01*
X8363039Y-16675698D02*
X8372563Y-16666174D01*
X8372563Y-16666174D02*
X8391611Y-16656650D01*
X8391611Y-16656650D02*
X8420182Y-16656650D01*
X8420182Y-16656650D02*
X8439230Y-16666174D01*
X8439230Y-16666174D02*
X8448753Y-16675698D01*
X8448753Y-16675698D02*
X8458277Y-16694746D01*
X8458277Y-16694746D02*
X8458277Y-16751888D01*
X8458277Y-16751888D02*
X8448753Y-16770936D01*
X8448753Y-16770936D02*
X8439230Y-16780460D01*
X8439230Y-16780460D02*
X8420182Y-16789984D01*
X8420182Y-16789984D02*
X8391611Y-16789984D01*
X8572563Y-16789984D02*
X8553515Y-16780460D01*
X8553515Y-16780460D02*
X8543992Y-16761412D01*
X8543992Y-16761412D02*
X8543992Y-16589984D01*
X8724944Y-16780460D02*
X8705896Y-16789984D01*
X8705896Y-16789984D02*
X8667801Y-16789984D01*
X8667801Y-16789984D02*
X8648753Y-16780460D01*
X8648753Y-16780460D02*
X8639230Y-16761412D01*
X8639230Y-16761412D02*
X8639230Y-16685222D01*
X8639230Y-16685222D02*
X8648753Y-16666174D01*
X8648753Y-16666174D02*
X8667801Y-16656650D01*
X8667801Y-16656650D02*
X8705896Y-16656650D01*
X8705896Y-16656650D02*
X8724944Y-16666174D01*
X8724944Y-16666174D02*
X8734468Y-16685222D01*
X8734468Y-16685222D02*
X8734468Y-16704269D01*
X8734468Y-16704269D02*
X8639230Y-16723317D01*
X8810658Y-16780460D02*
X8829706Y-16789984D01*
X8829706Y-16789984D02*
X8867801Y-16789984D01*
X8867801Y-16789984D02*
X8886849Y-16780460D01*
X8886849Y-16780460D02*
X8896373Y-16761412D01*
X8896373Y-16761412D02*
X8896373Y-16751888D01*
X8896373Y-16751888D02*
X8886849Y-16732841D01*
X8886849Y-16732841D02*
X8867801Y-16723317D01*
X8867801Y-16723317D02*
X8839230Y-16723317D01*
X8839230Y-16723317D02*
X8820182Y-16713793D01*
X8820182Y-16713793D02*
X8810658Y-16694746D01*
X8810658Y-16694746D02*
X8810658Y-16685222D01*
X8810658Y-16685222D02*
X8820182Y-16666174D01*
X8820182Y-16666174D02*
X8839230Y-16656650D01*
X8839230Y-16656650D02*
X8867801Y-16656650D01*
X8867801Y-16656650D02*
X8886849Y-16666174D01*
X8963039Y-16866174D02*
X8972563Y-16856650D01*
X8972563Y-16856650D02*
X8991611Y-16828079D01*
X8991611Y-16828079D02*
X9001134Y-16809031D01*
X9001134Y-16809031D02*
X9010658Y-16780460D01*
X9010658Y-16780460D02*
X9020182Y-16732841D01*
X9020182Y-16732841D02*
X9020182Y-16694746D01*
X9020182Y-16694746D02*
X9010658Y-16647127D01*
X9010658Y-16647127D02*
X9001134Y-16618555D01*
X9001134Y-16618555D02*
X8991611Y-16599508D01*
X8991611Y-16599508D02*
X8972563Y-16570936D01*
X8972563Y-16570936D02*
X8963039Y-16561412D01*
D14*
X3870500Y-16899000D02*
X3997500Y-17026000D01*
X3997500Y-16899000D02*
X3870500Y-17026000D01*
X3997500Y-16962500D02*
G75*
G02*
X3870500Y-16962500I-63500J0D01*
G01*
X3870500Y-16962500D02*
G75*
G02*
X3997500Y-16962500I63500J0D01*
G01*
D11*
X4363039Y-17053984D02*
X4248753Y-17053984D01*
X4305896Y-17053984D02*
X4305896Y-16853984D01*
X4305896Y-16853984D02*
X4286848Y-16882555D01*
X4286848Y-16882555D02*
X4267801Y-16901603D01*
X4267801Y-16901603D02*
X4248753Y-16911127D01*
X4448753Y-17034936D02*
X4458277Y-17044460D01*
X4458277Y-17044460D02*
X4448753Y-17053984D01*
X4448753Y-17053984D02*
X4439229Y-17044460D01*
X4439229Y-17044460D02*
X4448753Y-17034936D01*
X4448753Y-17034936D02*
X4448753Y-17053984D01*
X4534467Y-16873031D02*
X4543991Y-16863508D01*
X4543991Y-16863508D02*
X4563039Y-16853984D01*
X4563039Y-16853984D02*
X4610658Y-16853984D01*
X4610658Y-16853984D02*
X4629705Y-16863508D01*
X4629705Y-16863508D02*
X4639229Y-16873031D01*
X4639229Y-16873031D02*
X4648753Y-16892079D01*
X4648753Y-16892079D02*
X4648753Y-16911127D01*
X4648753Y-16911127D02*
X4639229Y-16939698D01*
X4639229Y-16939698D02*
X4524944Y-17053984D01*
X4524944Y-17053984D02*
X4648753Y-17053984D01*
X4715420Y-16853984D02*
X4848753Y-16853984D01*
X4848753Y-16853984D02*
X4763039Y-17053984D01*
X4963039Y-16853984D02*
X4982086Y-16853984D01*
X4982086Y-16853984D02*
X5001134Y-16863508D01*
X5001134Y-16863508D02*
X5010658Y-16873031D01*
X5010658Y-16873031D02*
X5020182Y-16892079D01*
X5020182Y-16892079D02*
X5029705Y-16930174D01*
X5029705Y-16930174D02*
X5029705Y-16977793D01*
X5029705Y-16977793D02*
X5020182Y-17015889D01*
X5020182Y-17015889D02*
X5010658Y-17034936D01*
X5010658Y-17034936D02*
X5001134Y-17044460D01*
X5001134Y-17044460D02*
X4982086Y-17053984D01*
X4982086Y-17053984D02*
X4963039Y-17053984D01*
X4963039Y-17053984D02*
X4943991Y-17044460D01*
X4943991Y-17044460D02*
X4934467Y-17034936D01*
X4934467Y-17034936D02*
X4924944Y-17015889D01*
X4924944Y-17015889D02*
X4915420Y-16977793D01*
X4915420Y-16977793D02*
X4915420Y-16930174D01*
X4915420Y-16930174D02*
X4924944Y-16892079D01*
X4924944Y-16892079D02*
X4934467Y-16873031D01*
X4934467Y-16873031D02*
X4943991Y-16863508D01*
X4943991Y-16863508D02*
X4963039Y-16853984D01*
X5115420Y-17053984D02*
X5115420Y-16920650D01*
X5115420Y-16939698D02*
X5124944Y-16930174D01*
X5124944Y-16930174D02*
X5143991Y-16920650D01*
X5143991Y-16920650D02*
X5172563Y-16920650D01*
X5172563Y-16920650D02*
X5191610Y-16930174D01*
X5191610Y-16930174D02*
X5201134Y-16949222D01*
X5201134Y-16949222D02*
X5201134Y-17053984D01*
X5201134Y-16949222D02*
X5210658Y-16930174D01*
X5210658Y-16930174D02*
X5229705Y-16920650D01*
X5229705Y-16920650D02*
X5258277Y-16920650D01*
X5258277Y-16920650D02*
X5277325Y-16930174D01*
X5277325Y-16930174D02*
X5286848Y-16949222D01*
X5286848Y-16949222D02*
X5286848Y-17053984D01*
X5382086Y-17053984D02*
X5382086Y-16920650D01*
X5382086Y-16939698D02*
X5391610Y-16930174D01*
X5391610Y-16930174D02*
X5410658Y-16920650D01*
X5410658Y-16920650D02*
X5439229Y-16920650D01*
X5439229Y-16920650D02*
X5458277Y-16930174D01*
X5458277Y-16930174D02*
X5467801Y-16949222D01*
X5467801Y-16949222D02*
X5467801Y-17053984D01*
X5467801Y-16949222D02*
X5477325Y-16930174D01*
X5477325Y-16930174D02*
X5496372Y-16920650D01*
X5496372Y-16920650D02*
X5524944Y-16920650D01*
X5524944Y-16920650D02*
X5543991Y-16930174D01*
X5543991Y-16930174D02*
X5553515Y-16949222D01*
X5553515Y-16949222D02*
X5553515Y-17053984D01*
X5943991Y-16844460D02*
X5772563Y-17101603D01*
X6201134Y-16853984D02*
X6220182Y-16853984D01*
X6220182Y-16853984D02*
X6239229Y-16863508D01*
X6239229Y-16863508D02*
X6248753Y-16873031D01*
X6248753Y-16873031D02*
X6258277Y-16892079D01*
X6258277Y-16892079D02*
X6267801Y-16930174D01*
X6267801Y-16930174D02*
X6267801Y-16977793D01*
X6267801Y-16977793D02*
X6258277Y-17015889D01*
X6258277Y-17015889D02*
X6248753Y-17034936D01*
X6248753Y-17034936D02*
X6239229Y-17044460D01*
X6239229Y-17044460D02*
X6220182Y-17053984D01*
X6220182Y-17053984D02*
X6201134Y-17053984D01*
X6201134Y-17053984D02*
X6182086Y-17044460D01*
X6182086Y-17044460D02*
X6172563Y-17034936D01*
X6172563Y-17034936D02*
X6163039Y-17015889D01*
X6163039Y-17015889D02*
X6153515Y-16977793D01*
X6153515Y-16977793D02*
X6153515Y-16930174D01*
X6153515Y-16930174D02*
X6163039Y-16892079D01*
X6163039Y-16892079D02*
X6172563Y-16873031D01*
X6172563Y-16873031D02*
X6182086Y-16863508D01*
X6182086Y-16863508D02*
X6201134Y-16853984D01*
X6353515Y-17034936D02*
X6363039Y-17044460D01*
X6363039Y-17044460D02*
X6353515Y-17053984D01*
X6353515Y-17053984D02*
X6343991Y-17044460D01*
X6343991Y-17044460D02*
X6353515Y-17034936D01*
X6353515Y-17034936D02*
X6353515Y-17053984D01*
X6486848Y-16853984D02*
X6505896Y-16853984D01*
X6505896Y-16853984D02*
X6524944Y-16863508D01*
X6524944Y-16863508D02*
X6534467Y-16873031D01*
X6534467Y-16873031D02*
X6543991Y-16892079D01*
X6543991Y-16892079D02*
X6553515Y-16930174D01*
X6553515Y-16930174D02*
X6553515Y-16977793D01*
X6553515Y-16977793D02*
X6543991Y-17015889D01*
X6543991Y-17015889D02*
X6534467Y-17034936D01*
X6534467Y-17034936D02*
X6524944Y-17044460D01*
X6524944Y-17044460D02*
X6505896Y-17053984D01*
X6505896Y-17053984D02*
X6486848Y-17053984D01*
X6486848Y-17053984D02*
X6467801Y-17044460D01*
X6467801Y-17044460D02*
X6458277Y-17034936D01*
X6458277Y-17034936D02*
X6448753Y-17015889D01*
X6448753Y-17015889D02*
X6439229Y-16977793D01*
X6439229Y-16977793D02*
X6439229Y-16930174D01*
X6439229Y-16930174D02*
X6448753Y-16892079D01*
X6448753Y-16892079D02*
X6458277Y-16873031D01*
X6458277Y-16873031D02*
X6467801Y-16863508D01*
X6467801Y-16863508D02*
X6486848Y-16853984D01*
X6734467Y-16853984D02*
X6639229Y-16853984D01*
X6639229Y-16853984D02*
X6629706Y-16949222D01*
X6629706Y-16949222D02*
X6639229Y-16939698D01*
X6639229Y-16939698D02*
X6658277Y-16930174D01*
X6658277Y-16930174D02*
X6705896Y-16930174D01*
X6705896Y-16930174D02*
X6724944Y-16939698D01*
X6724944Y-16939698D02*
X6734467Y-16949222D01*
X6734467Y-16949222D02*
X6743991Y-16968270D01*
X6743991Y-16968270D02*
X6743991Y-17015889D01*
X6743991Y-17015889D02*
X6734467Y-17034936D01*
X6734467Y-17034936D02*
X6724944Y-17044460D01*
X6724944Y-17044460D02*
X6705896Y-17053984D01*
X6705896Y-17053984D02*
X6658277Y-17053984D01*
X6658277Y-17053984D02*
X6639229Y-17044460D01*
X6639229Y-17044460D02*
X6629706Y-17034936D01*
X6867801Y-16853984D02*
X6886848Y-16853984D01*
X6886848Y-16853984D02*
X6905896Y-16863508D01*
X6905896Y-16863508D02*
X6915420Y-16873031D01*
X6915420Y-16873031D02*
X6924944Y-16892079D01*
X6924944Y-16892079D02*
X6934467Y-16930174D01*
X6934467Y-16930174D02*
X6934467Y-16977793D01*
X6934467Y-16977793D02*
X6924944Y-17015889D01*
X6924944Y-17015889D02*
X6915420Y-17034936D01*
X6915420Y-17034936D02*
X6905896Y-17044460D01*
X6905896Y-17044460D02*
X6886848Y-17053984D01*
X6886848Y-17053984D02*
X6867801Y-17053984D01*
X6867801Y-17053984D02*
X6848753Y-17044460D01*
X6848753Y-17044460D02*
X6839229Y-17034936D01*
X6839229Y-17034936D02*
X6829706Y-17015889D01*
X6829706Y-17015889D02*
X6820182Y-16977793D01*
X6820182Y-16977793D02*
X6820182Y-16930174D01*
X6820182Y-16930174D02*
X6829706Y-16892079D01*
X6829706Y-16892079D02*
X6839229Y-16873031D01*
X6839229Y-16873031D02*
X6848753Y-16863508D01*
X6848753Y-16863508D02*
X6867801Y-16853984D01*
X7058277Y-16853984D02*
X7077325Y-16853984D01*
X7077325Y-16853984D02*
X7096372Y-16863508D01*
X7096372Y-16863508D02*
X7105896Y-16873031D01*
X7105896Y-16873031D02*
X7115420Y-16892079D01*
X7115420Y-16892079D02*
X7124944Y-16930174D01*
X7124944Y-16930174D02*
X7124944Y-16977793D01*
X7124944Y-16977793D02*
X7115420Y-17015889D01*
X7115420Y-17015889D02*
X7105896Y-17034936D01*
X7105896Y-17034936D02*
X7096372Y-17044460D01*
X7096372Y-17044460D02*
X7077325Y-17053984D01*
X7077325Y-17053984D02*
X7058277Y-17053984D01*
X7058277Y-17053984D02*
X7039229Y-17044460D01*
X7039229Y-17044460D02*
X7029706Y-17034936D01*
X7029706Y-17034936D02*
X7020182Y-17015889D01*
X7020182Y-17015889D02*
X7010658Y-16977793D01*
X7010658Y-16977793D02*
X7010658Y-16930174D01*
X7010658Y-16930174D02*
X7020182Y-16892079D01*
X7020182Y-16892079D02*
X7029706Y-16873031D01*
X7029706Y-16873031D02*
X7039229Y-16863508D01*
X7039229Y-16863508D02*
X7058277Y-16853984D01*
X7201134Y-16853984D02*
X7201134Y-16892079D01*
X7277325Y-16853984D02*
X7277325Y-16892079D01*
X7572563Y-17130174D02*
X7563039Y-17120650D01*
X7563039Y-17120650D02*
X7543991Y-17092079D01*
X7543991Y-17092079D02*
X7534468Y-17073031D01*
X7534468Y-17073031D02*
X7524944Y-17044460D01*
X7524944Y-17044460D02*
X7515420Y-16996841D01*
X7515420Y-16996841D02*
X7515420Y-16958746D01*
X7515420Y-16958746D02*
X7524944Y-16911127D01*
X7524944Y-16911127D02*
X7534468Y-16882555D01*
X7534468Y-16882555D02*
X7543991Y-16863508D01*
X7543991Y-16863508D02*
X7563039Y-16834936D01*
X7563039Y-16834936D02*
X7572563Y-16825412D01*
X7639229Y-16873031D02*
X7648753Y-16863508D01*
X7648753Y-16863508D02*
X7667801Y-16853984D01*
X7667801Y-16853984D02*
X7715420Y-16853984D01*
X7715420Y-16853984D02*
X7734468Y-16863508D01*
X7734468Y-16863508D02*
X7743991Y-16873031D01*
X7743991Y-16873031D02*
X7753515Y-16892079D01*
X7753515Y-16892079D02*
X7753515Y-16911127D01*
X7753515Y-16911127D02*
X7743991Y-16939698D01*
X7743991Y-16939698D02*
X7629706Y-17053984D01*
X7629706Y-17053984D02*
X7753515Y-17053984D01*
X7924944Y-16920650D02*
X7924944Y-17053984D01*
X7877325Y-16844460D02*
X7829706Y-16987317D01*
X7829706Y-16987317D02*
X7953515Y-16987317D01*
X8182087Y-17053984D02*
X8182087Y-16853984D01*
X8267801Y-17053984D02*
X8267801Y-16949222D01*
X8267801Y-16949222D02*
X8258277Y-16930174D01*
X8258277Y-16930174D02*
X8239230Y-16920650D01*
X8239230Y-16920650D02*
X8210658Y-16920650D01*
X8210658Y-16920650D02*
X8191610Y-16930174D01*
X8191610Y-16930174D02*
X8182087Y-16939698D01*
X8391611Y-17053984D02*
X8372563Y-17044460D01*
X8372563Y-17044460D02*
X8363039Y-17034936D01*
X8363039Y-17034936D02*
X8353515Y-17015889D01*
X8353515Y-17015889D02*
X8353515Y-16958746D01*
X8353515Y-16958746D02*
X8363039Y-16939698D01*
X8363039Y-16939698D02*
X8372563Y-16930174D01*
X8372563Y-16930174D02*
X8391611Y-16920650D01*
X8391611Y-16920650D02*
X8420182Y-16920650D01*
X8420182Y-16920650D02*
X8439230Y-16930174D01*
X8439230Y-16930174D02*
X8448753Y-16939698D01*
X8448753Y-16939698D02*
X8458277Y-16958746D01*
X8458277Y-16958746D02*
X8458277Y-17015889D01*
X8458277Y-17015889D02*
X8448753Y-17034936D01*
X8448753Y-17034936D02*
X8439230Y-17044460D01*
X8439230Y-17044460D02*
X8420182Y-17053984D01*
X8420182Y-17053984D02*
X8391611Y-17053984D01*
X8572563Y-17053984D02*
X8553515Y-17044460D01*
X8553515Y-17044460D02*
X8543992Y-17025412D01*
X8543992Y-17025412D02*
X8543992Y-16853984D01*
X8724944Y-17044460D02*
X8705896Y-17053984D01*
X8705896Y-17053984D02*
X8667801Y-17053984D01*
X8667801Y-17053984D02*
X8648753Y-17044460D01*
X8648753Y-17044460D02*
X8639230Y-17025412D01*
X8639230Y-17025412D02*
X8639230Y-16949222D01*
X8639230Y-16949222D02*
X8648753Y-16930174D01*
X8648753Y-16930174D02*
X8667801Y-16920650D01*
X8667801Y-16920650D02*
X8705896Y-16920650D01*
X8705896Y-16920650D02*
X8724944Y-16930174D01*
X8724944Y-16930174D02*
X8734468Y-16949222D01*
X8734468Y-16949222D02*
X8734468Y-16968270D01*
X8734468Y-16968270D02*
X8639230Y-16987317D01*
X8810658Y-17044460D02*
X8829706Y-17053984D01*
X8829706Y-17053984D02*
X8867801Y-17053984D01*
X8867801Y-17053984D02*
X8886849Y-17044460D01*
X8886849Y-17044460D02*
X8896373Y-17025412D01*
X8896373Y-17025412D02*
X8896373Y-17015889D01*
X8896373Y-17015889D02*
X8886849Y-16996841D01*
X8886849Y-16996841D02*
X8867801Y-16987317D01*
X8867801Y-16987317D02*
X8839230Y-16987317D01*
X8839230Y-16987317D02*
X8820182Y-16977793D01*
X8820182Y-16977793D02*
X8810658Y-16958746D01*
X8810658Y-16958746D02*
X8810658Y-16949222D01*
X8810658Y-16949222D02*
X8820182Y-16930174D01*
X8820182Y-16930174D02*
X8839230Y-16920650D01*
X8839230Y-16920650D02*
X8867801Y-16920650D01*
X8867801Y-16920650D02*
X8886849Y-16930174D01*
X8963039Y-17130174D02*
X8972563Y-17120650D01*
X8972563Y-17120650D02*
X8991611Y-17092079D01*
X8991611Y-17092079D02*
X9001134Y-17073031D01*
X9001134Y-17073031D02*
X9010658Y-17044460D01*
X9010658Y-17044460D02*
X9020182Y-16996841D01*
X9020182Y-16996841D02*
X9020182Y-16958746D01*
X9020182Y-16958746D02*
X9010658Y-16911127D01*
X9010658Y-16911127D02*
X9001134Y-16882555D01*
X9001134Y-16882555D02*
X8991611Y-16863508D01*
X8991611Y-16863508D02*
X8972563Y-16834936D01*
X8972563Y-16834936D02*
X8963039Y-16825412D01*
M02*
