G04 #@! TF.GenerationSoftware,KiCad,Pcbnew,9.0.0*
G04 #@! TF.CreationDate,2025-03-17T16:01:09+01:00*
G04 #@! TF.ProjectId,Flatbox-rev8,466c6174-626f-4782-9d72-6576382e6b69,rev?*
G04 #@! TF.SameCoordinates,Original*
G04 #@! TF.FileFunction,Soldermask,Top*
G04 #@! TF.FilePolarity,Negative*
%FSLAX46Y46*%
G04 Gerber Fmt 4.6, Leading zero omitted, Abs format (unit mm)*
G04 Created by KiCad (PCBNEW 9.0.0) date 2025-03-17 16:01:09*
%MOMM*%
%LPD*%
G01*
G04 APERTURE LIST*
G04 Aperture macros list*
%AMRoundRect*
0 Rectangle with rounded corners*
0 $1 Rounding radius*
0 $2 $3 $4 $5 $6 $7 $8 $9 X,Y pos of 4 corners*
0 Add a 4 corners polygon primitive as box body*
4,1,4,$2,$3,$4,$5,$6,$7,$8,$9,$2,$3,0*
0 Add four circle primitives for the rounded corners*
1,1,$1+$1,$2,$3*
1,1,$1+$1,$4,$5*
1,1,$1+$1,$6,$7*
1,1,$1+$1,$8,$9*
0 Add four rect primitives between the rounded corners*
20,1,$1+$1,$2,$3,$4,$5,0*
20,1,$1+$1,$4,$5,$6,$7,0*
20,1,$1+$1,$6,$7,$8,$9,0*
20,1,$1+$1,$8,$9,$2,$3,0*%
%AMFreePoly0*
4,1,7,0.100000,-0.300000,-0.100000,-0.300000,-0.100000,0.100000,-0.300000,0.100000,-0.300000,0.300000,0.100000,0.300000,0.100000,-0.300000,0.100000,-0.300000,$1*%
%AMFreePoly1*
4,1,7,0.300000,0.100000,0.100000,0.100000,0.100000,-0.300000,-0.100000,-0.300000,-0.100000,0.300000,0.300000,0.300000,0.300000,0.100000,0.300000,0.100000,$1*%
%AMFreePoly2*
4,1,18,-0.437500,0.050000,-0.433694,0.069134,-0.422855,0.085355,-0.406634,0.096194,-0.387500,0.100000,0.387500,0.100000,0.437500,0.050000,0.437500,-0.050000,0.433694,-0.069134,0.422855,-0.085355,0.406634,-0.096194,0.387500,-0.100000,-0.387500,-0.100000,-0.406634,-0.096194,-0.422855,-0.085355,-0.433694,-0.069134,-0.437500,-0.050000,-0.437500,0.050000,-0.437500,0.050000,$1*%
%AMFreePoly3*
4,1,18,-0.437500,0.050000,-0.433694,0.069134,-0.422855,0.085355,-0.406634,0.096194,-0.387500,0.100000,0.387500,0.100000,0.406634,0.096194,0.422855,0.085355,0.433694,0.069134,0.437500,0.050000,0.437500,-0.050000,0.387500,-0.100000,-0.387500,-0.100000,-0.406634,-0.096194,-0.422855,-0.085355,-0.433694,-0.069134,-0.437500,-0.050000,-0.437500,0.050000,-0.437500,0.050000,$1*%
%AMFreePoly4*
4,1,18,-0.100000,0.387500,-0.050000,0.437500,0.050000,0.437500,0.069134,0.433694,0.085355,0.422855,0.096194,0.406634,0.100000,0.387500,0.100000,-0.387500,0.096194,-0.406634,0.085355,-0.422855,0.069134,-0.433694,0.050000,-0.437500,-0.050000,-0.437500,-0.069134,-0.433694,-0.085355,-0.422855,-0.096194,-0.406634,-0.100000,-0.387500,-0.100000,0.387500,-0.100000,0.387500,$1*%
%AMFreePoly5*
4,1,18,-0.100000,0.387500,-0.096194,0.406634,-0.085355,0.422855,-0.069134,0.433694,-0.050000,0.437500,0.050000,0.437500,0.100000,0.387500,0.100000,-0.387500,0.096194,-0.406634,0.085355,-0.422855,0.069134,-0.433694,0.050000,-0.437500,-0.050000,-0.437500,-0.069134,-0.433694,-0.085355,-0.422855,-0.096194,-0.406634,-0.100000,-0.387500,-0.100000,0.387500,-0.100000,0.387500,$1*%
%AMFreePoly6*
4,1,18,-0.437500,0.050000,-0.433694,0.069134,-0.422855,0.085355,-0.406634,0.096194,-0.387500,0.100000,0.387500,0.100000,0.406634,0.096194,0.422855,0.085355,0.433694,0.069134,0.437500,0.050000,0.437500,-0.050000,0.433694,-0.069134,0.422855,-0.085355,0.406634,-0.096194,0.387500,-0.100000,-0.387500,-0.100000,-0.437500,-0.050000,-0.437500,0.050000,-0.437500,0.050000,$1*%
%AMFreePoly7*
4,1,18,-0.437500,0.050000,-0.387500,0.100000,0.387500,0.100000,0.406634,0.096194,0.422855,0.085355,0.433694,0.069134,0.437500,0.050000,0.437500,-0.050000,0.433694,-0.069134,0.422855,-0.085355,0.406634,-0.096194,0.387500,-0.100000,-0.387500,-0.100000,-0.406634,-0.096194,-0.422855,-0.085355,-0.433694,-0.069134,-0.437500,-0.050000,-0.437500,0.050000,-0.437500,0.050000,$1*%
%AMFreePoly8*
4,1,18,-0.100000,0.387500,-0.096194,0.406634,-0.085355,0.422855,-0.069134,0.433694,-0.050000,0.437500,0.050000,0.437500,0.069134,0.433694,0.085355,0.422855,0.096194,0.406634,0.100000,0.387500,0.100000,-0.387500,0.050000,-0.437500,-0.050000,-0.437500,-0.069134,-0.433694,-0.085355,-0.422855,-0.096194,-0.406634,-0.100000,-0.387500,-0.100000,0.387500,-0.100000,0.387500,$1*%
%AMFreePoly9*
4,1,18,-0.100000,0.387500,-0.096194,0.406634,-0.085355,0.422855,-0.069134,0.433694,-0.050000,0.437500,0.050000,0.437500,0.069134,0.433694,0.085355,0.422855,0.096194,0.406634,0.100000,0.387500,0.100000,-0.387500,0.096194,-0.406634,0.085355,-0.422855,0.069134,-0.433694,0.050000,-0.437500,-0.050000,-0.437500,-0.100000,-0.387500,-0.100000,0.387500,-0.100000,0.387500,$1*%
G04 Aperture macros list end*
%ADD10R,0.700000X1.700000*%
%ADD11C,1.701800*%
%ADD12C,3.000000*%
%ADD13C,3.429000*%
%ADD14C,2.032000*%
%ADD15C,6.400000*%
%ADD16RoundRect,0.135000X-0.185000X0.135000X-0.185000X-0.135000X0.185000X-0.135000X0.185000X0.135000X0*%
%ADD17C,0.650000*%
%ADD18R,0.600000X1.450000*%
%ADD19R,0.300000X1.450000*%
%ADD20O,1.000000X2.100000*%
%ADD21O,1.000000X1.600000*%
%ADD22RoundRect,0.135000X0.135000X0.185000X-0.135000X0.185000X-0.135000X-0.185000X0.135000X-0.185000X0*%
%ADD23RoundRect,0.140000X-0.140000X-0.170000X0.140000X-0.170000X0.140000X0.170000X-0.140000X0.170000X0*%
%ADD24RoundRect,0.140000X0.140000X0.170000X-0.140000X0.170000X-0.140000X-0.170000X0.140000X-0.170000X0*%
%ADD25FreePoly0,90.000000*%
%ADD26R,0.600000X0.200000*%
%ADD27FreePoly1,90.000000*%
%ADD28FreePoly0,270.000000*%
%ADD29FreePoly1,270.000000*%
%ADD30R,0.470000X0.530000*%
%ADD31C,2.200000*%
%ADD32RoundRect,0.243750X0.243750X0.456250X-0.243750X0.456250X-0.243750X-0.456250X0.243750X-0.456250X0*%
%ADD33R,1.000760X1.699260*%
%ADD34RoundRect,0.140000X-0.170000X0.140000X-0.170000X-0.140000X0.170000X-0.140000X0.170000X0.140000X0*%
%ADD35RoundRect,0.250000X-0.925000X0.412500X-0.925000X-0.412500X0.925000X-0.412500X0.925000X0.412500X0*%
%ADD36R,1.060000X0.650000*%
%ADD37R,1.200000X2.000000*%
%ADD38O,1.500000X2.300000*%
%ADD39O,1.500000X2.700000*%
%ADD40C,2.000000*%
%ADD41RoundRect,0.150000X0.150000X-0.650000X0.150000X0.650000X-0.150000X0.650000X-0.150000X-0.650000X0*%
%ADD42RoundRect,0.135000X-0.135000X-0.185000X0.135000X-0.185000X0.135000X0.185000X-0.135000X0.185000X0*%
%ADD43FreePoly2,0.000000*%
%ADD44RoundRect,0.050000X-0.387500X-0.050000X0.387500X-0.050000X0.387500X0.050000X-0.387500X0.050000X0*%
%ADD45FreePoly3,0.000000*%
%ADD46FreePoly4,0.000000*%
%ADD47RoundRect,0.050000X-0.050000X-0.387500X0.050000X-0.387500X0.050000X0.387500X-0.050000X0.387500X0*%
%ADD48FreePoly5,0.000000*%
%ADD49FreePoly6,0.000000*%
%ADD50FreePoly7,0.000000*%
%ADD51FreePoly8,0.000000*%
%ADD52FreePoly9,0.000000*%
%ADD53RoundRect,0.153000X1.547000X-1.547000X1.547000X1.547000X-1.547000X1.547000X-1.547000X-1.547000X0*%
%ADD54RoundRect,0.140000X0.170000X-0.140000X0.170000X0.140000X-0.170000X0.140000X-0.170000X-0.140000X0*%
%ADD55RoundRect,0.135000X0.185000X-0.135000X0.185000X0.135000X-0.185000X0.135000X-0.185000X-0.135000X0*%
%ADD56R,1.400000X1.200000*%
G04 APERTURE END LIST*
D10*
X132200000Y-40300000D03*
X133600000Y-40300000D03*
D11*
X81820000Y-65170000D03*
D12*
X87320000Y-59220000D03*
D13*
X87320000Y-65170000D03*
D12*
X92320000Y-61420000D03*
D11*
X92820000Y-65170000D03*
D14*
X87320000Y-71070000D03*
X82320000Y-68970000D03*
D11*
X108420000Y-76520000D03*
D12*
X113920000Y-70570000D03*
D13*
X113920000Y-76520000D03*
D12*
X118920000Y-72770000D03*
D11*
X119420000Y-76520000D03*
D14*
X113920000Y-82420000D03*
X108920000Y-80320000D03*
D11*
X125920000Y-129620000D03*
D12*
X131420000Y-123670000D03*
D13*
X131420000Y-129620000D03*
D12*
X136420000Y-125870000D03*
D11*
X136920000Y-129620000D03*
D14*
X131420000Y-135520000D03*
X126420000Y-133420000D03*
D11*
X143360000Y-65110000D03*
D12*
X148860000Y-59160000D03*
D13*
X148860000Y-65110000D03*
D12*
X153860000Y-61360000D03*
D11*
X154360000Y-65110000D03*
D14*
X148860000Y-71010000D03*
X143860000Y-68910000D03*
D11*
X169920000Y-53580000D03*
D12*
X175420000Y-47630000D03*
D13*
X175420000Y-53580000D03*
D12*
X180420000Y-49830000D03*
D11*
X180920000Y-53580000D03*
D14*
X175420000Y-59480000D03*
X170420000Y-57380000D03*
D11*
X198890000Y-53460000D03*
D12*
X204390000Y-47510000D03*
D13*
X204390000Y-53460000D03*
D12*
X209390000Y-49710000D03*
D11*
X209890000Y-53460000D03*
D14*
X204390000Y-59360000D03*
X199390000Y-57260000D03*
D11*
X227860000Y-53700000D03*
D12*
X233360000Y-47750000D03*
D13*
X233360000Y-53700000D03*
D12*
X238360000Y-49950000D03*
D11*
X238860000Y-53700000D03*
D14*
X233360000Y-59600000D03*
X228360000Y-57500000D03*
D11*
X137750000Y-96150000D03*
D12*
X143250000Y-90200000D03*
D13*
X143250000Y-96150000D03*
D12*
X148250000Y-92400000D03*
D11*
X148750000Y-96150000D03*
D14*
X143250000Y-102050000D03*
X138250000Y-99950000D03*
D11*
X164360000Y-85040000D03*
D12*
X169860000Y-79090000D03*
D13*
X169860000Y-85040000D03*
D12*
X174860000Y-81290000D03*
D11*
X175360000Y-85040000D03*
D14*
X169860000Y-90940000D03*
X164860000Y-88840000D03*
D11*
X193210000Y-85040000D03*
D12*
X198710000Y-79090000D03*
D13*
X198710000Y-85040000D03*
D12*
X203710000Y-81290000D03*
D11*
X204210000Y-85040000D03*
D14*
X198710000Y-90940000D03*
X193710000Y-88840000D03*
D11*
X222420000Y-85040000D03*
D12*
X227920000Y-79090000D03*
D13*
X227920000Y-85040000D03*
D12*
X232920000Y-81290000D03*
D11*
X233420000Y-85040000D03*
D14*
X227920000Y-90940000D03*
X222920000Y-88840000D03*
D15*
X47000000Y-33400000D03*
X47000000Y-143000000D03*
X243000000Y-143000000D03*
X243000000Y-33400000D03*
D11*
X52725000Y-65050000D03*
D12*
X58225000Y-59100000D03*
D13*
X58225000Y-65050000D03*
D12*
X63225000Y-61300000D03*
D11*
X63725000Y-65050000D03*
D14*
X58225000Y-70950000D03*
X53225000Y-68850000D03*
D15*
X159600000Y-33400000D03*
X150000000Y-143000000D03*
D16*
X146550000Y-34640000D03*
X146550000Y-35660000D03*
D17*
X147890000Y-31400000D03*
X142110000Y-31400000D03*
D18*
X148250000Y-32845000D03*
X147450000Y-32845000D03*
D19*
X146750000Y-32845000D03*
X146250000Y-32845000D03*
X145750000Y-32845000D03*
X145250000Y-32845000D03*
X144750000Y-32845000D03*
X144250000Y-32845000D03*
X143750000Y-32845000D03*
X143250000Y-32845000D03*
D18*
X142550000Y-32845000D03*
X141750000Y-32845000D03*
D20*
X149320000Y-31930000D03*
D21*
X149320000Y-27750000D03*
D20*
X140680000Y-31930000D03*
D21*
X140680000Y-27750000D03*
D22*
X143010000Y-34700000D03*
X141990000Y-34700000D03*
X139710000Y-50750000D03*
X138690000Y-50750000D03*
D23*
X137520000Y-48625000D03*
X138480000Y-48625000D03*
D22*
X139710000Y-51850000D03*
X138690000Y-51850000D03*
D23*
X135920000Y-44800000D03*
X136880000Y-44800000D03*
D24*
X124680000Y-46950000D03*
X123720000Y-46950000D03*
D25*
X142900000Y-38150000D03*
D26*
X142900000Y-37650000D03*
X142900000Y-37150000D03*
D27*
X142900000Y-36650000D03*
D28*
X141900000Y-36650000D03*
D26*
X141900000Y-37150000D03*
X141900000Y-37650000D03*
D29*
X141900000Y-38150000D03*
D30*
X132385000Y-42900000D03*
X133415000Y-42900000D03*
D31*
X230000000Y-33400000D03*
D23*
X132000000Y-55750000D03*
X132960000Y-55750000D03*
X142790000Y-43060000D03*
X143750000Y-43060000D03*
D16*
X130800000Y-39590000D03*
X130800000Y-40610000D03*
D30*
X132385000Y-41950000D03*
X133415000Y-41950000D03*
D32*
X147450000Y-38250000D03*
X145575000Y-38250000D03*
D33*
X108650880Y-59799460D03*
X108650880Y-53200540D03*
X112349120Y-59799460D03*
X112349120Y-53200540D03*
D34*
X135100000Y-41970000D03*
X135100000Y-42930000D03*
D16*
X129800000Y-39590000D03*
X129800000Y-40610000D03*
D31*
X47000000Y-46400000D03*
D23*
X134645000Y-52275000D03*
X135605000Y-52275000D03*
D35*
X190000000Y-41675000D03*
X190000000Y-44750000D03*
D31*
X230000000Y-143000000D03*
D36*
X141470000Y-43060000D03*
X141470000Y-42110000D03*
X141470000Y-41160000D03*
X139270000Y-41160000D03*
X139270000Y-43060000D03*
D37*
X193500000Y-37006000D03*
X191000000Y-37006000D03*
X189000000Y-37006000D03*
X186500000Y-37006000D03*
D38*
X197850000Y-35400000D03*
D39*
X197850000Y-28500000D03*
D38*
X182150000Y-35400000D03*
D39*
X182150000Y-28500000D03*
D40*
X65500000Y-43000000D03*
X65500000Y-36500000D03*
X70000000Y-43000000D03*
X70000000Y-36500000D03*
D24*
X129030000Y-52200000D03*
X128070000Y-52200000D03*
X129980000Y-55750000D03*
X129020000Y-55750000D03*
D41*
X122295000Y-41150000D03*
X123565000Y-41150000D03*
X124835000Y-41150000D03*
X126105000Y-41150000D03*
X126105000Y-33950000D03*
X124835000Y-33950000D03*
X123565000Y-33950000D03*
X122295000Y-33950000D03*
D42*
X114640000Y-61900000D03*
X115660000Y-61900000D03*
D43*
X127462500Y-44700000D03*
D44*
X127462500Y-45100000D03*
X127462500Y-45500000D03*
X127462500Y-45900000D03*
X127462500Y-46300000D03*
X127462500Y-46700000D03*
X127462500Y-47100000D03*
X127462500Y-47500000D03*
X127462500Y-47900000D03*
X127462500Y-48300000D03*
X127462500Y-48700000D03*
X127462500Y-49100000D03*
X127462500Y-49500000D03*
X127462500Y-49900000D03*
D45*
X127462500Y-50300000D03*
D46*
X128100000Y-50937500D03*
D47*
X128500000Y-50937500D03*
X128900000Y-50937500D03*
X129300000Y-50937500D03*
X129700000Y-50937500D03*
X130100000Y-50937500D03*
X130500000Y-50937500D03*
X130900000Y-50937500D03*
X131300000Y-50937500D03*
X131700000Y-50937500D03*
X132100000Y-50937500D03*
X132500000Y-50937500D03*
X132900000Y-50937500D03*
X133300000Y-50937500D03*
D48*
X133700000Y-50937500D03*
D49*
X134337500Y-50300000D03*
D44*
X134337500Y-49900000D03*
X134337500Y-49500000D03*
X134337500Y-49100000D03*
X134337500Y-48700000D03*
X134337500Y-48300000D03*
X134337500Y-47900000D03*
X134337500Y-47500000D03*
X134337500Y-47100000D03*
X134337500Y-46700000D03*
X134337500Y-46300000D03*
X134337500Y-45900000D03*
X134337500Y-45500000D03*
X134337500Y-45100000D03*
D50*
X134337500Y-44700000D03*
D51*
X133700000Y-44062500D03*
D47*
X133300000Y-44062500D03*
X132900000Y-44062500D03*
X132500000Y-44062500D03*
X132100000Y-44062500D03*
X131700000Y-44062500D03*
X131300000Y-44062500D03*
X130900000Y-44062500D03*
X130500000Y-44062500D03*
X130100000Y-44062500D03*
X129700000Y-44062500D03*
X129300000Y-44062500D03*
X128900000Y-44062500D03*
X128500000Y-44062500D03*
D52*
X128100000Y-44062500D03*
D53*
X130900000Y-47500000D03*
D16*
X123400000Y-43140000D03*
X123400000Y-44160000D03*
D40*
X98500000Y-43000000D03*
X98500000Y-36500000D03*
X103000000Y-43000000D03*
X103000000Y-36500000D03*
D34*
X131700000Y-53250000D03*
X131700000Y-54210000D03*
D31*
X60000000Y-143000000D03*
D40*
X108500000Y-43000000D03*
X108500000Y-36500000D03*
X113000000Y-43000000D03*
X113000000Y-36500000D03*
D16*
X130500000Y-53240000D03*
X130500000Y-54260000D03*
D40*
X75500000Y-43000000D03*
X75500000Y-36500000D03*
X80000000Y-43000000D03*
X80000000Y-36500000D03*
D33*
X114650880Y-59799460D03*
X114650880Y-53200540D03*
X118349120Y-59799460D03*
X118349120Y-53200540D03*
D54*
X120650000Y-34280000D03*
X120650000Y-33320000D03*
D15*
X133500000Y-78000000D03*
D24*
X126130000Y-49000000D03*
X125170000Y-49000000D03*
D55*
X122300000Y-44160000D03*
X122300000Y-43140000D03*
D40*
X55500000Y-43000000D03*
X55500000Y-36500000D03*
X60000000Y-43000000D03*
X60000000Y-36500000D03*
D16*
X135100000Y-40090000D03*
X135100000Y-41110000D03*
D31*
X133500000Y-33400000D03*
D56*
X129800000Y-60000000D03*
X132000000Y-60000000D03*
X132000000Y-58300000D03*
X129800000Y-58300000D03*
D34*
X126100000Y-43820000D03*
X126100000Y-44780000D03*
D54*
X128800000Y-40580000D03*
X128800000Y-39620000D03*
D40*
X88500000Y-43000000D03*
X88500000Y-36500000D03*
X93000000Y-43000000D03*
X93000000Y-36500000D03*
D54*
X137740000Y-43060000D03*
X137740000Y-42100000D03*
D23*
X137520000Y-47600000D03*
X138480000Y-47600000D03*
M02*
