G04 #@! TF.GenerationSoftware,KiCad,Pcbnew,9.0.0*
G04 #@! TF.CreationDate,2025-03-17T16:01:09+01:00*
G04 #@! TF.ProjectId,Flatbox-rev8,466c6174-626f-4782-9d72-6576382e6b69,rev?*
G04 #@! TF.SameCoordinates,Original*
G04 #@! TF.FileFunction,Paste,Top*
G04 #@! TF.FilePolarity,Positive*
%FSLAX46Y46*%
G04 Gerber Fmt 4.6, Leading zero omitted, Abs format (unit mm)*
G04 Created by KiCad (PCBNEW 9.0.0) date 2025-03-17 16:01:09*
%MOMM*%
%LPD*%
G01*
G04 APERTURE LIST*
G04 Aperture macros list*
%AMRoundRect*
0 Rectangle with rounded corners*
0 $1 Rounding radius*
0 $2 $3 $4 $5 $6 $7 $8 $9 X,Y pos of 4 corners*
0 Add a 4 corners polygon primitive as box body*
4,1,4,$2,$3,$4,$5,$6,$7,$8,$9,$2,$3,0*
0 Add four circle primitives for the rounded corners*
1,1,$1+$1,$2,$3*
1,1,$1+$1,$4,$5*
1,1,$1+$1,$6,$7*
1,1,$1+$1,$8,$9*
0 Add four rect primitives between the rounded corners*
20,1,$1+$1,$2,$3,$4,$5,0*
20,1,$1+$1,$4,$5,$6,$7,0*
20,1,$1+$1,$6,$7,$8,$9,0*
20,1,$1+$1,$8,$9,$2,$3,0*%
%AMFreePoly0*
4,1,7,0.100000,-0.300000,-0.100000,-0.300000,-0.100000,0.100000,-0.300000,0.100000,-0.300000,0.300000,0.100000,0.300000,0.100000,-0.300000,0.100000,-0.300000,$1*%
%AMFreePoly1*
4,1,7,0.300000,0.100000,0.100000,0.100000,0.100000,-0.300000,-0.100000,-0.300000,-0.100000,0.300000,0.300000,0.300000,0.300000,0.100000,0.300000,0.100000,$1*%
%AMFreePoly2*
4,1,18,-0.437500,0.050000,-0.433694,0.069134,-0.422855,0.085355,-0.406634,0.096194,-0.387500,0.100000,0.387500,0.100000,0.437500,0.050000,0.437500,-0.050000,0.433694,-0.069134,0.422855,-0.085355,0.406634,-0.096194,0.387500,-0.100000,-0.387500,-0.100000,-0.406634,-0.096194,-0.422855,-0.085355,-0.433694,-0.069134,-0.437500,-0.050000,-0.437500,0.050000,-0.437500,0.050000,$1*%
%AMFreePoly3*
4,1,18,-0.437500,0.050000,-0.433694,0.069134,-0.422855,0.085355,-0.406634,0.096194,-0.387500,0.100000,0.387500,0.100000,0.406634,0.096194,0.422855,0.085355,0.433694,0.069134,0.437500,0.050000,0.437500,-0.050000,0.387500,-0.100000,-0.387500,-0.100000,-0.406634,-0.096194,-0.422855,-0.085355,-0.433694,-0.069134,-0.437500,-0.050000,-0.437500,0.050000,-0.437500,0.050000,$1*%
%AMFreePoly4*
4,1,18,-0.100000,0.387500,-0.050000,0.437500,0.050000,0.437500,0.069134,0.433694,0.085355,0.422855,0.096194,0.406634,0.100000,0.387500,0.100000,-0.387500,0.096194,-0.406634,0.085355,-0.422855,0.069134,-0.433694,0.050000,-0.437500,-0.050000,-0.437500,-0.069134,-0.433694,-0.085355,-0.422855,-0.096194,-0.406634,-0.100000,-0.387500,-0.100000,0.387500,-0.100000,0.387500,$1*%
%AMFreePoly5*
4,1,18,-0.100000,0.387500,-0.096194,0.406634,-0.085355,0.422855,-0.069134,0.433694,-0.050000,0.437500,0.050000,0.437500,0.100000,0.387500,0.100000,-0.387500,0.096194,-0.406634,0.085355,-0.422855,0.069134,-0.433694,0.050000,-0.437500,-0.050000,-0.437500,-0.069134,-0.433694,-0.085355,-0.422855,-0.096194,-0.406634,-0.100000,-0.387500,-0.100000,0.387500,-0.100000,0.387500,$1*%
%AMFreePoly6*
4,1,18,-0.437500,0.050000,-0.433694,0.069134,-0.422855,0.085355,-0.406634,0.096194,-0.387500,0.100000,0.387500,0.100000,0.406634,0.096194,0.422855,0.085355,0.433694,0.069134,0.437500,0.050000,0.437500,-0.050000,0.433694,-0.069134,0.422855,-0.085355,0.406634,-0.096194,0.387500,-0.100000,-0.387500,-0.100000,-0.437500,-0.050000,-0.437500,0.050000,-0.437500,0.050000,$1*%
%AMFreePoly7*
4,1,18,-0.437500,0.050000,-0.387500,0.100000,0.387500,0.100000,0.406634,0.096194,0.422855,0.085355,0.433694,0.069134,0.437500,0.050000,0.437500,-0.050000,0.433694,-0.069134,0.422855,-0.085355,0.406634,-0.096194,0.387500,-0.100000,-0.387500,-0.100000,-0.406634,-0.096194,-0.422855,-0.085355,-0.433694,-0.069134,-0.437500,-0.050000,-0.437500,0.050000,-0.437500,0.050000,$1*%
%AMFreePoly8*
4,1,18,-0.100000,0.387500,-0.096194,0.406634,-0.085355,0.422855,-0.069134,0.433694,-0.050000,0.437500,0.050000,0.437500,0.069134,0.433694,0.085355,0.422855,0.096194,0.406634,0.100000,0.387500,0.100000,-0.387500,0.050000,-0.437500,-0.050000,-0.437500,-0.069134,-0.433694,-0.085355,-0.422855,-0.096194,-0.406634,-0.100000,-0.387500,-0.100000,0.387500,-0.100000,0.387500,$1*%
%AMFreePoly9*
4,1,18,-0.100000,0.387500,-0.096194,0.406634,-0.085355,0.422855,-0.069134,0.433694,-0.050000,0.437500,0.050000,0.437500,0.069134,0.433694,0.085355,0.422855,0.096194,0.406634,0.100000,0.387500,0.100000,-0.387500,0.096194,-0.406634,0.085355,-0.422855,0.069134,-0.433694,0.050000,-0.437500,-0.050000,-0.437500,-0.100000,-0.387500,-0.100000,0.387500,-0.100000,0.387500,$1*%
G04 Aperture macros list end*
%ADD10R,0.700000X1.700000*%
%ADD11RoundRect,0.135000X-0.185000X0.135000X-0.185000X-0.135000X0.185000X-0.135000X0.185000X0.135000X0*%
%ADD12R,0.600000X1.450000*%
%ADD13R,0.300000X1.450000*%
%ADD14RoundRect,0.135000X0.135000X0.185000X-0.135000X0.185000X-0.135000X-0.185000X0.135000X-0.185000X0*%
%ADD15RoundRect,0.140000X-0.140000X-0.170000X0.140000X-0.170000X0.140000X0.170000X-0.140000X0.170000X0*%
%ADD16RoundRect,0.140000X0.140000X0.170000X-0.140000X0.170000X-0.140000X-0.170000X0.140000X-0.170000X0*%
%ADD17FreePoly0,90.000000*%
%ADD18R,0.600000X0.200000*%
%ADD19FreePoly1,90.000000*%
%ADD20FreePoly0,270.000000*%
%ADD21FreePoly1,270.000000*%
%ADD22R,0.470000X0.530000*%
%ADD23RoundRect,0.243750X0.243750X0.456250X-0.243750X0.456250X-0.243750X-0.456250X0.243750X-0.456250X0*%
%ADD24R,1.000760X1.699260*%
%ADD25RoundRect,0.140000X-0.170000X0.140000X-0.170000X-0.140000X0.170000X-0.140000X0.170000X0.140000X0*%
%ADD26RoundRect,0.250000X-0.925000X0.412500X-0.925000X-0.412500X0.925000X-0.412500X0.925000X0.412500X0*%
%ADD27R,1.060000X0.650000*%
%ADD28R,1.200000X2.000000*%
%ADD29O,1.500000X2.300000*%
%ADD30O,1.500000X2.700000*%
%ADD31RoundRect,0.150000X0.150000X-0.650000X0.150000X0.650000X-0.150000X0.650000X-0.150000X-0.650000X0*%
%ADD32RoundRect,0.135000X-0.135000X-0.185000X0.135000X-0.185000X0.135000X0.185000X-0.135000X0.185000X0*%
%ADD33RoundRect,0.250000X-0.350000X-0.350000X0.350000X-0.350000X0.350000X0.350000X-0.350000X0.350000X0*%
%ADD34FreePoly2,0.000000*%
%ADD35RoundRect,0.050000X-0.387500X-0.050000X0.387500X-0.050000X0.387500X0.050000X-0.387500X0.050000X0*%
%ADD36FreePoly3,0.000000*%
%ADD37FreePoly4,0.000000*%
%ADD38RoundRect,0.050000X-0.050000X-0.387500X0.050000X-0.387500X0.050000X0.387500X-0.050000X0.387500X0*%
%ADD39FreePoly5,0.000000*%
%ADD40FreePoly6,0.000000*%
%ADD41FreePoly7,0.000000*%
%ADD42FreePoly8,0.000000*%
%ADD43FreePoly9,0.000000*%
%ADD44RoundRect,0.140000X0.170000X-0.140000X0.170000X0.140000X-0.170000X0.140000X-0.170000X-0.140000X0*%
%ADD45RoundRect,0.135000X0.185000X-0.135000X0.185000X0.135000X-0.185000X0.135000X-0.185000X-0.135000X0*%
%ADD46R,1.400000X1.200000*%
G04 APERTURE END LIST*
D10*
X132200000Y-40300000D03*
X133600000Y-40300000D03*
D11*
X146550000Y-34640000D03*
X146550000Y-35660000D03*
D12*
X148250000Y-32845000D03*
X147450000Y-32845000D03*
D13*
X146750000Y-32845000D03*
X146250000Y-32845000D03*
X145750000Y-32845000D03*
X145250000Y-32845000D03*
X144750000Y-32845000D03*
X144250000Y-32845000D03*
X143750000Y-32845000D03*
X143250000Y-32845000D03*
D12*
X142550000Y-32845000D03*
X141750000Y-32845000D03*
D14*
X143010000Y-34700000D03*
X141990000Y-34700000D03*
X139710000Y-50750000D03*
X138690000Y-50750000D03*
D15*
X137520000Y-48625000D03*
X138480000Y-48625000D03*
D14*
X139710000Y-51850000D03*
X138690000Y-51850000D03*
D15*
X135920000Y-44800000D03*
X136880000Y-44800000D03*
D16*
X124680000Y-46950000D03*
X123720000Y-46950000D03*
D17*
X142900000Y-38150000D03*
D18*
X142900000Y-37650000D03*
X142900000Y-37150000D03*
D19*
X142900000Y-36650000D03*
D20*
X141900000Y-36650000D03*
D18*
X141900000Y-37150000D03*
X141900000Y-37650000D03*
D21*
X141900000Y-38150000D03*
D22*
X132385000Y-42900000D03*
X133415000Y-42900000D03*
D15*
X132000000Y-55750000D03*
X132960000Y-55750000D03*
X142790000Y-43060000D03*
X143750000Y-43060000D03*
D11*
X130800000Y-39590000D03*
X130800000Y-40610000D03*
D22*
X132385000Y-41950000D03*
X133415000Y-41950000D03*
D23*
X147450000Y-38250000D03*
X145575000Y-38250000D03*
D24*
X108650880Y-59799460D03*
X108650880Y-53200540D03*
X112349120Y-59799460D03*
X112349120Y-53200540D03*
D25*
X135100000Y-41970000D03*
X135100000Y-42930000D03*
D11*
X129800000Y-39590000D03*
X129800000Y-40610000D03*
D15*
X134645000Y-52275000D03*
X135605000Y-52275000D03*
D26*
X190000000Y-41675000D03*
X190000000Y-44750000D03*
D27*
X141470000Y-43060000D03*
X141470000Y-42110000D03*
X141470000Y-41160000D03*
X139270000Y-41160000D03*
X139270000Y-43060000D03*
D28*
X193500000Y-37006000D03*
X191000000Y-37006000D03*
X189000000Y-37006000D03*
X186500000Y-37006000D03*
D29*
X197850000Y-35400000D03*
D30*
X197850000Y-28500000D03*
D29*
X182150000Y-35400000D03*
D30*
X182150000Y-28500000D03*
D16*
X129030000Y-52200000D03*
X128070000Y-52200000D03*
X129980000Y-55750000D03*
X129020000Y-55750000D03*
D31*
X122295000Y-41150000D03*
X123565000Y-41150000D03*
X124835000Y-41150000D03*
X126105000Y-41150000D03*
X126105000Y-33950000D03*
X124835000Y-33950000D03*
X123565000Y-33950000D03*
X122295000Y-33950000D03*
D32*
X114640000Y-61900000D03*
X115660000Y-61900000D03*
D33*
X130200000Y-46800000D03*
X130200000Y-48200000D03*
X131600000Y-46800000D03*
X131600000Y-48200000D03*
D34*
X127462500Y-44700000D03*
D35*
X127462500Y-45100000D03*
X127462500Y-45500000D03*
X127462500Y-45900000D03*
X127462500Y-46300000D03*
X127462500Y-46700000D03*
X127462500Y-47100000D03*
X127462500Y-47500000D03*
X127462500Y-47900000D03*
X127462500Y-48300000D03*
X127462500Y-48700000D03*
X127462500Y-49100000D03*
X127462500Y-49500000D03*
X127462500Y-49900000D03*
D36*
X127462500Y-50300000D03*
D37*
X128100000Y-50937500D03*
D38*
X128500000Y-50937500D03*
X128900000Y-50937500D03*
X129300000Y-50937500D03*
X129700000Y-50937500D03*
X130100000Y-50937500D03*
X130500000Y-50937500D03*
X130900000Y-50937500D03*
X131300000Y-50937500D03*
X131700000Y-50937500D03*
X132100000Y-50937500D03*
X132500000Y-50937500D03*
X132900000Y-50937500D03*
X133300000Y-50937500D03*
D39*
X133700000Y-50937500D03*
D40*
X134337500Y-50300000D03*
D35*
X134337500Y-49900000D03*
X134337500Y-49500000D03*
X134337500Y-49100000D03*
X134337500Y-48700000D03*
X134337500Y-48300000D03*
X134337500Y-47900000D03*
X134337500Y-47500000D03*
X134337500Y-47100000D03*
X134337500Y-46700000D03*
X134337500Y-46300000D03*
X134337500Y-45900000D03*
X134337500Y-45500000D03*
X134337500Y-45100000D03*
D41*
X134337500Y-44700000D03*
D42*
X133700000Y-44062500D03*
D38*
X133300000Y-44062500D03*
X132900000Y-44062500D03*
X132500000Y-44062500D03*
X132100000Y-44062500D03*
X131700000Y-44062500D03*
X131300000Y-44062500D03*
X130900000Y-44062500D03*
X130500000Y-44062500D03*
X130100000Y-44062500D03*
X129700000Y-44062500D03*
X129300000Y-44062500D03*
X128900000Y-44062500D03*
X128500000Y-44062500D03*
D43*
X128100000Y-44062500D03*
D11*
X123400000Y-43140000D03*
X123400000Y-44160000D03*
D25*
X131700000Y-53250000D03*
X131700000Y-54210000D03*
D11*
X130500000Y-53240000D03*
X130500000Y-54260000D03*
D24*
X114650880Y-59799460D03*
X114650880Y-53200540D03*
X118349120Y-59799460D03*
X118349120Y-53200540D03*
D44*
X120650000Y-34280000D03*
X120650000Y-33320000D03*
D16*
X126130000Y-49000000D03*
X125170000Y-49000000D03*
D45*
X122300000Y-44160000D03*
X122300000Y-43140000D03*
D11*
X135100000Y-40090000D03*
X135100000Y-41110000D03*
D46*
X129800000Y-60000000D03*
X132000000Y-60000000D03*
X132000000Y-58300000D03*
X129800000Y-58300000D03*
D25*
X126100000Y-43820000D03*
X126100000Y-44780000D03*
D44*
X128800000Y-40580000D03*
X128800000Y-39620000D03*
X137740000Y-43060000D03*
X137740000Y-42100000D03*
D15*
X137520000Y-47600000D03*
X138480000Y-47600000D03*
M02*
