M48
; DRILL file {KiCad 9.0.0} date 2025-03-17T16:01:18+0100
; FORMAT={-:-/ absolute / metric / decimal}
; #@! TF.CreationDate,2025-03-17T16:01:18+01:00
; #@! TF.GenerationSoftware,Kicad,Pcbnew,9.0.0
; #@! TF.FileFunction,Plated,1,2,PTH
FMAT,2
METRIC
; #@! TA.AperFunction,Plated,PTH,ViaDrill
T1C0.350
; #@! TA.AperFunction,Plated,PTH,ComponentDrill
T2C0.350
; #@! TA.AperFunction,Plated,PTH,ComponentDrill
T3C0.600
; #@! TA.AperFunction,Plated,PTH,ComponentDrill
T4C0.800
; #@! TA.AperFunction,Plated,PTH,ComponentDrill
T5C1.100
; #@! TA.AperFunction,Plated,PTH,ComponentDrill
T6C1.270
%
G90
G05
T1
X108.65Y-56.5
X116.4Y-61.9
X120.65Y-32.5
X122.25Y-51.1
X122.95Y-46.95
X124.3Y-43.6
X124.35Y-49.0
X125.2Y-44.8
X125.55Y-46.9
X126.1Y-39.65
X127.35Y-52.2
X128.3Y-55.75
X128.3Y-58.25
X128.75Y-46.7
X128.8Y-38.9
X131.1Y-49.649
X131.1Y-52.65
X131.388Y-45.35
X131.4Y-41.6
X131.4Y-42.2
X132.5Y-54.25
X133.049Y-47.1
X133.6Y-59.95
X133.7Y-55.75
X134.0Y-42.0
X134.0Y-42.6
X134.75Y-43.65
X136.35Y-52.25
X136.678Y-47.3
X137.6Y-44.8
X137.72Y-41.26
X139.2Y-47.625
X139.225Y-48.625
X140.75Y-36.6
X140.751Y-38.2
X143.75Y-42.14
X146.55Y-36.4
X148.25Y-34.55
X152.449Y-50.899
X152.45Y-45.85
X152.977Y-51.5
X153.05Y-45.25
X185.1Y-37.0
X190.0Y-46.05
T2
X129.525Y-46.125
X129.525Y-47.5
X129.525Y-48.875
X130.9Y-46.125
X130.9Y-47.5
X130.9Y-48.875
X132.275Y-46.125
X132.275Y-47.5
X132.275Y-48.875
T5
X55.5Y-36.5
X55.5Y-43.0
X60.0Y-36.5
X60.0Y-43.0
X65.5Y-36.5
X65.5Y-43.0
X70.0Y-36.5
X70.0Y-43.0
X75.5Y-36.5
X75.5Y-43.0
X80.0Y-36.5
X80.0Y-43.0
X88.5Y-36.5
X88.5Y-43.0
X93.0Y-36.5
X93.0Y-43.0
X98.5Y-36.5
X98.5Y-43.0
X103.0Y-36.5
X103.0Y-43.0
X108.5Y-36.5
X108.5Y-43.0
X113.0Y-36.5
X113.0Y-43.0
T6
X53.225Y-68.85
X58.225Y-70.95
X82.32Y-68.97
X87.32Y-71.07
X108.92Y-80.32
X113.92Y-82.42
X126.42Y-133.42
X131.42Y-135.52
X138.25Y-99.95
X143.25Y-102.05
X143.86Y-68.91
X148.86Y-71.01
X164.86Y-88.84
X169.86Y-90.94
X170.42Y-57.38
X175.42Y-59.48
X193.71Y-88.84
X198.71Y-90.94
X199.39Y-57.26
X204.39Y-59.36
X222.92Y-88.84
X227.92Y-90.94
X228.36Y-57.5
X233.36Y-59.6
T3
X140.68Y-28.05G85X140.68Y-27.45
G05
X140.68Y-32.48G85X140.68Y-31.38
G05
X149.32Y-28.05G85X149.32Y-27.45
G05
X149.32Y-32.48G85X149.32Y-31.38
G05
T4
X182.15Y-29.1G85X182.15Y-27.9
G05
X182.15Y-35.8G85X182.15Y-35.0
G05
X197.85Y-29.1G85X197.85Y-27.9
G05
X197.85Y-35.8G85X197.85Y-35.0
G05
M30
